<svg width="1378" height="792" viewBox="0 0 1378 792" fill="none" xmlns="http://www.w3.org/2000/svg">
<mask id="path-1-outside-1_1_244" maskUnits="userSpaceOnUse" x="322" y="91" width="743" height="614" fill="black">
<rect fill="white" x="322" y="91" width="743" height="614"/>
<path d="M370.18 125V186.5H435.58C447.58 186.5 457.48 184.3 465.28 179.9C474.08 174.9 478.48 166.6 478.48 155C478.48 143.8 474.38 135.8 466.18 131C464.78 130 463.28 129.2 461.68 128.6C460.08 127.8 458.28 127.2 456.28 126.8C454.28 126.4 452.58 126.1 451.18 125.9C449.98 125.5 448.18 125.3 445.78 125.3C443.38 125.1 441.78 125 440.98 125C440.18 125 438.48 125 435.88 125C433.28 125 431.88 125 431.68 125H370.18ZM323.68 302V92H442.78C473.98 92 495.88 97.4 508.48 108.2C519.68 117.8 525.28 131.6 525.28 149.6C525.28 165.2 520.58 177.7 511.18 187.1C503.78 194.5 494.58 199.4 483.58 201.8V202.7C493.98 204.7 502.08 208.8 507.88 215C510.88 218 513.18 221.6 514.78 225.8C516.38 229.8 517.28 232.8 517.48 234.8C517.88 236.8 518.28 240.5 518.68 245.9L520.48 272.3C520.48 273.1 520.58 274.8 520.78 277.4C520.98 280 521.08 281.7 521.08 282.5C521.28 283.3 521.58 284.8 521.98 287C522.38 289.2 522.78 290.9 523.18 292.1C523.78 293.3 524.58 294.8 525.58 296.6C526.58 298.4 527.78 300.2 529.18 302H479.68C475.28 295.4 472.58 286.4 471.58 275L470.68 255.5C469.68 244.5 467.88 236.9 465.28 232.7C463.68 230.3 461.88 228.3 459.88 226.7C453.68 221.5 442.98 218.9 427.78 218.9H370.18V302H323.68ZM614.809 177.5H734.809V212.3H614.809V266.6H757.309V302H568.309V92H753.709V127.4H614.809V177.5ZM874.135 256.4L933.235 92H983.335L898.135 302H846.535L761.335 92H813.535L872.635 256.4H874.135ZM1007.76 92H1054.26V302H1007.76V92ZM373.256 573.5H493.256V608.3H373.256V662.6H515.756V698H326.756V488H512.156V523.4H373.256V573.5ZM683.282 534.8L632.282 698H582.782L519.782 488H568.682L608.582 651.8L661.082 488H705.482L757.682 651.8L797.282 488H846.182L783.182 698H733.682L683.282 534.8ZM858.506 630.5H906.806V631.7C906.806 645.1 912.106 655 922.706 661.4C932.106 666.8 945.406 669.5 962.606 669.5C979.206 669.5 991.606 667.4 999.806 663.2C1010.21 657.6 1015.41 649.6 1015.41 639.2C1015.41 630.4 1010.91 623.4 1001.91 618.2C997.106 615.2 985.806 612 968.006 608.6L941.006 603.8C927.806 601.4 918.306 599.6 912.506 598.4C906.706 597 900.106 594.9 892.706 592.1C885.506 589.3 879.906 586.1 875.906 582.5C866.506 574.1 861.806 562.4 861.806 547.4C861.806 525.2 871.306 508.3 890.306 496.7C906.906 486.7 929.206 481.7 957.206 481.7C986.206 481.7 1009.01 486.1 1025.61 494.9C1045.41 505.9 1055.31 522.8 1055.31 545.6H1007.91C1007.51 534.6 1002.11 526.4 991.706 521C983.706 516.8 971.806 514.7 956.006 514.7C943.006 514.7 932.506 516.7 924.506 520.7C913.906 526.1 908.606 533.5 908.606 542.9C908.606 551.9 914.006 558.5 924.806 562.7C929.806 564.9 943.506 567.9 965.906 571.7L989.606 575.6C1015.01 580 1032.91 586 1043.31 593.6C1056.51 603.8 1063.11 618.1 1063.11 636.5C1063.11 661.5 1053.61 679.7 1034.61 691.1C1020.61 699.5 998.506 703.7 968.306 703.7C934.706 703.7 910.306 700.1 895.106 692.9C870.706 681.5 858.506 661 858.506 631.4V630.5Z"/>
</mask>
<path d="M370.18 125V124H369.18V125H370.18ZM370.18 186.5H369.18V187.5H370.18V186.5ZM465.28 179.9L465.771 180.771L465.774 180.769L465.28 179.9ZM466.18 131L465.598 131.814L465.635 131.84L465.675 131.863L466.18 131ZM461.68 128.6L461.232 129.494L461.279 129.518L461.329 129.536L461.68 128.6ZM456.28 126.8L456.476 125.819L456.476 125.819L456.28 126.8ZM451.18 125.9L450.863 126.849L450.949 126.877L451.038 126.89L451.18 125.9ZM445.78 125.3L445.697 126.297L445.738 126.3H445.78V125.3ZM323.68 302H322.68V303H323.68V302ZM323.68 92V91H322.68V92H323.68ZM508.48 108.2L507.829 108.959L507.829 108.959L508.48 108.2ZM483.58 201.8L483.367 200.823L482.58 200.995V201.8H483.58ZM483.58 202.7H482.58V203.526L483.391 203.682L483.58 202.7ZM507.88 215L507.149 215.683L507.161 215.695L507.173 215.707L507.88 215ZM514.78 225.8L513.845 226.156L513.848 226.164L513.851 226.171L514.78 225.8ZM517.48 234.8L516.485 234.9L516.49 234.948L516.499 234.996L517.48 234.8ZM518.68 245.9L519.677 245.832L519.677 245.826L518.68 245.9ZM520.48 272.3H521.48V272.266L521.477 272.232L520.48 272.3ZM520.78 277.4L519.783 277.477L519.783 277.477L520.78 277.4ZM521.08 282.5H520.08V282.623L520.11 282.743L521.08 282.5ZM521.98 287L522.964 286.821L522.964 286.821L521.98 287ZM523.18 292.1L522.231 292.416L522.253 292.484L522.285 292.547L523.18 292.1ZM525.58 296.6L526.454 296.114L526.454 296.114L525.58 296.6ZM529.18 302V303H531.224L529.969 301.386L529.18 302ZM479.68 302L478.848 302.555L479.145 303H479.68V302ZM471.58 275L470.581 275.046L470.582 275.067L470.584 275.087L471.58 275ZM470.68 255.5L471.679 255.454L471.678 255.432L471.676 255.409L470.68 255.5ZM465.28 232.7L466.13 232.174L466.121 232.159L466.112 232.145L465.28 232.7ZM459.88 226.7L459.237 227.466L459.246 227.474L459.255 227.481L459.88 226.7ZM370.18 218.9V217.9H369.18V218.9H370.18ZM370.18 302V303H371.18V302H370.18ZM369.18 125V186.5H371.18V125H369.18ZM370.18 187.5H435.58V185.5H370.18V187.5ZM435.58 187.5C447.695 187.5 457.779 185.28 465.771 180.771L464.788 179.029C457.181 183.32 447.464 185.5 435.58 185.5V187.5ZM465.774 180.769C474.938 175.563 479.48 166.897 479.48 155H477.48C477.48 166.303 473.222 174.237 464.786 179.031L465.774 180.769ZM479.48 155C479.48 143.52 475.251 135.151 466.685 130.137L465.675 131.863C473.508 136.449 477.48 144.08 477.48 155H479.48ZM466.761 130.186C465.29 129.136 463.713 128.295 462.031 127.664L461.329 129.536C462.846 130.105 464.269 130.864 465.598 131.814L466.761 130.186ZM462.127 127.706C460.437 126.861 458.551 126.234 456.476 125.819L456.084 127.781C458.008 128.166 459.722 128.739 461.232 129.494L462.127 127.706ZM456.476 125.819C454.465 125.417 452.745 125.114 451.321 124.91L451.038 126.89C452.414 127.086 454.095 127.383 456.084 127.781L456.476 125.819ZM451.496 124.951C450.14 124.499 448.209 124.3 445.78 124.3V126.3C448.151 126.3 449.82 126.501 450.863 126.849L451.496 124.951ZM445.863 124.303C443.47 124.104 441.828 124 440.98 124V126C441.731 126 443.29 126.096 445.697 126.297L445.863 124.303ZM440.98 124C440.978 124 440.977 124 440.975 124C440.973 124 440.972 124 440.97 124C440.969 124 440.967 124 440.966 124C440.964 124 440.962 124 440.961 124C440.959 124 440.958 124 440.956 124C440.954 124 440.953 124 440.951 124C440.95 124 440.948 124 440.946 124C440.945 124 440.943 124 440.942 124C440.94 124 440.938 124 440.937 124C440.935 124 440.933 124 440.932 124C440.93 124 440.929 124 440.927 124C440.925 124 440.924 124 440.922 124C440.92 124 440.919 124 440.917 124C440.915 124 440.914 124 440.912 124C440.91 124 440.909 124 440.907 124C440.905 124 440.904 124 440.902 124C440.9 124 440.899 124 440.897 124C440.895 124 440.894 124 440.892 124C440.89 124 440.889 124 440.887 124C440.885 124 440.884 124 440.882 124C440.88 124 440.878 124 440.877 124C440.875 124 440.873 124 440.872 124C440.87 124 440.868 124 440.866 124C440.865 124 440.863 124 440.861 124C440.86 124 440.858 124 440.856 124C440.854 124 440.853 124 440.851 124C440.849 124 440.847 124 440.846 124C440.844 124 440.842 124 440.84 124C440.839 124 440.837 124 440.835 124C440.833 124 440.832 124 440.83 124C440.828 124 440.826 124 440.824 124C440.823 124 440.821 124 440.819 124C440.817 124 440.816 124 440.814 124C440.812 124 440.81 124 440.808 124C440.807 124 440.805 124 440.803 124C440.801 124 440.799 124 440.798 124C440.796 124 440.794 124 440.792 124C440.79 124 440.789 124 440.787 124C440.785 124 440.783 124 440.781 124C440.779 124 440.778 124 440.776 124C440.774 124 440.772 124 440.77 124C440.768 124 440.766 124 440.765 124C440.763 124 440.761 124 440.759 124C440.757 124 440.755 124 440.754 124C440.752 124 440.75 124 440.748 124C440.746 124 440.744 124 440.742 124C440.74 124 440.739 124 440.737 124C440.735 124 440.733 124 440.731 124C440.729 124 440.727 124 440.725 124C440.723 124 440.721 124 440.72 124C440.718 124 440.716 124 440.714 124C440.712 124 440.71 124 440.708 124C440.706 124 440.704 124 440.702 124C440.7 124 440.698 124 440.697 124C440.695 124 440.693 124 440.691 124C440.689 124 440.687 124 440.685 124C440.683 124 440.681 124 440.679 124C440.677 124 440.675 124 440.673 124C440.671 124 440.669 124 440.667 124C440.665 124 440.663 124 440.661 124C440.659 124 440.657 124 440.655 124C440.653 124 440.651 124 440.649 124C440.647 124 440.645 124 440.644 124C440.642 124 440.64 124 440.638 124C440.636 124 440.633 124 440.631 124C440.629 124 440.627 124 440.625 124C440.623 124 440.621 124 440.619 124C440.617 124 440.615 124 440.613 124C440.611 124 440.609 124 440.607 124C440.605 124 440.603 124 440.601 124C440.599 124 440.597 124 440.595 124C440.593 124 440.591 124 440.589 124C440.587 124 440.585 124 440.583 124C440.581 124 440.578 124 440.576 124C440.574 124 440.572 124 440.57 124C440.568 124 440.566 124 440.564 124C440.562 124 440.56 124 440.558 124C440.556 124 440.554 124 440.551 124C440.549 124 440.547 124 440.545 124C440.543 124 440.541 124 440.539 124C440.537 124 440.535 124 440.532 124C440.53 124 440.528 124 440.526 124C440.524 124 440.522 124 440.52 124C440.518 124 440.515 124 440.513 124C440.511 124 440.509 124 440.507 124C440.505 124 440.503 124 440.5 124C440.498 124 440.496 124 440.494 124C440.492 124 440.49 124 440.487 124C440.485 124 440.483 124 440.481 124C440.479 124 440.477 124 440.474 124C440.472 124 440.47 124 440.468 124C440.466 124 440.463 124 440.461 124C440.459 124 440.457 124 440.455 124C440.452 124 440.45 124 440.448 124C440.446 124 440.444 124 440.441 124C440.439 124 440.437 124 440.435 124C440.433 124 440.43 124 440.428 124C440.426 124 440.424 124 440.421 124C440.419 124 440.417 124 440.415 124C440.412 124 440.41 124 440.408 124C440.406 124 440.403 124 440.401 124C440.399 124 440.397 124 440.394 124C440.392 124 440.39 124 440.388 124C440.385 124 440.383 124 440.381 124C440.379 124 440.376 124 440.374 124C440.372 124 440.369 124 440.367 124C440.365 124 440.363 124 440.36 124C440.358 124 440.356 124 440.353 124C440.351 124 440.349 124 440.346 124C440.344 124 440.342 124 440.339 124C440.337 124 440.335 124 440.332 124C440.33 124 440.328 124 440.325 124C440.323 124 440.321 124 440.318 124C440.316 124 440.314 124 440.311 124C440.309 124 440.307 124 440.304 124C440.302 124 440.3 124 440.297 124C440.295 124 440.293 124 440.29 124C440.288 124 440.286 124 440.283 124C440.281 124 440.278 124 440.276 124C440.274 124 440.271 124 440.269 124C440.266 124 440.264 124 440.262 124C440.259 124 440.257 124 440.255 124C440.252 124 440.25 124 440.247 124C440.245 124 440.242 124 440.24 124C440.238 124 440.235 124 440.233 124C440.23 124 440.228 124 440.226 124C440.223 124 440.221 124 440.218 124C440.216 124 440.213 124 440.211 124C440.209 124 440.206 124 440.204 124C440.201 124 440.199 124 440.196 124C440.194 124 440.191 124 440.189 124C440.186 124 440.184 124 440.181 124C440.179 124 440.177 124 440.174 124C440.172 124 440.169 124 440.167 124C440.164 124 440.162 124 440.159 124C440.157 124 440.154 124 440.152 124C440.149 124 440.147 124 440.144 124C440.142 124 440.139 124 440.137 124C440.134 124 440.132 124 440.129 124C440.127 124 440.124 124 440.122 124C440.119 124 440.117 124 440.114 124C440.111 124 440.109 124 440.106 124C440.104 124 440.101 124 440.099 124C440.096 124 440.094 124 440.091 124C440.089 124 440.086 124 440.083 124C440.081 124 440.078 124 440.076 124C440.073 124 440.071 124 440.068 124C440.065 124 440.063 124 440.06 124C440.058 124 440.055 124 440.053 124C440.05 124 440.047 124 440.045 124C440.042 124 440.04 124 440.037 124C440.034 124 440.032 124 440.029 124C440.027 124 440.024 124 440.021 124C440.019 124 440.016 124 440.014 124C440.011 124 440.008 124 440.006 124C440.003 124 440 124 439.998 124C439.995 124 439.993 124 439.99 124C439.987 124 439.985 124 439.982 124C439.979 124 439.977 124 439.974 124C439.971 124 439.969 124 439.966 124C439.963 124 439.961 124 439.958 124C439.955 124 439.953 124 439.95 124C439.947 124 439.945 124 439.942 124C439.939 124 439.937 124 439.934 124C439.931 124 439.929 124 439.926 124C439.923 124 439.92 124 439.918 124C439.915 124 439.912 124 439.91 124C439.907 124 439.904 124 439.901 124C439.899 124 439.896 124 439.893 124C439.891 124 439.888 124 439.885 124C439.882 124 439.88 124 439.877 124C439.874 124 439.871 124 439.869 124C439.866 124 439.863 124 439.86 124C439.858 124 439.855 124 439.852 124C439.849 124 439.847 124 439.844 124C439.841 124 439.838 124 439.836 124C439.833 124 439.83 124 439.827 124C439.825 124 439.822 124 439.819 124C439.816 124 439.813 124 439.811 124C439.808 124 439.805 124 439.802 124C439.799 124 439.797 124 439.794 124C439.791 124 439.788 124 439.785 124C439.783 124 439.78 124 439.777 124C439.774 124 439.771 124 439.768 124C439.766 124 439.763 124 439.76 124C439.757 124 439.754 124 439.751 124C439.749 124 439.746 124 439.743 124C439.74 124 439.737 124 439.734 124C439.732 124 439.729 124 439.726 124C439.723 124 439.72 124 439.717 124C439.714 124 439.712 124 439.709 124C439.706 124 439.703 124 439.7 124C439.697 124 439.694 124 439.691 124C439.688 124 439.686 124 439.683 124C439.68 124 439.677 124 439.674 124C439.671 124 439.668 124 439.665 124C439.662 124 439.659 124 439.657 124C439.654 124 439.651 124 439.648 124C439.645 124 439.642 124 439.639 124C439.636 124 439.633 124 439.63 124C439.627 124 439.624 124 439.621 124C439.618 124 439.616 124 439.613 124C439.61 124 439.607 124 439.604 124C439.601 124 439.598 124 439.595 124C439.592 124 439.589 124 439.586 124C439.583 124 439.58 124 439.577 124C439.574 124 439.571 124 439.568 124C439.565 124 439.562 124 439.559 124C439.556 124 439.553 124 439.55 124C439.547 124 439.544 124 439.541 124C439.538 124 439.535 124 439.532 124C439.529 124 439.526 124 439.523 124C439.52 124 439.517 124 439.514 124C439.511 124 439.508 124 439.505 124C439.502 124 439.499 124 439.496 124C439.493 124 439.49 124 439.487 124C439.484 124 439.481 124 439.478 124C439.474 124 439.471 124 439.468 124C439.465 124 439.462 124 439.459 124C439.456 124 439.453 124 439.45 124C439.447 124 439.444 124 439.441 124C439.438 124 439.435 124 439.431 124C439.428 124 439.425 124 439.422 124C439.419 124 439.416 124 439.413 124C439.41 124 439.407 124 439.404 124C439.4 124 439.397 124 439.394 124C439.391 124 439.388 124 439.385 124C439.382 124 439.379 124 439.376 124C439.372 124 439.369 124 439.366 124C439.363 124 439.36 124 439.357 124C439.354 124 439.35 124 439.347 124C439.344 124 439.341 124 439.338 124C439.335 124 439.332 124 439.328 124C439.325 124 439.322 124 439.319 124C439.316 124 439.313 124 439.309 124C439.306 124 439.303 124 439.3 124C439.297 124 439.293 124 439.29 124C439.287 124 439.284 124 439.281 124C439.277 124 439.274 124 439.271 124C439.268 124 439.265 124 439.261 124C439.258 124 439.255 124 439.252 124C439.249 124 439.245 124 439.242 124C439.239 124 439.236 124 439.232 124C439.229 124 439.226 124 439.223 124C439.22 124 439.216 124 439.213 124C439.21 124 439.207 124 439.203 124C439.2 124 439.197 124 439.194 124C439.19 124 439.187 124 439.184 124C439.18 124 439.177 124 439.174 124C439.171 124 439.167 124 439.164 124C439.161 124 439.158 124 439.154 124C439.151 124 439.148 124 439.144 124C439.141 124 439.138 124 439.134 124C439.131 124 439.128 124 439.125 124C439.121 124 439.118 124 439.115 124C439.111 124 439.108 124 439.105 124C439.101 124 439.098 124 439.095 124C439.091 124 439.088 124 439.085 124C439.081 124 439.078 124 439.075 124C439.071 124 439.068 124 439.065 124C439.061 124 439.058 124 439.055 124C439.051 124 439.048 124 439.045 124C439.041 124 439.038 124 439.034 124C439.031 124 439.028 124 439.024 124C439.021 124 439.018 124 439.014 124C439.011 124 439.007 124 439.004 124C439.001 124 438.997 124 438.994 124C438.99 124 438.987 124 438.984 124C438.98 124 438.977 124 438.973 124C438.97 124 438.967 124 438.963 124C438.96 124 438.956 124 438.953 124C438.95 124 438.946 124 438.943 124C438.939 124 438.936 124 438.932 124C438.929 124 438.926 124 438.922 124C438.919 124 438.915 124 438.912 124C438.908 124 438.905 124 438.901 124C438.898 124 438.894 124 438.891 124C438.888 124 438.884 124 438.881 124C438.877 124 438.874 124 438.87 124C438.867 124 438.863 124 438.86 124C438.856 124 438.853 124 438.849 124C438.846 124 438.842 124 438.839 124C438.835 124 438.832 124 438.828 124C438.825 124 438.821 124 438.818 124C438.814 124 438.811 124 438.807 124C438.804 124 438.8 124 438.797 124C438.793 124 438.79 124 438.786 124C438.782 124 438.779 124 438.775 124C438.772 124 438.768 124 438.765 124C438.761 124 438.758 124 438.754 124C438.751 124 438.747 124 438.743 124C438.74 124 438.736 124 438.733 124C438.729 124 438.726 124 438.722 124C438.718 124 438.715 124 438.711 124C438.708 124 438.704 124 438.701 124C438.697 124 438.693 124 438.69 124C438.686 124 438.683 124 438.679 124C438.675 124 438.672 124 438.668 124C438.665 124 438.661 124 438.657 124C438.654 124 438.65 124 438.646 124C438.643 124 438.639 124 438.636 124C438.632 124 438.628 124 438.625 124C438.621 124 438.617 124 438.614 124C438.61 124 438.606 124 438.603 124C438.599 124 438.596 124 438.592 124C438.588 124 438.585 124 438.581 124C438.577 124 438.574 124 438.57 124C438.566 124 438.563 124 438.559 124C438.555 124 438.552 124 438.548 124C438.544 124 438.54 124 438.537 124C438.533 124 438.529 124 438.526 124C438.522 124 438.518 124 438.515 124C438.511 124 438.507 124 438.503 124C438.5 124 438.496 124 438.492 124C438.489 124 438.485 124 438.481 124C438.477 124 438.474 124 438.47 124C438.466 124 438.462 124 438.459 124C438.455 124 438.451 124 438.448 124C438.444 124 438.44 124 438.436 124C438.433 124 438.429 124 438.425 124C438.421 124 438.417 124 438.414 124C438.41 124 438.406 124 438.402 124C438.399 124 438.395 124 438.391 124C438.387 124 438.384 124 438.38 124C438.376 124 438.372 124 438.368 124C438.365 124 438.361 124 438.357 124C438.353 124 438.349 124 438.346 124C438.342 124 438.338 124 438.334 124C438.33 124 438.326 124 438.323 124C438.319 124 438.315 124 438.311 124C438.307 124 438.304 124 438.3 124C438.296 124 438.292 124 438.288 124C438.284 124 438.28 124 438.277 124C438.273 124 438.269 124 438.265 124C438.261 124 438.257 124 438.254 124C438.25 124 438.246 124 438.242 124C438.238 124 438.234 124 438.23 124C438.226 124 438.223 124 438.219 124C438.215 124 438.211 124 438.207 124C438.203 124 438.199 124 438.195 124C438.191 124 438.188 124 438.184 124C438.18 124 438.176 124 438.172 124C438.168 124 438.164 124 438.16 124C438.156 124 438.152 124 438.148 124C438.144 124 438.141 124 438.137 124C438.133 124 438.129 124 438.125 124C438.121 124 438.117 124 438.113 124C438.109 124 438.105 124 438.101 124C438.097 124 438.093 124 438.089 124C438.085 124 438.081 124 438.077 124C438.073 124 438.069 124 438.065 124C438.061 124 438.058 124 438.054 124C438.05 124 438.046 124 438.042 124C438.038 124 438.034 124 438.03 124C438.026 124 438.022 124 438.018 124C438.014 124 438.01 124 438.006 124C438.002 124 437.998 124 437.994 124C437.99 124 437.986 124 437.982 124C437.978 124 437.973 124 437.969 124C437.965 124 437.961 124 437.957 124C437.953 124 437.949 124 437.945 124C437.941 124 437.937 124 437.933 124C437.929 124 437.925 124 437.921 124C437.917 124 437.913 124 437.909 124C437.905 124 437.901 124 437.897 124C437.893 124 437.888 124 437.884 124C437.88 124 437.876 124 437.872 124C437.868 124 437.864 124 437.86 124C437.856 124 437.852 124 437.848 124C437.843 124 437.839 124 437.835 124C437.831 124 437.827 124 437.823 124C437.819 124 437.815 124 437.811 124C437.807 124 437.802 124 437.798 124C437.794 124 437.79 124 437.786 124C437.782 124 437.778 124 437.773 124C437.769 124 437.765 124 437.761 124C437.757 124 437.753 124 437.749 124C437.744 124 437.74 124 437.736 124C437.732 124 437.728 124 437.724 124C437.72 124 437.715 124 437.711 124C437.707 124 437.703 124 437.699 124C437.694 124 437.69 124 437.686 124C437.682 124 437.678 124 437.674 124C437.669 124 437.665 124 437.661 124C437.657 124 437.653 124 437.648 124C437.644 124 437.64 124 437.636 124C437.631 124 437.627 124 437.623 124C437.619 124 437.615 124 437.61 124C437.606 124 437.602 124 437.598 124C437.593 124 437.589 124 437.585 124C437.581 124 437.577 124 437.572 124C437.568 124 437.564 124 437.56 124C437.555 124 437.551 124 437.547 124C437.542 124 437.538 124 437.534 124C437.53 124 437.525 124 437.521 124C437.517 124 437.513 124 437.508 124C437.504 124 437.5 124 437.495 124C437.491 124 437.487 124 437.483 124C437.478 124 437.474 124 437.47 124C437.465 124 437.461 124 437.457 124C437.452 124 437.448 124 437.444 124C437.439 124 437.435 124 437.431 124C437.427 124 437.422 124 437.418 124C437.414 124 437.409 124 437.405 124C437.401 124 437.396 124 437.392 124C437.388 124 437.383 124 437.379 124C437.374 124 437.37 124 437.366 124C437.361 124 437.357 124 437.353 124C437.348 124 437.344 124 437.34 124C437.335 124 437.331 124 437.326 124C437.322 124 437.318 124 437.313 124C437.309 124 437.305 124 437.3 124C437.296 124 437.291 124 437.287 124C437.283 124 437.278 124 437.274 124C437.269 124 437.265 124 437.261 124C437.256 124 437.252 124 437.247 124C437.243 124 437.238 124 437.234 124C437.23 124 437.225 124 437.221 124C437.216 124 437.212 124 437.207 124C437.203 124 437.199 124 437.194 124C437.19 124 437.185 124 437.181 124C437.176 124 437.172 124 437.167 124C437.163 124 437.158 124 437.154 124C437.15 124 437.145 124 437.141 124C437.136 124 437.132 124 437.127 124C437.123 124 437.118 124 437.114 124C437.109 124 437.105 124 437.1 124C437.096 124 437.091 124 437.087 124C437.082 124 437.078 124 437.073 124C437.069 124 437.064 124 437.06 124C437.055 124 437.051 124 437.046 124C437.042 124 437.037 124 437.033 124C437.028 124 437.023 124 437.019 124C437.014 124 437.01 124 437.005 124C437.001 124 436.996 124 436.992 124C436.987 124 436.983 124 436.978 124C436.973 124 436.969 124 436.964 124C436.96 124 436.955 124 436.951 124C436.946 124 436.941 124 436.937 124C436.932 124 436.928 124 436.923 124C436.919 124 436.914 124 436.909 124C436.905 124 436.9 124 436.896 124C436.891 124 436.886 124 436.882 124C436.877 124 436.873 124 436.868 124C436.863 124 436.859 124 436.854 124C436.85 124 436.845 124 436.84 124C436.836 124 436.831 124 436.826 124C436.822 124 436.817 124 436.813 124C436.808 124 436.803 124 436.799 124C436.794 124 436.789 124 436.785 124C436.78 124 436.775 124 436.771 124C436.766 124 436.761 124 436.757 124C436.752 124 436.747 124 436.743 124C436.738 124 436.733 124 436.729 124C436.724 124 436.719 124 436.715 124C436.71 124 436.705 124 436.701 124C436.696 124 436.691 124 436.686 124C436.682 124 436.677 124 436.672 124C436.668 124 436.663 124 436.658 124C436.653 124 436.649 124 436.644 124C436.639 124 436.635 124 436.63 124C436.625 124 436.62 124 436.616 124C436.611 124 436.606 124 436.601 124C436.597 124 436.592 124 436.587 124C436.582 124 436.578 124 436.573 124C436.568 124 436.563 124 436.559 124C436.554 124 436.549 124 436.544 124C436.54 124 436.535 124 436.53 124C436.525 124 436.521 124 436.516 124C436.511 124 436.506 124 436.501 124C436.497 124 436.492 124 436.487 124C436.482 124 436.477 124 436.473 124C436.468 124 436.463 124 436.458 124C436.453 124 436.449 124 436.444 124C436.439 124 436.434 124 436.429 124C436.424 124 436.42 124 436.415 124C436.41 124 436.405 124 436.4 124C436.395 124 436.391 124 436.386 124C436.381 124 436.376 124 436.371 124C436.366 124 436.362 124 436.357 124C436.352 124 436.347 124 436.342 124C436.337 124 436.332 124 436.327 124C436.323 124 436.318 124 436.313 124C436.308 124 436.303 124 436.298 124C436.293 124 436.288 124 436.284 124C436.279 124 436.274 124 436.269 124C436.264 124 436.259 124 436.254 124C436.249 124 436.244 124 436.239 124C436.234 124 436.23 124 436.225 124C436.22 124 436.215 124 436.21 124C436.205 124 436.2 124 436.195 124C436.19 124 436.185 124 436.18 124C436.175 124 436.17 124 436.165 124C436.16 124 436.156 124 436.151 124C436.146 124 436.141 124 436.136 124C436.131 124 436.126 124 436.121 124C436.116 124 436.111 124 436.106 124C436.101 124 436.096 124 436.091 124C436.086 124 436.081 124 436.076 124C436.071 124 436.066 124 436.061 124C436.056 124 436.051 124 436.046 124C436.041 124 436.036 124 436.031 124C436.026 124 436.021 124 436.016 124C436.011 124 436.006 124 436.001 124C435.996 124 435.991 124 435.986 124C435.981 124 435.976 124 435.971 124C435.966 124 435.961 124 435.956 124C435.951 124 435.946 124 435.94 124C435.935 124 435.93 124 435.925 124C435.92 124 435.915 124 435.91 124C435.905 124 435.9 124 435.895 124C435.89 124 435.885 124 435.88 124V126C435.885 126 435.89 126 435.895 126C435.9 126 435.905 126 435.91 126C435.915 126 435.92 126 435.925 126C435.93 126 435.935 126 435.94 126C435.946 126 435.951 126 435.956 126C435.961 126 435.966 126 435.971 126C435.976 126 435.981 126 435.986 126C435.991 126 435.996 126 436.001 126C436.006 126 436.011 126 436.016 126C436.021 126 436.026 126 436.031 126C436.036 126 436.041 126 436.046 126C436.051 126 436.056 126 436.061 126C436.066 126 436.071 126 436.076 126C436.081 126 436.086 126 436.091 126C436.096 126 436.101 126 436.106 126C436.111 126 436.116 126 436.121 126C436.126 126 436.131 126 436.136 126C436.141 126 436.146 126 436.151 126C436.156 126 436.16 126 436.165 126C436.17 126 436.175 126 436.18 126C436.185 126 436.19 126 436.195 126C436.2 126 436.205 126 436.21 126C436.215 126 436.22 126 436.225 126C436.23 126 436.234 126 436.239 126C436.244 126 436.249 126 436.254 126C436.259 126 436.264 126 436.269 126C436.274 126 436.279 126 436.284 126C436.288 126 436.293 126 436.298 126C436.303 126 436.308 126 436.313 126C436.318 126 436.323 126 436.327 126C436.332 126 436.337 126 436.342 126C436.347 126 436.352 126 436.357 126C436.362 126 436.366 126 436.371 126C436.376 126 436.381 126 436.386 126C436.391 126 436.395 126 436.4 126C436.405 126 436.41 126 436.415 126C436.42 126 436.424 126 436.429 126C436.434 126 436.439 126 436.444 126C436.449 126 436.453 126 436.458 126C436.463 126 436.468 126 436.473 126C436.477 126 436.482 126 436.487 126C436.492 126 436.497 126 436.501 126C436.506 126 436.511 126 436.516 126C436.521 126 436.525 126 436.53 126C436.535 126 436.54 126 436.544 126C436.549 126 436.554 126 436.559 126C436.563 126 436.568 126 436.573 126C436.578 126 436.582 126 436.587 126C436.592 126 436.597 126 436.601 126C436.606 126 436.611 126 436.616 126C436.62 126 436.625 126 436.63 126C436.635 126 436.639 126 436.644 126C436.649 126 436.653 126 436.658 126C436.663 126 436.668 126 436.672 126C436.677 126 436.682 126 436.686 126C436.691 126 436.696 126 436.701 126C436.705 126 436.71 126 436.715 126C436.719 126 436.724 126 436.729 126C436.733 126 436.738 126 436.743 126C436.747 126 436.752 126 436.757 126C436.761 126 436.766 126 436.771 126C436.775 126 436.78 126 436.785 126C436.789 126 436.794 126 436.799 126C436.803 126 436.808 126 436.813 126C436.817 126 436.822 126 436.826 126C436.831 126 436.836 126 436.84 126C436.845 126 436.85 126 436.854 126C436.859 126 436.863 126 436.868 126C436.873 126 436.877 126 436.882 126C436.886 126 436.891 126 436.896 126C436.9 126 436.905 126 436.909 126C436.914 126 436.919 126 436.923 126C436.928 126 436.932 126 436.937 126C436.941 126 436.946 126 436.951 126C436.955 126 436.96 126 436.964 126C436.969 126 436.973 126 436.978 126C436.983 126 436.987 126 436.992 126C436.996 126 437.001 126 437.005 126C437.01 126 437.014 126 437.019 126C437.023 126 437.028 126 437.033 126C437.037 126 437.042 126 437.046 126C437.051 126 437.055 126 437.06 126C437.064 126 437.069 126 437.073 126C437.078 126 437.082 126 437.087 126C437.091 126 437.096 126 437.1 126C437.105 126 437.109 126 437.114 126C437.118 126 437.123 126 437.127 126C437.132 126 437.136 126 437.141 126C437.145 126 437.15 126 437.154 126C437.158 126 437.163 126 437.167 126C437.172 126 437.176 126 437.181 126C437.185 126 437.19 126 437.194 126C437.199 126 437.203 126 437.207 126C437.212 126 437.216 126 437.221 126C437.225 126 437.23 126 437.234 126C437.238 126 437.243 126 437.247 126C437.252 126 437.256 126 437.261 126C437.265 126 437.269 126 437.274 126C437.278 126 437.283 126 437.287 126C437.291 126 437.296 126 437.3 126C437.305 126 437.309 126 437.313 126C437.318 126 437.322 126 437.326 126C437.331 126 437.335 126 437.34 126C437.344 126 437.348 126 437.353 126C437.357 126 437.361 126 437.366 126C437.37 126 437.374 126 437.379 126C437.383 126 437.388 126 437.392 126C437.396 126 437.401 126 437.405 126C437.409 126 437.414 126 437.418 126C437.422 126 437.427 126 437.431 126C437.435 126 437.439 126 437.444 126C437.448 126 437.452 126 437.457 126C437.461 126 437.465 126 437.47 126C437.474 126 437.478 126 437.483 126C437.487 126 437.491 126 437.495 126C437.5 126 437.504 126 437.508 126C437.513 126 437.517 126 437.521 126C437.525 126 437.53 126 437.534 126C437.538 126 437.542 126 437.547 126C437.551 126 437.555 126 437.56 126C437.564 126 437.568 126 437.572 126C437.577 126 437.581 126 437.585 126C437.589 126 437.593 126 437.598 126C437.602 126 437.606 126 437.61 126C437.615 126 437.619 126 437.623 126C437.627 126 437.631 126 437.636 126C437.64 126 437.644 126 437.648 126C437.653 126 437.657 126 437.661 126C437.665 126 437.669 126 437.674 126C437.678 126 437.682 126 437.686 126C437.69 126 437.694 126 437.699 126C437.703 126 437.707 126 437.711 126C437.715 126 437.72 126 437.724 126C437.728 126 437.732 126 437.736 126C437.74 126 437.744 126 437.749 126C437.753 126 437.757 126 437.761 126C437.765 126 437.769 126 437.773 126C437.778 126 437.782 126 437.786 126C437.79 126 437.794 126 437.798 126C437.802 126 437.807 126 437.811 126C437.815 126 437.819 126 437.823 126C437.827 126 437.831 126 437.835 126C437.839 126 437.843 126 437.848 126C437.852 126 437.856 126 437.86 126C437.864 126 437.868 126 437.872 126C437.876 126 437.88 126 437.884 126C437.888 126 437.893 126 437.897 126C437.901 126 437.905 126 437.909 126C437.913 126 437.917 126 437.921 126C437.925 126 437.929 126 437.933 126C437.937 126 437.941 126 437.945 126C437.949 126 437.953 126 437.957 126C437.961 126 437.965 126 437.969 126C437.973 126 437.978 126 437.982 126C437.986 126 437.99 126 437.994 126C437.998 126 438.002 126 438.006 126C438.01 126 438.014 126 438.018 126C438.022 126 438.026 126 438.03 126C438.034 126 438.038 126 438.042 126C438.046 126 438.05 126 438.054 126C438.058 126 438.061 126 438.065 126C438.069 126 438.073 126 438.077 126C438.081 126 438.085 126 438.089 126C438.093 126 438.097 126 438.101 126C438.105 126 438.109 126 438.113 126C438.117 126 438.121 126 438.125 126C438.129 126 438.133 126 438.137 126C438.141 126 438.144 126 438.148 126C438.152 126 438.156 126 438.16 126C438.164 126 438.168 126 438.172 126C438.176 126 438.18 126 438.184 126C438.188 126 438.191 126 438.195 126C438.199 126 438.203 126 438.207 126C438.211 126 438.215 126 438.219 126C438.223 126 438.226 126 438.23 126C438.234 126 438.238 126 438.242 126C438.246 126 438.25 126 438.254 126C438.257 126 438.261 126 438.265 126C438.269 126 438.273 126 438.277 126C438.28 126 438.284 126 438.288 126C438.292 126 438.296 126 438.3 126C438.304 126 438.307 126 438.311 126C438.315 126 438.319 126 438.323 126C438.326 126 438.33 126 438.334 126C438.338 126 438.342 126 438.346 126C438.349 126 438.353 126 438.357 126C438.361 126 438.365 126 438.368 126C438.372 126 438.376 126 438.38 126C438.384 126 438.387 126 438.391 126C438.395 126 438.399 126 438.402 126C438.406 126 438.41 126 438.414 126C438.417 126 438.421 126 438.425 126C438.429 126 438.433 126 438.436 126C438.44 126 438.444 126 438.448 126C438.451 126 438.455 126 438.459 126C438.462 126 438.466 126 438.47 126C438.474 126 438.477 126 438.481 126C438.485 126 438.489 126 438.492 126C438.496 126 438.5 126 438.503 126C438.507 126 438.511 126 438.515 126C438.518 126 438.522 126 438.526 126C438.529 126 438.533 126 438.537 126C438.54 126 438.544 126 438.548 126C438.552 126 438.555 126 438.559 126C438.563 126 438.566 126 438.57 126C438.574 126 438.577 126 438.581 126C438.585 126 438.588 126 438.592 126C438.596 126 438.599 126 438.603 126C438.606 126 438.61 126 438.614 126C438.617 126 438.621 126 438.625 126C438.628 126 438.632 126 438.636 126C438.639 126 438.643 126 438.646 126C438.65 126 438.654 126 438.657 126C438.661 126 438.665 126 438.668 126C438.672 126 438.675 126 438.679 126C438.683 126 438.686 126 438.69 126C438.693 126 438.697 126 438.701 126C438.704 126 438.708 126 438.711 126C438.715 126 438.718 126 438.722 126C438.726 126 438.729 126 438.733 126C438.736 126 438.74 126 438.743 126C438.747 126 438.751 126 438.754 126C438.758 126 438.761 126 438.765 126C438.768 126 438.772 126 438.775 126C438.779 126 438.782 126 438.786 126C438.79 126 438.793 126 438.797 126C438.8 126 438.804 126 438.807 126C438.811 126 438.814 126 438.818 126C438.821 126 438.825 126 438.828 126C438.832 126 438.835 126 438.839 126C438.842 126 438.846 126 438.849 126C438.853 126 438.856 126 438.86 126C438.863 126 438.867 126 438.87 126C438.874 126 438.877 126 438.881 126C438.884 126 438.888 126 438.891 126C438.894 126 438.898 126 438.901 126C438.905 126 438.908 126 438.912 126C438.915 126 438.919 126 438.922 126C438.926 126 438.929 126 438.932 126C438.936 126 438.939 126 438.943 126C438.946 126 438.95 126 438.953 126C438.956 126 438.96 126 438.963 126C438.967 126 438.97 126 438.973 126C438.977 126 438.98 126 438.984 126C438.987 126 438.99 126 438.994 126C438.997 126 439.001 126 439.004 126C439.007 126 439.011 126 439.014 126C439.018 126 439.021 126 439.024 126C439.028 126 439.031 126 439.034 126C439.038 126 439.041 126 439.045 126C439.048 126 439.051 126 439.055 126C439.058 126 439.061 126 439.065 126C439.068 126 439.071 126 439.075 126C439.078 126 439.081 126 439.085 126C439.088 126 439.091 126 439.095 126C439.098 126 439.101 126 439.105 126C439.108 126 439.111 126 439.115 126C439.118 126 439.121 126 439.125 126C439.128 126 439.131 126 439.134 126C439.138 126 439.141 126 439.144 126C439.148 126 439.151 126 439.154 126C439.158 126 439.161 126 439.164 126C439.167 126 439.171 126 439.174 126C439.177 126 439.18 126 439.184 126C439.187 126 439.19 126 439.194 126C439.197 126 439.2 126 439.203 126C439.207 126 439.21 126 439.213 126C439.216 126 439.22 126 439.223 126C439.226 126 439.229 126 439.232 126C439.236 126 439.239 126 439.242 126C439.245 126 439.249 126 439.252 126C439.255 126 439.258 126 439.261 126C439.265 126 439.268 126 439.271 126C439.274 126 439.277 126 439.281 126C439.284 126 439.287 126 439.29 126C439.293 126 439.297 126 439.3 126C439.303 126 439.306 126 439.309 126C439.313 126 439.316 126 439.319 126C439.322 126 439.325 126 439.328 126C439.332 126 439.335 126 439.338 126C439.341 126 439.344 126 439.347 126C439.35 126 439.354 126 439.357 126C439.36 126 439.363 126 439.366 126C439.369 126 439.372 126 439.376 126C439.379 126 439.382 126 439.385 126C439.388 126 439.391 126 439.394 126C439.397 126 439.4 126 439.404 126C439.407 126 439.41 126 439.413 126C439.416 126 439.419 126 439.422 126C439.425 126 439.428 126 439.431 126C439.435 126 439.438 126 439.441 126C439.444 126 439.447 126 439.45 126C439.453 126 439.456 126 439.459 126C439.462 126 439.465 126 439.468 126C439.471 126 439.474 126 439.478 126C439.481 126 439.484 126 439.487 126C439.49 126 439.493 126 439.496 126C439.499 126 439.502 126 439.505 126C439.508 126 439.511 126 439.514 126C439.517 126 439.52 126 439.523 126C439.526 126 439.529 126 439.532 126C439.535 126 439.538 126 439.541 126C439.544 126 439.547 126 439.55 126C439.553 126 439.556 126 439.559 126C439.562 126 439.565 126 439.568 126C439.571 126 439.574 126 439.577 126C439.58 126 439.583 126 439.586 126C439.589 126 439.592 126 439.595 126C439.598 126 439.601 126 439.604 126C439.607 126 439.61 126 439.613 126C439.616 126 439.618 126 439.621 126C439.624 126 439.627 126 439.63 126C439.633 126 439.636 126 439.639 126C439.642 126 439.645 126 439.648 126C439.651 126 439.654 126 439.657 126C439.659 126 439.662 126 439.665 126C439.668 126 439.671 126 439.674 126C439.677 126 439.68 126 439.683 126C439.686 126 439.688 126 439.691 126C439.694 126 439.697 126 439.7 126C439.703 126 439.706 126 439.709 126C439.712 126 439.714 126 439.717 126C439.72 126 439.723 126 439.726 126C439.729 126 439.732 126 439.734 126C439.737 126 439.74 126 439.743 126C439.746 126 439.749 126 439.751 126C439.754 126 439.757 126 439.76 126C439.763 126 439.766 126 439.768 126C439.771 126 439.774 126 439.777 126C439.78 126 439.783 126 439.785 126C439.788 126 439.791 126 439.794 126C439.797 126 439.799 126 439.802 126C439.805 126 439.808 126 439.811 126C439.813 126 439.816 126 439.819 126C439.822 126 439.825 126 439.827 126C439.83 126 439.833 126 439.836 126C439.838 126 439.841 126 439.844 126C439.847 126 439.849 126 439.852 126C439.855 126 439.858 126 439.86 126C439.863 126 439.866 126 439.869 126C439.871 126 439.874 126 439.877 126C439.88 126 439.882 126 439.885 126C439.888 126 439.891 126 439.893 126C439.896 126 439.899 126 439.901 126C439.904 126 439.907 126 439.91 126C439.912 126 439.915 126 439.918 126C439.92 126 439.923 126 439.926 126C439.929 126 439.931 126 439.934 126C439.937 126 439.939 126 439.942 126C439.945 126 439.947 126 439.95 126C439.953 126 439.955 126 439.958 126C439.961 126 439.963 126 439.966 126C439.969 126 439.971 126 439.974 126C439.977 126 439.979 126 439.982 126C439.985 126 439.987 126 439.99 126C439.993 126 439.995 126 439.998 126C440 126 440.003 126 440.006 126C440.008 126 440.011 126 440.014 126C440.016 126 440.019 126 440.021 126C440.024 126 440.027 126 440.029 126C440.032 126 440.034 126 440.037 126C440.04 126 440.042 126 440.045 126C440.047 126 440.05 126 440.053 126C440.055 126 440.058 126 440.06 126C440.063 126 440.065 126 440.068 126C440.071 126 440.073 126 440.076 126C440.078 126 440.081 126 440.083 126C440.086 126 440.089 126 440.091 126C440.094 126 440.096 126 440.099 126C440.101 126 440.104 126 440.106 126C440.109 126 440.111 126 440.114 126C440.117 126 440.119 126 440.122 126C440.124 126 440.127 126 440.129 126C440.132 126 440.134 126 440.137 126C440.139 126 440.142 126 440.144 126C440.147 126 440.149 126 440.152 126C440.154 126 440.157 126 440.159 126C440.162 126 440.164 126 440.167 126C440.169 126 440.172 126 440.174 126C440.177 126 440.179 126 440.181 126C440.184 126 440.186 126 440.189 126C440.191 126 440.194 126 440.196 126C440.199 126 440.201 126 440.204 126C440.206 126 440.209 126 440.211 126C440.213 126 440.216 126 440.218 126C440.221 126 440.223 126 440.226 126C440.228 126 440.23 126 440.233 126C440.235 126 440.238 126 440.24 126C440.242 126 440.245 126 440.247 126C440.25 126 440.252 126 440.255 126C440.257 126 440.259 126 440.262 126C440.264 126 440.266 126 440.269 126C440.271 126 440.274 126 440.276 126C440.278 126 440.281 126 440.283 126C440.286 126 440.288 126 440.29 126C440.293 126 440.295 126 440.297 126C440.3 126 440.302 126 440.304 126C440.307 126 440.309 126 440.311 126C440.314 126 440.316 126 440.318 126C440.321 126 440.323 126 440.325 126C440.328 126 440.33 126 440.332 126C440.335 126 440.337 126 440.339 126C440.342 126 440.344 126 440.346 126C440.349 126 440.351 126 440.353 126C440.356 126 440.358 126 440.36 126C440.363 126 440.365 126 440.367 126C440.369 126 440.372 126 440.374 126C440.376 126 440.379 126 440.381 126C440.383 126 440.385 126 440.388 126C440.39 126 440.392 126 440.394 126C440.397 126 440.399 126 440.401 126C440.403 126 440.406 126 440.408 126C440.41 126 440.412 126 440.415 126C440.417 126 440.419 126 440.421 126C440.424 126 440.426 126 440.428 126C440.43 126 440.433 126 440.435 126C440.437 126 440.439 126 440.441 126C440.444 126 440.446 126 440.448 126C440.45 126 440.452 126 440.455 126C440.457 126 440.459 126 440.461 126C440.463 126 440.466 126 440.468 126C440.47 126 440.472 126 440.474 126C440.477 126 440.479 126 440.481 126C440.483 126 440.485 126 440.487 126C440.49 126 440.492 126 440.494 126C440.496 126 440.498 126 440.5 126C440.503 126 440.505 126 440.507 126C440.509 126 440.511 126 440.513 126C440.515 126 440.518 126 440.52 126C440.522 126 440.524 126 440.526 126C440.528 126 440.53 126 440.532 126C440.535 126 440.537 126 440.539 126C440.541 126 440.543 126 440.545 126C440.547 126 440.549 126 440.551 126C440.554 126 440.556 126 440.558 126C440.56 126 440.562 126 440.564 126C440.566 126 440.568 126 440.57 126C440.572 126 440.574 126 440.576 126C440.578 126 440.581 126 440.583 126C440.585 126 440.587 126 440.589 126C440.591 126 440.593 126 440.595 126C440.597 126 440.599 126 440.601 126C440.603 126 440.605 126 440.607 126C440.609 126 440.611 126 440.613 126C440.615 126 440.617 126 440.619 126C440.621 126 440.623 126 440.625 126C440.627 126 440.629 126 440.631 126C440.633 126 440.636 126 440.638 126C440.64 126 440.642 126 440.644 126C440.645 126 440.647 126 440.649 126C440.651 126 440.653 126 440.655 126C440.657 126 440.659 126 440.661 126C440.663 126 440.665 126 440.667 126C440.669 126 440.671 126 440.673 126C440.675 126 440.677 126 440.679 126C440.681 126 440.683 126 440.685 126C440.687 126 440.689 126 440.691 126C440.693 126 440.695 126 440.697 126C440.698 126 440.7 126 440.702 126C440.704 126 440.706 126 440.708 126C440.71 126 440.712 126 440.714 126C440.716 126 440.718 126 440.72 126C440.721 126 440.723 126 440.725 126C440.727 126 440.729 126 440.731 126C440.733 126 440.735 126 440.737 126C440.739 126 440.74 126 440.742 126C440.744 126 440.746 126 440.748 126C440.75 126 440.752 126 440.754 126C440.755 126 440.757 126 440.759 126C440.761 126 440.763 126 440.765 126C440.766 126 440.768 126 440.77 126C440.772 126 440.774 126 440.776 126C440.778 126 440.779 126 440.781 126C440.783 126 440.785 126 440.787 126C440.789 126 440.79 126 440.792 126C440.794 126 440.796 126 440.798 126C440.799 126 440.801 126 440.803 126C440.805 126 440.807 126 440.808 126C440.81 126 440.812 126 440.814 126C440.816 126 440.817 126 440.819 126C440.821 126 440.823 126 440.824 126C440.826 126 440.828 126 440.83 126C440.832 126 440.833 126 440.835 126C440.837 126 440.839 126 440.84 126C440.842 126 440.844 126 440.846 126C440.847 126 440.849 126 440.851 126C440.853 126 440.854 126 440.856 126C440.858 126 440.86 126 440.861 126C440.863 126 440.865 126 440.866 126C440.868 126 440.87 126 440.872 126C440.873 126 440.875 126 440.877 126C440.878 126 440.88 126 440.882 126C440.884 126 440.885 126 440.887 126C440.889 126 440.89 126 440.892 126C440.894 126 440.895 126 440.897 126C440.899 126 440.9 126 440.902 126C440.904 126 440.905 126 440.907 126C440.909 126 440.91 126 440.912 126C440.914 126 440.915 126 440.917 126C440.919 126 440.92 126 440.922 126C440.924 126 440.925 126 440.927 126C440.929 126 440.93 126 440.932 126C440.933 126 440.935 126 440.937 126C440.938 126 440.94 126 440.942 126C440.943 126 440.945 126 440.946 126C440.948 126 440.95 126 440.951 126C440.953 126 440.954 126 440.956 126C440.958 126 440.959 126 440.961 126C440.962 126 440.964 126 440.966 126C440.967 126 440.969 126 440.97 126C440.972 126 440.973 126 440.975 126C440.977 126 440.978 126 440.98 126V124ZM435.88 124C435.875 124 435.87 124 435.864 124C435.859 124 435.854 124 435.849 124C435.844 124 435.839 124 435.834 124C435.829 124 435.824 124 435.819 124C435.814 124 435.809 124 435.804 124C435.799 124 435.794 124 435.789 124C435.784 124 435.779 124 435.774 124C435.769 124 435.764 124 435.759 124C435.754 124 435.749 124 435.744 124C435.739 124 435.734 124 435.729 124C435.724 124 435.719 124 435.714 124C435.709 124 435.704 124 435.699 124C435.694 124 435.689 124 435.684 124C435.679 124 435.674 124 435.669 124C435.664 124 435.659 124 435.654 124C435.649 124 435.644 124 435.639 124C435.635 124 435.63 124 435.625 124C435.62 124 435.615 124 435.61 124C435.605 124 435.6 124 435.595 124C435.59 124 435.585 124 435.58 124C435.576 124 435.571 124 435.566 124C435.561 124 435.556 124 435.551 124C435.546 124 435.541 124 435.537 124C435.532 124 435.527 124 435.522 124C435.517 124 435.512 124 435.507 124C435.503 124 435.498 124 435.493 124C435.488 124 435.483 124 435.478 124C435.474 124 435.469 124 435.464 124C435.459 124 435.454 124 435.449 124C435.445 124 435.44 124 435.435 124C435.43 124 435.425 124 435.421 124C435.416 124 435.411 124 435.406 124C435.401 124 435.397 124 435.392 124C435.387 124 435.382 124 435.378 124C435.373 124 435.368 124 435.363 124C435.359 124 435.354 124 435.349 124C435.344 124 435.34 124 435.335 124C435.33 124 435.325 124 435.321 124C435.316 124 435.311 124 435.306 124C435.302 124 435.297 124 435.292 124C435.288 124 435.283 124 435.278 124C435.273 124 435.269 124 435.264 124C435.259 124 435.255 124 435.25 124C435.245 124 435.241 124 435.236 124C435.231 124 435.227 124 435.222 124C435.217 124 435.213 124 435.208 124C435.203 124 435.199 124 435.194 124C435.189 124 435.185 124 435.18 124C435.175 124 435.171 124 435.166 124C435.162 124 435.157 124 435.152 124C435.148 124 435.143 124 435.138 124C435.134 124 435.129 124 435.125 124C435.12 124 435.115 124 435.111 124C435.106 124 435.102 124 435.097 124C435.092 124 435.088 124 435.083 124C435.079 124 435.074 124 435.07 124C435.065 124 435.061 124 435.056 124C435.051 124 435.047 124 435.042 124C435.038 124 435.033 124 435.029 124C435.024 124 435.02 124 435.015 124C435.011 124 435.006 124 435.001 124C434.997 124 434.992 124 434.988 124C434.983 124 434.979 124 434.974 124C434.97 124 434.965 124 434.961 124C434.956 124 434.952 124 434.947 124C434.943 124 434.939 124 434.934 124C434.93 124 434.925 124 434.921 124C434.916 124 434.912 124 434.907 124C434.903 124 434.898 124 434.894 124C434.889 124 434.885 124 434.881 124C434.876 124 434.872 124 434.867 124C434.863 124 434.858 124 434.854 124C434.85 124 434.845 124 434.841 124C434.836 124 434.832 124 434.828 124C434.823 124 434.819 124 434.814 124C434.81 124 434.806 124 434.801 124C434.797 124 434.792 124 434.788 124C434.784 124 434.779 124 434.775 124C434.771 124 434.766 124 434.762 124C434.758 124 434.753 124 434.749 124C434.744 124 434.74 124 434.736 124C434.731 124 434.727 124 434.723 124C434.718 124 434.714 124 434.71 124C434.706 124 434.701 124 434.697 124C434.693 124 434.688 124 434.684 124C434.68 124 434.675 124 434.671 124C434.667 124 434.663 124 434.658 124C434.654 124 434.65 124 434.645 124C434.641 124 434.637 124 434.633 124C434.628 124 434.624 124 434.62 124C434.616 124 434.611 124 434.607 124C434.603 124 434.599 124 434.594 124C434.59 124 434.586 124 434.582 124C434.577 124 434.573 124 434.569 124C434.565 124 434.561 124 434.556 124C434.552 124 434.548 124 434.544 124C434.54 124 434.535 124 434.531 124C434.527 124 434.523 124 434.519 124C434.514 124 434.51 124 434.506 124C434.502 124 434.498 124 434.494 124C434.489 124 434.485 124 434.481 124C434.477 124 434.473 124 434.469 124C434.465 124 434.46 124 434.456 124C434.452 124 434.448 124 434.444 124C434.44 124 434.436 124 434.431 124C434.427 124 434.423 124 434.419 124C434.415 124 434.411 124 434.407 124C434.403 124 434.399 124 434.395 124C434.39 124 434.386 124 434.382 124C434.378 124 434.374 124 434.37 124C434.366 124 434.362 124 434.358 124C434.354 124 434.35 124 434.346 124C434.342 124 434.338 124 434.334 124C434.33 124 434.325 124 434.321 124C434.317 124 434.313 124 434.309 124C434.305 124 434.301 124 434.297 124C434.293 124 434.289 124 434.285 124C434.281 124 434.277 124 434.273 124C434.269 124 434.265 124 434.261 124C434.257 124 434.253 124 434.249 124C434.245 124 434.241 124 434.237 124C434.233 124 434.229 124 434.225 124C434.222 124 434.218 124 434.214 124C434.21 124 434.206 124 434.202 124C434.198 124 434.194 124 434.19 124C434.186 124 434.182 124 434.178 124C434.174 124 434.17 124 434.166 124C434.163 124 434.159 124 434.155 124C434.151 124 434.147 124 434.143 124C434.139 124 434.135 124 434.131 124C434.127 124 434.124 124 434.12 124C434.116 124 434.112 124 434.108 124C434.104 124 434.1 124 434.096 124C434.093 124 434.089 124 434.085 124C434.081 124 434.077 124 434.073 124C434.069 124 434.066 124 434.062 124C434.058 124 434.054 124 434.05 124C434.047 124 434.043 124 434.039 124C434.035 124 434.031 124 434.027 124C434.024 124 434.02 124 434.016 124C434.012 124 434.008 124 434.005 124C434.001 124 433.997 124 433.993 124C433.99 124 433.986 124 433.982 124C433.978 124 433.974 124 433.971 124C433.967 124 433.963 124 433.959 124C433.956 124 433.952 124 433.948 124C433.944 124 433.941 124 433.937 124C433.933 124 433.93 124 433.926 124C433.922 124 433.918 124 433.915 124C433.911 124 433.907 124 433.904 124C433.9 124 433.896 124 433.892 124C433.889 124 433.885 124 433.881 124C433.878 124 433.874 124 433.87 124C433.867 124 433.863 124 433.859 124C433.856 124 433.852 124 433.848 124C433.845 124 433.841 124 433.837 124C433.834 124 433.83 124 433.826 124C433.823 124 433.819 124 433.815 124C433.812 124 433.808 124 433.805 124C433.801 124 433.797 124 433.794 124C433.79 124 433.787 124 433.783 124C433.779 124 433.776 124 433.772 124C433.769 124 433.765 124 433.761 124C433.758 124 433.754 124 433.751 124C433.747 124 433.743 124 433.74 124C433.736 124 433.733 124 433.729 124C433.726 124 433.722 124 433.719 124C433.715 124 433.711 124 433.708 124C433.704 124 433.701 124 433.697 124C433.694 124 433.69 124 433.687 124C433.683 124 433.68 124 433.676 124C433.673 124 433.669 124 433.666 124C433.662 124 433.659 124 433.655 124C433.652 124 433.648 124 433.645 124C433.641 124 433.638 124 433.634 124C433.631 124 433.627 124 433.624 124C433.62 124 433.617 124 433.613 124C433.61 124 433.607 124 433.603 124C433.6 124 433.596 124 433.593 124C433.589 124 433.586 124 433.582 124C433.579 124 433.576 124 433.572 124C433.569 124 433.565 124 433.562 124C433.559 124 433.555 124 433.552 124C433.548 124 433.545 124 433.542 124C433.538 124 433.535 124 433.531 124C433.528 124 433.525 124 433.521 124C433.518 124 433.514 124 433.511 124C433.508 124 433.504 124 433.501 124C433.498 124 433.494 124 433.491 124C433.488 124 433.484 124 433.481 124C433.478 124 433.474 124 433.471 124C433.468 124 433.464 124 433.461 124C433.458 124 433.454 124 433.451 124C433.448 124 433.444 124 433.441 124C433.438 124 433.434 124 433.431 124C433.428 124 433.425 124 433.421 124C433.418 124 433.415 124 433.411 124C433.408 124 433.405 124 433.402 124C433.398 124 433.395 124 433.392 124C433.389 124 433.385 124 433.382 124C433.379 124 433.376 124 433.372 124C433.369 124 433.366 124 433.363 124C433.359 124 433.356 124 433.353 124C433.35 124 433.347 124 433.343 124C433.34 124 433.337 124 433.334 124C433.331 124 433.327 124 433.324 124C433.321 124 433.318 124 433.315 124C433.311 124 433.308 124 433.305 124C433.302 124 433.299 124 433.296 124C433.292 124 433.289 124 433.286 124C433.283 124 433.28 124 433.277 124C433.273 124 433.27 124 433.267 124C433.264 124 433.261 124 433.258 124C433.255 124 433.252 124 433.248 124C433.245 124 433.242 124 433.239 124C433.236 124 433.233 124 433.23 124C433.227 124 433.224 124 433.221 124C433.217 124 433.214 124 433.211 124C433.208 124 433.205 124 433.202 124C433.199 124 433.196 124 433.193 124C433.19 124 433.187 124 433.184 124C433.181 124 433.178 124 433.174 124C433.171 124 433.168 124 433.165 124C433.162 124 433.159 124 433.156 124C433.153 124 433.15 124 433.147 124C433.144 124 433.141 124 433.138 124C433.135 124 433.132 124 433.129 124C433.126 124 433.123 124 433.12 124C433.117 124 433.114 124 433.111 124C433.108 124 433.105 124 433.102 124C433.099 124 433.096 124 433.093 124C433.09 124 433.087 124 433.084 124C433.082 124 433.079 124 433.076 124C433.073 124 433.07 124 433.067 124C433.064 124 433.061 124 433.058 124C433.055 124 433.052 124 433.049 124C433.046 124 433.043 124 433.041 124C433.038 124 433.035 124 433.032 124C433.029 124 433.026 124 433.023 124C433.02 124 433.017 124 433.014 124C433.012 124 433.009 124 433.006 124C433.003 124 433 124 432.997 124C432.994 124 432.992 124 432.989 124C432.986 124 432.983 124 432.98 124C432.977 124 432.974 124 432.972 124C432.969 124 432.966 124 432.963 124C432.96 124 432.957 124 432.955 124C432.952 124 432.949 124 432.946 124C432.943 124 432.941 124 432.938 124C432.935 124 432.932 124 432.929 124C432.927 124 432.924 124 432.921 124C432.918 124 432.915 124 432.913 124C432.91 124 432.907 124 432.904 124C432.902 124 432.899 124 432.896 124C432.893 124 432.891 124 432.888 124C432.885 124 432.882 124 432.88 124C432.877 124 432.874 124 432.872 124C432.869 124 432.866 124 432.863 124C432.861 124 432.858 124 432.855 124C432.852 124 432.85 124 432.847 124C432.844 124 432.842 124 432.839 124C432.836 124 432.834 124 432.831 124C432.828 124 432.826 124 432.823 124C432.82 124 432.818 124 432.815 124C432.812 124 432.81 124 432.807 124C432.804 124 432.802 124 432.799 124C432.796 124 432.794 124 432.791 124C432.788 124 432.786 124 432.783 124C432.781 124 432.778 124 432.775 124C432.773 124 432.77 124 432.768 124C432.765 124 432.762 124 432.76 124C432.757 124 432.755 124 432.752 124C432.749 124 432.747 124 432.744 124C432.742 124 432.739 124 432.736 124C432.734 124 432.731 124 432.729 124C432.726 124 432.724 124 432.721 124C432.719 124 432.716 124 432.713 124C432.711 124 432.708 124 432.706 124C432.703 124 432.701 124 432.698 124C432.696 124 432.693 124 432.691 124C432.688 124 432.686 124 432.683 124C432.681 124 432.678 124 432.676 124C432.673 124 432.671 124 432.668 124C432.666 124 432.663 124 432.661 124C432.658 124 432.656 124 432.653 124C432.651 124 432.648 124 432.646 124C432.643 124 432.641 124 432.639 124C432.636 124 432.634 124 432.631 124C432.629 124 432.626 124 432.624 124C432.622 124 432.619 124 432.617 124C432.614 124 432.612 124 432.609 124C432.607 124 432.605 124 432.602 124C432.6 124 432.597 124 432.595 124C432.593 124 432.59 124 432.588 124C432.585 124 432.583 124 432.581 124C432.578 124 432.576 124 432.574 124C432.571 124 432.569 124 432.566 124C432.564 124 432.562 124 432.559 124C432.557 124 432.555 124 432.552 124C432.55 124 432.548 124 432.545 124C432.543 124 432.541 124 432.538 124C432.536 124 432.534 124 432.531 124C432.529 124 432.527 124 432.524 124C432.522 124 432.52 124 432.518 124C432.515 124 432.513 124 432.511 124C432.508 124 432.506 124 432.504 124C432.502 124 432.499 124 432.497 124C432.495 124 432.493 124 432.49 124C432.488 124 432.486 124 432.484 124C432.481 124 432.479 124 432.477 124C432.475 124 432.472 124 432.47 124C432.468 124 432.466 124 432.463 124C432.461 124 432.459 124 432.457 124C432.455 124 432.452 124 432.45 124C432.448 124 432.446 124 432.444 124C432.441 124 432.439 124 432.437 124C432.435 124 432.433 124 432.43 124C432.428 124 432.426 124 432.424 124C432.422 124 432.42 124 432.417 124C432.415 124 432.413 124 432.411 124C432.409 124 432.407 124 432.405 124C432.402 124 432.4 124 432.398 124C432.396 124 432.394 124 432.392 124C432.39 124 432.387 124 432.385 124C432.383 124 432.381 124 432.379 124C432.377 124 432.375 124 432.373 124C432.371 124 432.369 124 432.366 124C432.364 124 432.362 124 432.36 124C432.358 124 432.356 124 432.354 124C432.352 124 432.35 124 432.348 124C432.346 124 432.344 124 432.342 124C432.34 124 432.338 124 432.336 124C432.334 124 432.332 124 432.329 124C432.327 124 432.325 124 432.323 124C432.321 124 432.319 124 432.317 124C432.315 124 432.313 124 432.311 124C432.309 124 432.307 124 432.305 124C432.303 124 432.301 124 432.299 124C432.297 124 432.295 124 432.293 124C432.291 124 432.289 124 432.288 124C432.286 124 432.284 124 432.282 124C432.28 124 432.278 124 432.276 124C432.274 124 432.272 124 432.27 124C432.268 124 432.266 124 432.264 124C432.262 124 432.26 124 432.258 124C432.256 124 432.255 124 432.253 124C432.251 124 432.249 124 432.247 124C432.245 124 432.243 124 432.241 124C432.239 124 432.237 124 432.236 124C432.234 124 432.232 124 432.23 124C432.228 124 432.226 124 432.224 124C432.222 124 432.221 124 432.219 124C432.217 124 432.215 124 432.213 124C432.211 124 432.21 124 432.208 124C432.206 124 432.204 124 432.202 124C432.2 124 432.199 124 432.197 124C432.195 124 432.193 124 432.191 124C432.189 124 432.188 124 432.186 124C432.184 124 432.182 124 432.18 124C432.179 124 432.177 124 432.175 124C432.173 124 432.172 124 432.17 124C432.168 124 432.166 124 432.164 124C432.163 124 432.161 124 432.159 124C432.157 124 432.156 124 432.154 124C432.152 124 432.15 124 432.149 124C432.147 124 432.145 124 432.144 124C432.142 124 432.14 124 432.138 124C432.137 124 432.135 124 432.133 124C432.131 124 432.13 124 432.128 124C432.126 124 432.125 124 432.123 124C432.121 124 432.12 124 432.118 124C432.116 124 432.115 124 432.113 124C432.111 124 432.11 124 432.108 124C432.106 124 432.105 124 432.103 124C432.101 124 432.1 124 432.098 124C432.096 124 432.095 124 432.093 124C432.091 124 432.09 124 432.088 124C432.087 124 432.085 124 432.083 124C432.082 124 432.08 124 432.078 124C432.077 124 432.075 124 432.074 124C432.072 124 432.07 124 432.069 124C432.067 124 432.066 124 432.064 124C432.063 124 432.061 124 432.059 124C432.058 124 432.056 124 432.055 124C432.053 124 432.052 124 432.05 124C432.048 124 432.047 124 432.045 124C432.044 124 432.042 124 432.041 124C432.039 124 432.038 124 432.036 124C432.035 124 432.033 124 432.032 124C432.03 124 432.029 124 432.027 124C432.026 124 432.024 124 432.023 124C432.021 124 432.02 124 432.018 124C432.017 124 432.015 124 432.014 124C432.012 124 432.011 124 432.009 124C432.008 124 432.006 124 432.005 124C432.003 124 432.002 124 432 124C431.999 124 431.998 124 431.996 124C431.995 124 431.993 124 431.992 124C431.99 124 431.989 124 431.987 124C431.986 124 431.985 124 431.983 124C431.982 124 431.98 124 431.979 124C431.978 124 431.976 124 431.975 124C431.973 124 431.972 124 431.971 124C431.969 124 431.968 124 431.966 124C431.965 124 431.964 124 431.962 124C431.961 124 431.96 124 431.958 124C431.957 124 431.955 124 431.954 124C431.953 124 431.951 124 431.95 124C431.949 124 431.947 124 431.946 124C431.945 124 431.943 124 431.942 124C431.941 124 431.939 124 431.938 124C431.937 124 431.936 124 431.934 124C431.933 124 431.932 124 431.93 124C431.929 124 431.928 124 431.926 124C431.925 124 431.924 124 431.923 124C431.921 124 431.92 124 431.919 124C431.917 124 431.916 124 431.915 124C431.914 124 431.912 124 431.911 124C431.91 124 431.909 124 431.907 124C431.906 124 431.905 124 431.904 124C431.903 124 431.901 124 431.9 124C431.899 124 431.898 124 431.896 124C431.895 124 431.894 124 431.893 124C431.892 124 431.89 124 431.889 124C431.888 124 431.887 124 431.886 124C431.884 124 431.883 124 431.882 124C431.881 124 431.88 124 431.879 124C431.877 124 431.876 124 431.875 124C431.874 124 431.873 124 431.872 124C431.87 124 431.869 124 431.868 124C431.867 124 431.866 124 431.865 124C431.864 124 431.862 124 431.861 124C431.86 124 431.859 124 431.858 124C431.857 124 431.856 124 431.855 124C431.854 124 431.852 124 431.851 124C431.85 124 431.849 124 431.848 124C431.847 124 431.846 124 431.845 124C431.844 124 431.843 124 431.842 124C431.841 124 431.839 124 431.838 124C431.837 124 431.836 124 431.835 124C431.834 124 431.833 124 431.832 124C431.831 124 431.83 124 431.829 124C431.828 124 431.827 124 431.826 124C431.825 124 431.824 124 431.823 124C431.822 124 431.821 124 431.82 124C431.819 124 431.818 124 431.817 124C431.816 124 431.815 124 431.814 124C431.813 124 431.812 124 431.811 124C431.81 124 431.809 124 431.808 124C431.807 124 431.806 124 431.805 124C431.804 124 431.803 124 431.802 124C431.801 124 431.8 124 431.799 124C431.799 124 431.798 124 431.797 124C431.796 124 431.795 124 431.794 124C431.793 124 431.792 124 431.791 124C431.79 124 431.789 124 431.788 124C431.787 124 431.787 124 431.786 124C431.785 124 431.784 124 431.783 124C431.782 124 431.781 124 431.78 124C431.78 124 431.779 124 431.778 124C431.777 124 431.776 124 431.775 124C431.774 124 431.773 124 431.773 124C431.772 124 431.771 124 431.77 124C431.769 124 431.768 124 431.768 124C431.767 124 431.766 124 431.765 124C431.764 124 431.763 124 431.763 124C431.762 124 431.761 124 431.76 124C431.759 124 431.759 124 431.758 124C431.757 124 431.756 124 431.755 124C431.755 124 431.754 124 431.753 124C431.752 124 431.752 124 431.751 124C431.75 124 431.749 124 431.749 124C431.748 124 431.747 124 431.746 124C431.746 124 431.745 124 431.744 124C431.743 124 431.743 124 431.742 124C431.741 124 431.74 124 431.74 124C431.739 124 431.738 124 431.738 124C431.737 124 431.736 124 431.735 124C431.735 124 431.734 124 431.733 124C431.733 124 431.732 124 431.731 124C431.731 124 431.73 124 431.729 124C431.729 124 431.728 124 431.727 124C431.727 124 431.726 124 431.725 124C431.725 124 431.724 124 431.723 124C431.723 124 431.722 124 431.721 124C431.721 124 431.72 124 431.719 124C431.719 124 431.718 124 431.718 124C431.717 124 431.716 124 431.716 124C431.715 124 431.715 124 431.714 124C431.713 124 431.713 124 431.712 124C431.712 124 431.711 124 431.71 124C431.71 124 431.709 124 431.709 124C431.708 124 431.707 124 431.707 124C431.706 124 431.706 124 431.705 124C431.705 124 431.704 124 431.704 124C431.703 124 431.702 124 431.702 124C431.701 124 431.701 124 431.7 124C431.7 124 431.699 124 431.699 124C431.698 124 431.698 124 431.697 124C431.697 124 431.696 124 431.696 124C431.695 124 431.695 124 431.694 124C431.694 124 431.693 124 431.693 124C431.692 124 431.692 124 431.691 124C431.691 124 431.69 124 431.69 124C431.689 124 431.689 124 431.689 124C431.688 124 431.688 124 431.687 124C431.687 124 431.686 124 431.686 124C431.685 124 431.685 124 431.685 124C431.684 124 431.684 124 431.683 124C431.683 124 431.683 124 431.682 124C431.682 124 431.681 124 431.681 124C431.68 124 431.68 124 431.68 124V126C431.68 126 431.68 126 431.681 126C431.681 126 431.682 126 431.682 126C431.683 126 431.683 126 431.683 126C431.684 126 431.684 126 431.685 126C431.685 126 431.685 126 431.686 126C431.686 126 431.687 126 431.687 126C431.688 126 431.688 126 431.689 126C431.689 126 431.689 126 431.69 126C431.69 126 431.691 126 431.691 126C431.692 126 431.692 126 431.693 126C431.693 126 431.694 126 431.694 126C431.695 126 431.695 126 431.696 126C431.696 126 431.697 126 431.697 126C431.698 126 431.698 126 431.699 126C431.699 126 431.7 126 431.7 126C431.701 126 431.701 126 431.702 126C431.702 126 431.703 126 431.704 126C431.704 126 431.705 126 431.705 126C431.706 126 431.706 126 431.707 126C431.707 126 431.708 126 431.709 126C431.709 126 431.71 126 431.71 126C431.711 126 431.712 126 431.712 126C431.713 126 431.713 126 431.714 126C431.715 126 431.715 126 431.716 126C431.716 126 431.717 126 431.718 126C431.718 126 431.719 126 431.719 126C431.72 126 431.721 126 431.721 126C431.722 126 431.723 126 431.723 126C431.724 126 431.725 126 431.725 126C431.726 126 431.727 126 431.727 126C431.728 126 431.729 126 431.729 126C431.73 126 431.731 126 431.731 126C431.732 126 431.733 126 431.733 126C431.734 126 431.735 126 431.735 126C431.736 126 431.737 126 431.738 126C431.738 126 431.739 126 431.74 126C431.74 126 431.741 126 431.742 126C431.743 126 431.743 126 431.744 126C431.745 126 431.746 126 431.746 126C431.747 126 431.748 126 431.749 126C431.749 126 431.75 126 431.751 126C431.752 126 431.752 126 431.753 126C431.754 126 431.755 126 431.755 126C431.756 126 431.757 126 431.758 126C431.759 126 431.759 126 431.76 126C431.761 126 431.762 126 431.763 126C431.763 126 431.764 126 431.765 126C431.766 126 431.767 126 431.768 126C431.768 126 431.769 126 431.77 126C431.771 126 431.772 126 431.773 126C431.773 126 431.774 126 431.775 126C431.776 126 431.777 126 431.778 126C431.779 126 431.78 126 431.78 126C431.781 126 431.782 126 431.783 126C431.784 126 431.785 126 431.786 126C431.787 126 431.787 126 431.788 126C431.789 126 431.79 126 431.791 126C431.792 126 431.793 126 431.794 126C431.795 126 431.796 126 431.797 126C431.798 126 431.799 126 431.799 126C431.8 126 431.801 126 431.802 126C431.803 126 431.804 126 431.805 126C431.806 126 431.807 126 431.808 126C431.809 126 431.81 126 431.811 126C431.812 126 431.813 126 431.814 126C431.815 126 431.816 126 431.817 126C431.818 126 431.819 126 431.82 126C431.821 126 431.822 126 431.823 126C431.824 126 431.825 126 431.826 126C431.827 126 431.828 126 431.829 126C431.83 126 431.831 126 431.832 126C431.833 126 431.834 126 431.835 126C431.836 126 431.837 126 431.838 126C431.839 126 431.841 126 431.842 126C431.843 126 431.844 126 431.845 126C431.846 126 431.847 126 431.848 126C431.849 126 431.85 126 431.851 126C431.852 126 431.854 126 431.855 126C431.856 126 431.857 126 431.858 126C431.859 126 431.86 126 431.861 126C431.862 126 431.864 126 431.865 126C431.866 126 431.867 126 431.868 126C431.869 126 431.87 126 431.872 126C431.873 126 431.874 126 431.875 126C431.876 126 431.877 126 431.879 126C431.88 126 431.881 126 431.882 126C431.883 126 431.884 126 431.886 126C431.887 126 431.888 126 431.889 126C431.89 126 431.892 126 431.893 126C431.894 126 431.895 126 431.896 126C431.898 126 431.899 126 431.9 126C431.901 126 431.903 126 431.904 126C431.905 126 431.906 126 431.907 126C431.909 126 431.91 126 431.911 126C431.912 126 431.914 126 431.915 126C431.916 126 431.917 126 431.919 126C431.92 126 431.921 126 431.923 126C431.924 126 431.925 126 431.926 126C431.928 126 431.929 126 431.93 126C431.932 126 431.933 126 431.934 126C431.936 126 431.937 126 431.938 126C431.939 126 431.941 126 431.942 126C431.943 126 431.945 126 431.946 126C431.947 126 431.949 126 431.95 126C431.951 126 431.953 126 431.954 126C431.955 126 431.957 126 431.958 126C431.96 126 431.961 126 431.962 126C431.964 126 431.965 126 431.966 126C431.968 126 431.969 126 431.971 126C431.972 126 431.973 126 431.975 126C431.976 126 431.978 126 431.979 126C431.98 126 431.982 126 431.983 126C431.985 126 431.986 126 431.987 126C431.989 126 431.99 126 431.992 126C431.993 126 431.995 126 431.996 126C431.998 126 431.999 126 432 126C432.002 126 432.003 126 432.005 126C432.006 126 432.008 126 432.009 126C432.011 126 432.012 126 432.014 126C432.015 126 432.017 126 432.018 126C432.02 126 432.021 126 432.023 126C432.024 126 432.026 126 432.027 126C432.029 126 432.03 126 432.032 126C432.033 126 432.035 126 432.036 126C432.038 126 432.039 126 432.041 126C432.042 126 432.044 126 432.045 126C432.047 126 432.048 126 432.05 126C432.052 126 432.053 126 432.055 126C432.056 126 432.058 126 432.059 126C432.061 126 432.063 126 432.064 126C432.066 126 432.067 126 432.069 126C432.07 126 432.072 126 432.074 126C432.075 126 432.077 126 432.078 126C432.08 126 432.082 126 432.083 126C432.085 126 432.087 126 432.088 126C432.09 126 432.091 126 432.093 126C432.095 126 432.096 126 432.098 126C432.1 126 432.101 126 432.103 126C432.105 126 432.106 126 432.108 126C432.11 126 432.111 126 432.113 126C432.115 126 432.116 126 432.118 126C432.12 126 432.121 126 432.123 126C432.125 126 432.126 126 432.128 126C432.13 126 432.131 126 432.133 126C432.135 126 432.137 126 432.138 126C432.14 126 432.142 126 432.144 126C432.145 126 432.147 126 432.149 126C432.15 126 432.152 126 432.154 126C432.156 126 432.157 126 432.159 126C432.161 126 432.163 126 432.164 126C432.166 126 432.168 126 432.17 126C432.172 126 432.173 126 432.175 126C432.177 126 432.179 126 432.18 126C432.182 126 432.184 126 432.186 126C432.188 126 432.189 126 432.191 126C432.193 126 432.195 126 432.197 126C432.199 126 432.2 126 432.202 126C432.204 126 432.206 126 432.208 126C432.21 126 432.211 126 432.213 126C432.215 126 432.217 126 432.219 126C432.221 126 432.222 126 432.224 126C432.226 126 432.228 126 432.23 126C432.232 126 432.234 126 432.236 126C432.237 126 432.239 126 432.241 126C432.243 126 432.245 126 432.247 126C432.249 126 432.251 126 432.253 126C432.255 126 432.256 126 432.258 126C432.26 126 432.262 126 432.264 126C432.266 126 432.268 126 432.27 126C432.272 126 432.274 126 432.276 126C432.278 126 432.28 126 432.282 126C432.284 126 432.286 126 432.288 126C432.289 126 432.291 126 432.293 126C432.295 126 432.297 126 432.299 126C432.301 126 432.303 126 432.305 126C432.307 126 432.309 126 432.311 126C432.313 126 432.315 126 432.317 126C432.319 126 432.321 126 432.323 126C432.325 126 432.327 126 432.329 126C432.332 126 432.334 126 432.336 126C432.338 126 432.34 126 432.342 126C432.344 126 432.346 126 432.348 126C432.35 126 432.352 126 432.354 126C432.356 126 432.358 126 432.36 126C432.362 126 432.364 126 432.366 126C432.369 126 432.371 126 432.373 126C432.375 126 432.377 126 432.379 126C432.381 126 432.383 126 432.385 126C432.387 126 432.39 126 432.392 126C432.394 126 432.396 126 432.398 126C432.4 126 432.402 126 432.405 126C432.407 126 432.409 126 432.411 126C432.413 126 432.415 126 432.417 126C432.42 126 432.422 126 432.424 126C432.426 126 432.428 126 432.43 126C432.433 126 432.435 126 432.437 126C432.439 126 432.441 126 432.444 126C432.446 126 432.448 126 432.45 126C432.452 126 432.455 126 432.457 126C432.459 126 432.461 126 432.463 126C432.466 126 432.468 126 432.47 126C432.472 126 432.475 126 432.477 126C432.479 126 432.481 126 432.484 126C432.486 126 432.488 126 432.49 126C432.493 126 432.495 126 432.497 126C432.499 126 432.502 126 432.504 126C432.506 126 432.508 126 432.511 126C432.513 126 432.515 126 432.518 126C432.52 126 432.522 126 432.524 126C432.527 126 432.529 126 432.531 126C432.534 126 432.536 126 432.538 126C432.541 126 432.543 126 432.545 126C432.548 126 432.55 126 432.552 126C432.555 126 432.557 126 432.559 126C432.562 126 432.564 126 432.566 126C432.569 126 432.571 126 432.574 126C432.576 126 432.578 126 432.581 126C432.583 126 432.585 126 432.588 126C432.59 126 432.593 126 432.595 126C432.597 126 432.6 126 432.602 126C432.605 126 432.607 126 432.609 126C432.612 126 432.614 126 432.617 126C432.619 126 432.622 126 432.624 126C432.626 126 432.629 126 432.631 126C432.634 126 432.636 126 432.639 126C432.641 126 432.643 126 432.646 126C432.648 126 432.651 126 432.653 126C432.656 126 432.658 126 432.661 126C432.663 126 432.666 126 432.668 126C432.671 126 432.673 126 432.676 126C432.678 126 432.681 126 432.683 126C432.686 126 432.688 126 432.691 126C432.693 126 432.696 126 432.698 126C432.701 126 432.703 126 432.706 126C432.708 126 432.711 126 432.713 126C432.716 126 432.719 126 432.721 126C432.724 126 432.726 126 432.729 126C432.731 126 432.734 126 432.736 126C432.739 126 432.742 126 432.744 126C432.747 126 432.749 126 432.752 126C432.755 126 432.757 126 432.76 126C432.762 126 432.765 126 432.768 126C432.77 126 432.773 126 432.775 126C432.778 126 432.781 126 432.783 126C432.786 126 432.788 126 432.791 126C432.794 126 432.796 126 432.799 126C432.802 126 432.804 126 432.807 126C432.81 126 432.812 126 432.815 126C432.818 126 432.82 126 432.823 126C432.826 126 432.828 126 432.831 126C432.834 126 432.836 126 432.839 126C432.842 126 432.844 126 432.847 126C432.85 126 432.852 126 432.855 126C432.858 126 432.861 126 432.863 126C432.866 126 432.869 126 432.872 126C432.874 126 432.877 126 432.88 126C432.882 126 432.885 126 432.888 126C432.891 126 432.893 126 432.896 126C432.899 126 432.902 126 432.904 126C432.907 126 432.91 126 432.913 126C432.915 126 432.918 126 432.921 126C432.924 126 432.927 126 432.929 126C432.932 126 432.935 126 432.938 126C432.941 126 432.943 126 432.946 126C432.949 126 432.952 126 432.955 126C432.957 126 432.96 126 432.963 126C432.966 126 432.969 126 432.972 126C432.974 126 432.977 126 432.98 126C432.983 126 432.986 126 432.989 126C432.992 126 432.994 126 432.997 126C433 126 433.003 126 433.006 126C433.009 126 433.012 126 433.014 126C433.017 126 433.02 126 433.023 126C433.026 126 433.029 126 433.032 126C433.035 126 433.038 126 433.041 126C433.043 126 433.046 126 433.049 126C433.052 126 433.055 126 433.058 126C433.061 126 433.064 126 433.067 126C433.07 126 433.073 126 433.076 126C433.079 126 433.082 126 433.084 126C433.087 126 433.09 126 433.093 126C433.096 126 433.099 126 433.102 126C433.105 126 433.108 126 433.111 126C433.114 126 433.117 126 433.12 126C433.123 126 433.126 126 433.129 126C433.132 126 433.135 126 433.138 126C433.141 126 433.144 126 433.147 126C433.15 126 433.153 126 433.156 126C433.159 126 433.162 126 433.165 126C433.168 126 433.171 126 433.174 126C433.178 126 433.181 126 433.184 126C433.187 126 433.19 126 433.193 126C433.196 126 433.199 126 433.202 126C433.205 126 433.208 126 433.211 126C433.214 126 433.217 126 433.221 126C433.224 126 433.227 126 433.23 126C433.233 126 433.236 126 433.239 126C433.242 126 433.245 126 433.248 126C433.252 126 433.255 126 433.258 126C433.261 126 433.264 126 433.267 126C433.27 126 433.273 126 433.277 126C433.28 126 433.283 126 433.286 126C433.289 126 433.292 126 433.296 126C433.299 126 433.302 126 433.305 126C433.308 126 433.311 126 433.315 126C433.318 126 433.321 126 433.324 126C433.327 126 433.331 126 433.334 126C433.337 126 433.34 126 433.343 126C433.347 126 433.35 126 433.353 126C433.356 126 433.359 126 433.363 126C433.366 126 433.369 126 433.372 126C433.376 126 433.379 126 433.382 126C433.385 126 433.389 126 433.392 126C433.395 126 433.398 126 433.402 126C433.405 126 433.408 126 433.411 126C433.415 126 433.418 126 433.421 126C433.425 126 433.428 126 433.431 126C433.434 126 433.438 126 433.441 126C433.444 126 433.448 126 433.451 126C433.454 126 433.458 126 433.461 126C433.464 126 433.468 126 433.471 126C433.474 126 433.478 126 433.481 126C433.484 126 433.488 126 433.491 126C433.494 126 433.498 126 433.501 126C433.504 126 433.508 126 433.511 126C433.514 126 433.518 126 433.521 126C433.525 126 433.528 126 433.531 126C433.535 126 433.538 126 433.542 126C433.545 126 433.548 126 433.552 126C433.555 126 433.559 126 433.562 126C433.565 126 433.569 126 433.572 126C433.576 126 433.579 126 433.582 126C433.586 126 433.589 126 433.593 126C433.596 126 433.6 126 433.603 126C433.607 126 433.61 126 433.613 126C433.617 126 433.62 126 433.624 126C433.627 126 433.631 126 433.634 126C433.638 126 433.641 126 433.645 126C433.648 126 433.652 126 433.655 126C433.659 126 433.662 126 433.666 126C433.669 126 433.673 126 433.676 126C433.68 126 433.683 126 433.687 126C433.69 126 433.694 126 433.697 126C433.701 126 433.704 126 433.708 126C433.711 126 433.715 126 433.719 126C433.722 126 433.726 126 433.729 126C433.733 126 433.736 126 433.74 126C433.743 126 433.747 126 433.751 126C433.754 126 433.758 126 433.761 126C433.765 126 433.769 126 433.772 126C433.776 126 433.779 126 433.783 126C433.787 126 433.79 126 433.794 126C433.797 126 433.801 126 433.805 126C433.808 126 433.812 126 433.815 126C433.819 126 433.823 126 433.826 126C433.83 126 433.834 126 433.837 126C433.841 126 433.845 126 433.848 126C433.852 126 433.856 126 433.859 126C433.863 126 433.867 126 433.87 126C433.874 126 433.878 126 433.881 126C433.885 126 433.889 126 433.892 126C433.896 126 433.9 126 433.904 126C433.907 126 433.911 126 433.915 126C433.918 126 433.922 126 433.926 126C433.93 126 433.933 126 433.937 126C433.941 126 433.944 126 433.948 126C433.952 126 433.956 126 433.959 126C433.963 126 433.967 126 433.971 126C433.974 126 433.978 126 433.982 126C433.986 126 433.99 126 433.993 126C433.997 126 434.001 126 434.005 126C434.008 126 434.012 126 434.016 126C434.02 126 434.024 126 434.027 126C434.031 126 434.035 126 434.039 126C434.043 126 434.047 126 434.05 126C434.054 126 434.058 126 434.062 126C434.066 126 434.069 126 434.073 126C434.077 126 434.081 126 434.085 126C434.089 126 434.093 126 434.096 126C434.1 126 434.104 126 434.108 126C434.112 126 434.116 126 434.12 126C434.124 126 434.127 126 434.131 126C434.135 126 434.139 126 434.143 126C434.147 126 434.151 126 434.155 126C434.159 126 434.163 126 434.166 126C434.17 126 434.174 126 434.178 126C434.182 126 434.186 126 434.19 126C434.194 126 434.198 126 434.202 126C434.206 126 434.21 126 434.214 126C434.218 126 434.222 126 434.225 126C434.229 126 434.233 126 434.237 126C434.241 126 434.245 126 434.249 126C434.253 126 434.257 126 434.261 126C434.265 126 434.269 126 434.273 126C434.277 126 434.281 126 434.285 126C434.289 126 434.293 126 434.297 126C434.301 126 434.305 126 434.309 126C434.313 126 434.317 126 434.321 126C434.325 126 434.33 126 434.334 126C434.338 126 434.342 126 434.346 126C434.35 126 434.354 126 434.358 126C434.362 126 434.366 126 434.37 126C434.374 126 434.378 126 434.382 126C434.386 126 434.39 126 434.395 126C434.399 126 434.403 126 434.407 126C434.411 126 434.415 126 434.419 126C434.423 126 434.427 126 434.431 126C434.436 126 434.44 126 434.444 126C434.448 126 434.452 126 434.456 126C434.46 126 434.465 126 434.469 126C434.473 126 434.477 126 434.481 126C434.485 126 434.489 126 434.494 126C434.498 126 434.502 126 434.506 126C434.51 126 434.514 126 434.519 126C434.523 126 434.527 126 434.531 126C434.535 126 434.54 126 434.544 126C434.548 126 434.552 126 434.556 126C434.561 126 434.565 126 434.569 126C434.573 126 434.577 126 434.582 126C434.586 126 434.59 126 434.594 126C434.599 126 434.603 126 434.607 126C434.611 126 434.616 126 434.62 126C434.624 126 434.628 126 434.633 126C434.637 126 434.641 126 434.645 126C434.65 126 434.654 126 434.658 126C434.663 126 434.667 126 434.671 126C434.675 126 434.68 126 434.684 126C434.688 126 434.693 126 434.697 126C434.701 126 434.706 126 434.71 126C434.714 126 434.718 126 434.723 126C434.727 126 434.731 126 434.736 126C434.74 126 434.744 126 434.749 126C434.753 126 434.758 126 434.762 126C434.766 126 434.771 126 434.775 126C434.779 126 434.784 126 434.788 126C434.792 126 434.797 126 434.801 126C434.806 126 434.81 126 434.814 126C434.819 126 434.823 126 434.828 126C434.832 126 434.836 126 434.841 126C434.845 126 434.85 126 434.854 126C434.858 126 434.863 126 434.867 126C434.872 126 434.876 126 434.881 126C434.885 126 434.889 126 434.894 126C434.898 126 434.903 126 434.907 126C434.912 126 434.916 126 434.921 126C434.925 126 434.93 126 434.934 126C434.939 126 434.943 126 434.947 126C434.952 126 434.956 126 434.961 126C434.965 126 434.97 126 434.974 126C434.979 126 434.983 126 434.988 126C434.992 126 434.997 126 435.001 126C435.006 126 435.011 126 435.015 126C435.02 126 435.024 126 435.029 126C435.033 126 435.038 126 435.042 126C435.047 126 435.051 126 435.056 126C435.061 126 435.065 126 435.07 126C435.074 126 435.079 126 435.083 126C435.088 126 435.092 126 435.097 126C435.102 126 435.106 126 435.111 126C435.115 126 435.12 126 435.125 126C435.129 126 435.134 126 435.138 126C435.143 126 435.148 126 435.152 126C435.157 126 435.162 126 435.166 126C435.171 126 435.175 126 435.18 126C435.185 126 435.189 126 435.194 126C435.199 126 435.203 126 435.208 126C435.213 126 435.217 126 435.222 126C435.227 126 435.231 126 435.236 126C435.241 126 435.245 126 435.25 126C435.255 126 435.259 126 435.264 126C435.269 126 435.273 126 435.278 126C435.283 126 435.288 126 435.292 126C435.297 126 435.302 126 435.306 126C435.311 126 435.316 126 435.321 126C435.325 126 435.33 126 435.335 126C435.34 126 435.344 126 435.349 126C435.354 126 435.359 126 435.363 126C435.368 126 435.373 126 435.378 126C435.382 126 435.387 126 435.392 126C435.397 126 435.401 126 435.406 126C435.411 126 435.416 126 435.421 126C435.425 126 435.43 126 435.435 126C435.44 126 435.445 126 435.449 126C435.454 126 435.459 126 435.464 126C435.469 126 435.474 126 435.478 126C435.483 126 435.488 126 435.493 126C435.498 126 435.503 126 435.507 126C435.512 126 435.517 126 435.522 126C435.527 126 435.532 126 435.537 126C435.541 126 435.546 126 435.551 126C435.556 126 435.561 126 435.566 126C435.571 126 435.576 126 435.58 126C435.585 126 435.59 126 435.595 126C435.6 126 435.605 126 435.61 126C435.615 126 435.62 126 435.625 126C435.63 126 435.635 126 435.639 126C435.644 126 435.649 126 435.654 126C435.659 126 435.664 126 435.669 126C435.674 126 435.679 126 435.684 126C435.689 126 435.694 126 435.699 126C435.704 126 435.709 126 435.714 126C435.719 126 435.724 126 435.729 126C435.734 126 435.739 126 435.744 126C435.749 126 435.754 126 435.759 126C435.764 126 435.769 126 435.774 126C435.779 126 435.784 126 435.789 126C435.794 126 435.799 126 435.804 126C435.809 126 435.814 126 435.819 126C435.824 126 435.829 126 435.834 126C435.839 126 435.844 126 435.849 126C435.854 126 435.859 126 435.864 126C435.87 126 435.875 126 435.88 126V124ZM431.68 124H370.18V126H431.68V124ZM324.68 302V92H322.68V302H324.68ZM323.68 93H442.78V91H323.68V93ZM442.78 93C473.925 93 495.513 98.4027 507.829 108.959L509.13 107.441C496.246 96.3973 474.034 91 442.78 91V93ZM507.829 108.959C518.759 118.328 524.28 131.822 524.28 149.6H526.28C526.28 131.378 520.6 117.272 509.13 107.441L507.829 108.959ZM524.28 149.6C524.28 164.984 519.653 177.213 510.473 186.393L511.887 187.807C521.507 178.187 526.28 165.416 526.28 149.6H524.28ZM510.473 186.393C503.218 193.647 494.194 198.461 483.367 200.823L483.793 202.777C494.965 200.339 504.341 195.353 511.887 187.807L510.473 186.393ZM482.58 201.8V202.7H484.58V201.8H482.58ZM483.391 203.682C493.635 205.652 501.526 209.672 507.149 215.683L508.61 214.317C502.633 207.928 494.324 203.748 483.769 201.718L483.391 203.682ZM507.173 215.707C510.067 218.602 512.292 222.08 513.845 226.156L515.714 225.444C514.067 221.12 511.692 217.398 508.587 214.293L507.173 215.707ZM513.851 226.171C515.447 230.16 516.3 233.049 516.485 234.9L518.475 234.7C518.26 232.551 517.313 229.44 515.708 225.429L513.851 226.171ZM516.499 234.996C516.885 236.927 517.282 240.569 517.682 245.974L519.677 245.826C519.277 240.431 518.874 236.673 518.46 234.604L516.499 234.996ZM517.682 245.968L519.482 272.368L521.477 272.232L519.677 245.832L517.682 245.968ZM519.48 272.3C519.48 273.146 519.583 274.885 519.783 277.477L521.777 277.323C521.576 274.715 521.48 273.054 521.48 272.3H519.48ZM519.783 277.477C519.983 280.085 520.08 281.746 520.08 282.5H522.08C522.08 281.654 521.976 279.915 521.777 277.323L519.783 277.477ZM520.11 282.743C520.301 283.507 520.595 284.976 520.996 287.179L522.964 286.821C522.564 284.624 522.259 283.093 522.05 282.257L520.11 282.743ZM520.996 287.179C521.399 289.396 521.809 291.15 522.231 292.416L524.128 291.784C523.751 290.65 523.36 289.004 522.964 286.821L520.996 287.179ZM522.285 292.547C522.894 293.765 523.702 295.279 524.706 297.086L526.454 296.114C525.458 294.321 524.665 292.835 524.074 291.653L522.285 292.547ZM524.706 297.086C525.733 298.935 526.962 300.778 528.39 302.614L529.969 301.386C528.597 299.622 527.426 297.865 526.454 296.114L524.706 297.086ZM529.18 301H479.68V303H529.18V301ZM480.512 301.445C476.237 295.033 473.567 286.215 472.576 274.913L470.584 275.087C471.592 286.585 474.322 295.767 478.848 302.555L480.512 301.445ZM472.579 274.954L471.679 255.454L469.681 255.546L470.581 275.046L472.579 274.954ZM471.676 255.409C470.675 244.401 468.864 236.59 466.13 232.174L464.429 233.226C466.895 237.21 468.685 244.599 469.684 255.591L471.676 255.409ZM466.112 232.145C464.462 229.67 462.594 227.591 460.504 225.919L459.255 227.481C461.165 229.009 462.898 230.93 464.448 233.255L466.112 232.145ZM460.522 225.934C454.041 220.497 443.034 217.9 427.78 217.9V219.9C442.925 219.9 453.319 222.503 459.237 227.466L460.522 225.934ZM427.78 217.9H370.18V219.9H427.78V217.9ZM369.18 218.9V302H371.18V218.9H369.18ZM370.18 301H323.68V303H370.18V301ZM614.809 177.5H613.809V178.5H614.809V177.5ZM734.809 177.5H735.809V176.5H734.809V177.5ZM734.809 212.3V213.3H735.809V212.3H734.809ZM614.809 212.3V211.3H613.809V212.3H614.809ZM614.809 266.6H613.809V267.6H614.809V266.6ZM757.309 266.6H758.309V265.6H757.309V266.6ZM757.309 302V303H758.309V302H757.309ZM568.309 302H567.309V303H568.309V302ZM568.309 92V91H567.309V92H568.309ZM753.709 92H754.709V91H753.709V92ZM753.709 127.4V128.4H754.709V127.4H753.709ZM614.809 127.4V126.4H613.809V127.4H614.809ZM614.809 178.5H734.809V176.5H614.809V178.5ZM733.809 177.5V212.3H735.809V177.5H733.809ZM734.809 211.3H614.809V213.3H734.809V211.3ZM613.809 212.3V266.6H615.809V212.3H613.809ZM614.809 267.6H757.309V265.6H614.809V267.6ZM756.309 266.6V302H758.309V266.6H756.309ZM757.309 301H568.309V303H757.309V301ZM569.309 302V92H567.309V302H569.309ZM568.309 93H753.709V91H568.309V93ZM752.709 92V127.4H754.709V92H752.709ZM753.709 126.4H614.809V128.4H753.709V126.4ZM613.809 127.4V177.5H615.809V127.4H613.809ZM874.135 256.4V257.4H874.838L875.076 256.738L874.135 256.4ZM933.235 92V91H932.532L932.294 91.6617L933.235 92ZM983.335 92L984.262 92.3759L984.82 91H983.335V92ZM898.135 302V303H898.809L899.062 302.376L898.135 302ZM846.535 302L845.609 302.376L845.862 303H846.535V302ZM761.335 92V91H759.85L760.409 92.3759L761.335 92ZM813.535 92L814.476 91.6617L814.238 91H813.535V92ZM872.635 256.4L871.694 256.738L871.932 257.4H872.635V256.4ZM875.076 256.738L934.176 92.3383L932.294 91.6617L873.194 256.062L875.076 256.738ZM933.235 93H983.335V91H933.235V93ZM982.409 91.624L897.209 301.624L899.062 302.376L984.262 92.3759L982.409 91.624ZM898.135 301H846.535V303H898.135V301ZM847.462 301.624L762.262 91.624L760.409 92.3759L845.609 302.376L847.462 301.624ZM761.335 93H813.535V91H761.335V93ZM812.594 92.3383L871.694 256.738L873.576 256.062L814.476 91.6617L812.594 92.3383ZM872.635 257.4H874.135V255.4H872.635V257.4ZM1007.76 92V91H1006.76V92H1007.76ZM1054.26 92H1055.26V91H1054.26V92ZM1054.26 302V303H1055.26V302H1054.26ZM1007.76 302H1006.76V303H1007.76V302ZM1007.76 93H1054.26V91H1007.76V93ZM1053.26 92V302H1055.26V92H1053.26ZM1054.26 301H1007.76V303H1054.26V301ZM1008.76 302V92H1006.76V302H1008.76ZM373.256 573.5H372.256V574.5H373.256V573.5ZM493.256 573.5H494.256V572.5H493.256V573.5ZM493.256 608.3V609.3H494.256V608.3H493.256ZM373.256 608.3V607.3H372.256V608.3H373.256ZM373.256 662.6H372.256V663.6H373.256V662.6ZM515.756 662.6H516.756V661.6H515.756V662.6ZM515.756 698V699H516.756V698H515.756ZM326.756 698H325.756V699H326.756V698ZM326.756 488V487H325.756V488H326.756ZM512.156 488H513.156V487H512.156V488ZM512.156 523.4V524.4H513.156V523.4H512.156ZM373.256 523.4V522.4H372.256V523.4H373.256ZM373.256 574.5H493.256V572.5H373.256V574.5ZM492.256 573.5V608.3H494.256V573.5H492.256ZM493.256 607.3H373.256V609.3H493.256V607.3ZM372.256 608.3V662.6H374.256V608.3H372.256ZM373.256 663.6H515.756V661.6H373.256V663.6ZM514.756 662.6V698H516.756V662.6H514.756ZM515.756 697H326.756V699H515.756V697ZM327.756 698V488H325.756V698H327.756ZM326.756 489H512.156V487H326.756V489ZM511.156 488V523.4H513.156V488H511.156ZM512.156 522.4H373.256V524.4H512.156V522.4ZM372.256 523.4V573.5H374.256V523.4H372.256ZM683.282 534.8L684.238 534.505L683.288 531.429L682.328 534.502L683.282 534.8ZM632.282 698V699H633.018L633.237 698.298L632.282 698ZM582.782 698L581.825 698.287L582.038 699H582.782V698ZM519.782 488V487H518.438L518.825 488.287L519.782 488ZM568.682 488L569.654 487.763L569.468 487H568.682V488ZM608.582 651.8L607.611 652.037L608.451 655.486L609.535 652.105L608.582 651.8ZM661.082 488V487H660.353L660.13 487.695L661.082 488ZM705.482 488L706.435 487.696L706.213 487H705.482V488ZM757.682 651.8L756.73 652.104L757.815 655.508L758.654 652.035L757.682 651.8ZM797.282 488V487H796.495L796.31 487.765L797.282 488ZM846.182 488L847.14 488.287L847.526 487H846.182V488ZM783.182 698V699H783.926L784.14 698.287L783.182 698ZM733.682 698L732.727 698.295L732.945 699H733.682V698ZM682.328 534.502L631.328 697.702L633.237 698.298L684.237 535.098L682.328 534.502ZM632.282 697H582.782V699H632.282V697ZM583.74 697.713L520.74 487.713L518.825 488.287L581.825 698.287L583.74 697.713ZM519.782 489H568.682V487H519.782V489ZM567.711 488.237L607.611 652.037L609.554 651.563L569.654 487.763L567.711 488.237ZM609.535 652.105L662.035 488.305L660.13 487.695L607.63 651.495L609.535 652.105ZM661.082 489H705.482V487H661.082V489ZM704.53 488.304L756.73 652.104L758.635 651.496L706.435 487.696L704.53 488.304ZM758.654 652.035L798.254 488.235L796.31 487.765L756.71 651.565L758.654 652.035ZM797.282 489H846.182V487H797.282V489ZM845.225 487.713L782.225 697.713L784.14 698.287L847.14 488.287L845.225 487.713ZM783.182 697H733.682V699H783.182V697ZM734.638 697.705L684.238 534.505L682.327 535.095L732.727 698.295L734.638 697.705ZM858.506 630.5V629.5H857.506V630.5H858.506ZM906.806 630.5H907.806V629.5H906.806V630.5ZM922.706 661.4L922.189 662.256L922.198 662.262L922.208 662.267L922.706 661.4ZM999.806 663.2L1000.26 664.09L1000.27 664.085L1000.28 664.08L999.806 663.2ZM1001.91 618.2L1001.38 619.048L1001.39 619.057L1001.41 619.066L1001.91 618.2ZM968.006 608.6L968.194 607.618L968.181 607.615L968.006 608.6ZM941.006 603.8L940.827 604.784L940.831 604.785L941.006 603.8ZM912.506 598.4L912.271 599.372L912.287 599.376L912.303 599.379L912.506 598.4ZM892.706 592.1L892.343 593.032L892.352 593.035L892.706 592.1ZM875.906 582.5L876.575 581.757L876.572 581.754L875.906 582.5ZM890.306 496.7L889.79 495.843L889.785 495.846L890.306 496.7ZM1025.61 494.9L1026.09 494.026L1026.08 494.021L1026.07 494.016L1025.61 494.9ZM1055.31 545.6V546.6H1056.31V545.6H1055.31ZM1007.91 545.6L1006.91 545.636L1006.94 546.6H1007.91V545.6ZM991.706 521L991.241 521.885L991.245 521.887L991.706 521ZM924.506 520.7L924.059 519.806L924.052 519.809L924.506 520.7ZM924.806 562.7L925.209 561.785L925.189 561.776L925.168 561.768L924.806 562.7ZM965.906 571.7L965.739 572.686L965.743 572.687L965.906 571.7ZM989.606 575.6L989.777 574.615L989.768 574.613L989.606 575.6ZM1043.31 593.6L1043.92 592.809L1043.91 592.801L1043.9 592.793L1043.31 593.6ZM1034.61 691.1L1034.09 690.243L1034.09 690.243L1034.61 691.1ZM895.106 692.9L895.534 691.996L895.529 691.994L895.106 692.9ZM858.506 631.5H906.806V629.5H858.506V631.5ZM905.806 630.5V631.7H907.806V630.5H905.806ZM905.806 631.7C905.806 645.415 911.261 655.658 922.189 662.256L923.223 660.544C912.951 654.342 907.806 644.784 907.806 631.7H905.806ZM922.208 662.267C931.823 667.791 945.324 670.5 962.606 670.5V668.5C945.488 668.5 932.388 665.809 923.204 660.533L922.208 662.267ZM962.606 670.5C979.256 670.5 991.849 668.399 1000.26 664.09L999.35 662.31C991.363 666.401 979.155 668.5 962.606 668.5V670.5ZM1000.28 664.08C1010.95 658.335 1016.41 650.025 1016.41 639.2H1014.41C1014.41 649.175 1009.46 656.865 999.332 662.32L1000.28 664.08ZM1016.41 639.2C1016.41 629.972 1011.65 622.674 1002.41 617.334L1001.41 619.066C1010.16 624.126 1014.41 630.828 1014.41 639.2H1016.41ZM1002.44 617.352C999.909 615.773 995.769 614.192 990.103 612.588C984.415 610.977 977.109 609.321 968.193 607.618L967.818 609.582C976.703 611.279 983.947 612.923 989.558 614.512C995.193 616.108 999.103 617.627 1001.38 619.048L1002.44 617.352ZM968.181 607.615L941.181 602.815L940.831 604.785L967.831 609.585L968.181 607.615ZM941.185 602.816C927.985 600.416 918.496 598.618 912.708 597.421L912.303 599.379C918.116 600.582 927.626 602.384 940.827 604.784L941.185 602.816ZM912.741 597.428C906.992 596.04 900.433 593.954 893.06 591.165L892.352 593.035C899.779 595.846 906.42 597.96 912.271 599.372L912.741 597.428ZM893.068 591.168C885.936 588.394 880.455 585.249 876.575 581.757L875.237 583.243C879.357 586.951 885.076 590.206 892.343 593.032L893.068 591.168ZM876.572 581.754C867.425 573.58 862.806 562.174 862.806 547.4H860.806C860.806 562.626 865.587 574.62 875.24 583.246L876.572 581.754ZM862.806 547.4C862.806 525.55 872.123 508.973 890.827 497.554L889.785 495.846C870.488 507.627 860.806 524.85 860.806 547.4H862.806ZM890.822 497.557C907.212 487.683 929.311 482.7 957.206 482.7V480.7C929.1 480.7 906.6 485.717 889.79 495.843L890.822 497.557ZM957.206 482.7C986.123 482.7 1008.74 487.091 1025.14 495.784L1026.07 494.016C1009.27 485.109 986.288 480.7 957.206 480.7V482.7ZM1025.12 495.774C1034.89 501.201 1042.17 508.058 1047.02 516.33C1051.86 524.604 1054.31 534.348 1054.31 545.6H1056.31C1056.31 534.052 1053.8 523.946 1048.74 515.32C1043.69 506.692 1036.12 499.599 1026.09 494.026L1025.12 495.774ZM1055.31 544.6H1007.91V546.6H1055.31V544.6ZM1008.91 545.564C1008.49 534.176 1002.86 525.665 992.167 520.112L991.245 521.887C1001.35 527.135 1006.52 535.024 1006.91 545.636L1008.91 545.564ZM992.171 520.115C983.957 515.802 971.863 513.7 956.006 513.7V515.7C971.748 515.7 983.455 517.798 991.241 521.885L992.171 520.115ZM956.006 513.7C942.916 513.7 932.246 515.712 924.059 519.806L924.953 521.594C932.766 517.688 943.096 515.7 956.006 515.7V513.7ZM924.052 519.809C913.223 525.326 907.606 533.018 907.606 542.9H909.606C909.606 533.982 914.589 526.874 924.96 521.591L924.052 519.809ZM907.606 542.9C907.606 547.617 909.027 551.744 911.882 555.233C914.723 558.706 918.938 561.491 924.443 563.632L925.168 561.768C919.874 559.709 915.988 557.094 913.43 553.967C910.885 550.856 909.606 547.183 909.606 542.9H907.606ZM924.403 563.615C927.006 564.76 931.772 566.078 938.617 567.577C945.489 569.082 954.531 570.785 965.739 572.686L966.073 570.714C954.88 568.815 945.873 567.118 939.045 565.623C932.19 564.122 927.606 562.839 925.209 561.785L924.403 563.615ZM965.743 572.687L989.443 576.587L989.768 574.613L966.068 570.713L965.743 572.687ZM989.435 576.585C1014.81 580.98 1032.51 586.951 1042.72 594.407L1043.9 592.793C1033.3 585.049 1015.21 579.02 989.777 574.615L989.435 576.585ZM1042.69 594.391C1055.62 604.381 1062.11 618.373 1062.11 636.5H1064.11C1064.11 617.827 1057.39 603.219 1043.92 592.809L1042.69 594.391ZM1062.11 636.5C1062.11 661.203 1052.75 679.049 1034.09 690.243L1035.12 691.957C1054.47 680.351 1064.11 661.797 1064.11 636.5H1062.11ZM1034.09 690.243C1020.33 698.499 998.455 702.7 968.306 702.7V704.7C998.556 704.7 1020.88 700.501 1035.12 691.957L1034.09 690.243ZM968.306 702.7C934.735 702.7 910.523 699.096 895.534 691.996L894.678 693.804C910.088 701.104 934.677 704.7 968.306 704.7V702.7ZM895.529 691.994C883.487 686.368 874.5 678.52 868.515 668.464C862.527 658.402 859.506 646.063 859.506 631.4H857.506C857.506 646.337 860.585 659.048 866.797 669.486C873.012 679.93 882.325 688.032 894.683 693.806L895.529 691.994ZM859.506 631.4V630.5H857.506V631.4H859.506Z" fill="#D8D8D7" mask="url(#path-1-outside-1_1_244)"/>
</svg>
