<svg width="1519" height="476" viewBox="0 0 1519 476" fill="none" xmlns="http://www.w3.org/2000/svg">
<mask id="path-1-outside-1_44_8" maskUnits="userSpaceOnUse" x="-1" y="84" width="1521" height="225" fill="black">
<rect fill="white" x="-1" y="84" width="1521" height="225"/>
<path d="M47.4355 125V186.5H112.836C124.836 186.5 134.736 184.3 142.536 179.9C151.336 174.9 155.736 166.6 155.736 155C155.736 143.8 151.636 135.8 143.436 131C142.036 130 140.536 129.2 138.936 128.6C137.336 127.8 135.536 127.2 133.536 126.8C131.536 126.4 129.836 126.1 128.436 125.9C127.236 125.5 125.436 125.3 123.036 125.3C120.636 125.1 119.036 125 118.236 125C117.436 125 115.736 125 113.136 125C110.536 125 109.136 125 108.936 125H47.4355ZM0.935547 302V92H120.036C151.236 92 173.136 97.4 185.736 108.2C196.936 117.8 202.536 131.6 202.536 149.6C202.536 165.2 197.836 177.7 188.436 187.1C181.036 194.5 171.836 199.4 160.836 201.8V202.7C171.236 204.7 179.336 208.8 185.136 215C188.136 218 190.436 221.6 192.036 225.8C193.636 229.8 194.536 232.8 194.736 234.8C195.136 236.8 195.536 240.5 195.936 245.9L197.736 272.3C197.736 273.1 197.836 274.8 198.036 277.4C198.236 280 198.336 281.7 198.336 282.5C198.536 283.3 198.836 284.8 199.236 287C199.636 289.2 200.036 290.9 200.436 292.1C201.036 293.3 201.836 294.8 202.836 296.6C203.836 298.4 205.036 300.2 206.436 302H156.936C152.536 295.4 149.836 286.4 148.836 275L147.936 255.5C146.936 244.5 145.136 236.9 142.536 232.7C140.936 230.3 139.136 228.3 137.136 226.7C130.936 221.5 120.236 218.9 105.036 218.9H47.4355V302H0.935547ZM292.064 177.5H412.064V212.3H292.064V266.6H434.564V302H245.564V92H430.964V127.4H292.064V177.5ZM551.391 256.4L610.491 92H660.591L575.391 302H523.791L438.591 92H490.791L549.891 256.4H551.391ZM685.018 92H731.518V302H685.018V92ZM829.076 177.5H949.076V212.3H829.076V266.6H971.576V302H782.576V92H967.976V127.4H829.076V177.5ZM1139.1 138.8L1088.1 302H1038.6L975.603 92H1024.5L1064.4 255.8L1116.9 92H1161.3L1213.5 255.8L1253.1 92H1302L1239 302H1189.5L1139.1 138.8ZM1314.33 234.5H1362.63V235.7C1362.63 249.1 1367.93 259 1378.53 265.4C1387.93 270.8 1401.23 273.5 1418.43 273.5C1435.03 273.5 1447.43 271.4 1455.63 267.2C1466.03 261.6 1471.23 253.6 1471.23 243.2C1471.23 234.4 1466.73 227.4 1457.73 222.2C1452.93 219.2 1441.63 216 1423.83 212.6L1396.83 207.8C1383.63 205.4 1374.13 203.6 1368.33 202.4C1362.53 201 1355.93 198.9 1348.53 196.1C1341.33 193.3 1335.73 190.1 1331.73 186.5C1322.33 178.1 1317.63 166.4 1317.63 151.4C1317.63 129.2 1327.13 112.3 1346.13 100.7C1362.73 90.7 1385.03 85.7 1413.03 85.7C1442.03 85.7 1464.83 90.1 1481.43 98.9C1501.23 109.9 1511.13 126.8 1511.13 149.6H1463.73C1463.33 138.6 1457.93 130.4 1447.53 125C1439.53 120.8 1427.63 118.7 1411.83 118.7C1398.83 118.7 1388.33 120.7 1380.33 124.7C1369.73 130.1 1364.43 137.5 1364.43 146.9C1364.43 155.9 1369.83 162.5 1380.63 166.7C1385.63 168.9 1399.33 171.9 1421.73 175.7L1445.43 179.6C1470.83 184 1488.73 190 1499.13 197.6C1512.33 207.8 1518.93 222.1 1518.93 240.5C1518.93 265.5 1509.43 283.7 1490.43 295.1C1476.43 303.5 1454.33 307.7 1424.13 307.7C1390.53 307.7 1366.13 304.1 1350.93 296.9C1326.53 285.5 1314.33 265 1314.33 235.4V234.5Z"/>
</mask>
<path d="M47.4355 125V124H46.4355V125H47.4355ZM47.4355 186.5H46.4355V187.5H47.4355V186.5ZM142.536 179.9L143.027 180.771L143.03 180.769L142.536 179.9ZM143.436 131L142.854 131.814L142.891 131.84L142.93 131.863L143.436 131ZM138.936 128.6L138.488 129.494L138.535 129.518L138.584 129.536L138.936 128.6ZM133.536 126.8L133.732 125.819L133.732 125.819L133.536 126.8ZM128.436 125.9L128.119 126.849L128.205 126.877L128.294 126.89L128.436 125.9ZM123.036 125.3L122.953 126.297L122.994 126.3H123.036V125.3ZM0.935547 302H-0.0644529V303H0.935547V302ZM0.935547 92V91H-0.0644529V92H0.935547ZM185.736 108.2L185.085 108.959L185.085 108.959L185.736 108.2ZM160.836 201.8L160.622 200.823L159.836 200.995V201.8H160.836ZM160.836 202.7H159.836V203.526L160.647 203.682L160.836 202.7ZM185.136 215L184.405 215.683L184.417 215.695L184.428 215.707L185.136 215ZM192.036 225.8L191.101 226.156L191.104 226.164L191.107 226.171L192.036 225.8ZM194.736 234.8L193.741 234.9L193.745 234.948L193.755 234.996L194.736 234.8ZM195.936 245.9L196.933 245.832L196.933 245.826L195.936 245.9ZM197.736 272.3H198.736V272.266L198.733 272.232L197.736 272.3ZM198.036 277.4L197.039 277.477L197.039 277.477L198.036 277.4ZM198.336 282.5H197.336V282.623L197.365 282.743L198.336 282.5ZM199.236 287L200.219 286.821L200.219 286.821L199.236 287ZM200.436 292.1L199.487 292.416L199.509 292.484L199.541 292.547L200.436 292.1ZM202.836 296.6L203.71 296.114L203.71 296.114L202.836 296.6ZM206.436 302V303H208.48L207.225 301.386L206.436 302ZM156.936 302L156.104 302.555L156.4 303H156.936V302ZM148.836 275L147.837 275.046L147.838 275.067L147.839 275.087L148.836 275ZM147.936 255.5L148.934 255.454L148.933 255.432L148.931 255.409L147.936 255.5ZM142.536 232.7L143.386 232.174L143.377 232.159L143.368 232.145L142.536 232.7ZM137.136 226.7L136.493 227.466L136.502 227.474L136.511 227.481L137.136 226.7ZM47.4355 218.9V217.9H46.4355V218.9H47.4355ZM47.4355 302V303H48.4355V302H47.4355ZM46.4355 125V186.5H48.4355V125H46.4355ZM47.4355 187.5H112.836V185.5H47.4355V187.5ZM112.836 187.5C124.951 187.5 135.034 185.28 143.027 180.771L142.044 179.029C134.437 183.32 124.72 185.5 112.836 185.5V187.5ZM143.03 180.769C152.194 175.563 156.736 166.897 156.736 155H154.736C154.736 166.303 150.477 174.237 142.042 179.031L143.03 180.769ZM156.736 155C156.736 143.52 152.507 135.151 143.941 130.137L142.93 131.863C150.764 136.449 154.736 144.08 154.736 155H156.736ZM144.017 130.186C142.546 129.136 140.969 128.295 139.287 127.664L138.584 129.536C140.102 130.105 141.525 130.864 142.854 131.814L144.017 130.186ZM139.383 127.706C137.693 126.861 135.807 126.234 133.732 125.819L133.339 127.781C135.264 128.166 136.978 128.739 138.488 129.494L139.383 127.706ZM133.732 125.819C131.721 125.417 130.001 125.114 128.577 124.91L128.294 126.89C129.67 127.086 131.35 127.383 133.339 127.781L133.732 125.819ZM128.752 124.951C127.395 124.499 125.465 124.3 123.036 124.3V126.3C125.406 126.3 127.076 126.501 128.119 126.849L128.752 124.951ZM123.119 124.303C120.726 124.104 119.084 124 118.236 124V126C118.987 126 120.545 126.096 122.953 126.297L123.119 124.303ZM118.236 124C118.234 124 118.232 124 118.231 124C118.229 124 118.228 124 118.226 124C118.225 124 118.223 124 118.221 124C118.22 124 118.218 124 118.217 124C118.215 124 118.213 124 118.212 124C118.21 124 118.209 124 118.207 124C118.205 124 118.204 124 118.202 124C118.201 124 118.199 124 118.197 124C118.196 124 118.194 124 118.193 124C118.191 124 118.189 124 118.188 124C118.186 124 118.184 124 118.183 124C118.181 124 118.179 124 118.178 124C118.176 124 118.175 124 118.173 124C118.171 124 118.17 124 118.168 124C118.166 124 118.165 124 118.163 124C118.161 124 118.16 124 118.158 124C118.156 124 118.155 124 118.153 124C118.151 124 118.15 124 118.148 124C118.146 124 118.144 124 118.143 124C118.141 124 118.139 124 118.138 124C118.136 124 118.134 124 118.133 124C118.131 124 118.129 124 118.127 124C118.126 124 118.124 124 118.122 124C118.121 124 118.119 124 118.117 124C118.115 124 118.114 124 118.112 124C118.11 124 118.108 124 118.107 124C118.105 124 118.103 124 118.101 124C118.1 124 118.098 124 118.096 124C118.094 124 118.093 124 118.091 124C118.089 124 118.087 124 118.086 124C118.084 124 118.082 124 118.08 124C118.079 124 118.077 124 118.075 124C118.073 124 118.071 124 118.07 124C118.068 124 118.066 124 118.064 124C118.062 124 118.061 124 118.059 124C118.057 124 118.055 124 118.053 124C118.052 124 118.05 124 118.048 124C118.046 124 118.044 124 118.043 124C118.041 124 118.039 124 118.037 124C118.035 124 118.033 124 118.032 124C118.03 124 118.028 124 118.026 124C118.024 124 118.022 124 118.021 124C118.019 124 118.017 124 118.015 124C118.013 124 118.011 124 118.009 124C118.007 124 118.006 124 118.004 124C118.002 124 118 124 117.998 124C117.996 124 117.994 124 117.992 124C117.991 124 117.989 124 117.987 124C117.985 124 117.983 124 117.981 124C117.979 124 117.977 124 117.975 124C117.974 124 117.972 124 117.97 124C117.968 124 117.966 124 117.964 124C117.962 124 117.96 124 117.958 124C117.956 124 117.954 124 117.952 124C117.95 124 117.949 124 117.947 124C117.945 124 117.943 124 117.941 124C117.939 124 117.937 124 117.935 124C117.933 124 117.931 124 117.929 124C117.927 124 117.925 124 117.923 124C117.921 124 117.919 124 117.917 124C117.915 124 117.913 124 117.911 124C117.909 124 117.907 124 117.905 124C117.903 124 117.901 124 117.899 124C117.897 124 117.895 124 117.893 124C117.891 124 117.889 124 117.887 124C117.885 124 117.883 124 117.881 124C117.879 124 117.877 124 117.875 124C117.873 124 117.871 124 117.869 124C117.867 124 117.865 124 117.863 124C117.861 124 117.859 124 117.857 124C117.855 124 117.853 124 117.851 124C117.849 124 117.847 124 117.845 124C117.843 124 117.841 124 117.838 124C117.836 124 117.834 124 117.832 124C117.83 124 117.828 124 117.826 124C117.824 124 117.822 124 117.82 124C117.818 124 117.816 124 117.814 124C117.811 124 117.809 124 117.807 124C117.805 124 117.803 124 117.801 124C117.799 124 117.797 124 117.795 124C117.793 124 117.79 124 117.788 124C117.786 124 117.784 124 117.782 124C117.78 124 117.778 124 117.776 124C117.773 124 117.771 124 117.769 124C117.767 124 117.765 124 117.763 124C117.761 124 117.758 124 117.756 124C117.754 124 117.752 124 117.75 124C117.748 124 117.745 124 117.743 124C117.741 124 117.739 124 117.737 124C117.735 124 117.732 124 117.73 124C117.728 124 117.726 124 117.724 124C117.722 124 117.719 124 117.717 124C117.715 124 117.713 124 117.711 124C117.708 124 117.706 124 117.704 124C117.702 124 117.699 124 117.697 124C117.695 124 117.693 124 117.691 124C117.688 124 117.686 124 117.684 124C117.682 124 117.679 124 117.677 124C117.675 124 117.673 124 117.671 124C117.668 124 117.666 124 117.664 124C117.662 124 117.659 124 117.657 124C117.655 124 117.653 124 117.65 124C117.648 124 117.646 124 117.643 124C117.641 124 117.639 124 117.637 124C117.634 124 117.632 124 117.63 124C117.628 124 117.625 124 117.623 124C117.621 124 117.618 124 117.616 124C117.614 124 117.611 124 117.609 124C117.607 124 117.605 124 117.602 124C117.6 124 117.598 124 117.595 124C117.593 124 117.591 124 117.588 124C117.586 124 117.584 124 117.581 124C117.579 124 117.577 124 117.574 124C117.572 124 117.57 124 117.567 124C117.565 124 117.563 124 117.56 124C117.558 124 117.556 124 117.553 124C117.551 124 117.548 124 117.546 124C117.544 124 117.541 124 117.539 124C117.537 124 117.534 124 117.532 124C117.53 124 117.527 124 117.525 124C117.522 124 117.52 124 117.518 124C117.515 124 117.513 124 117.51 124C117.508 124 117.506 124 117.503 124C117.501 124 117.498 124 117.496 124C117.494 124 117.491 124 117.489 124C117.486 124 117.484 124 117.481 124C117.479 124 117.477 124 117.474 124C117.472 124 117.469 124 117.467 124C117.464 124 117.462 124 117.459 124C117.457 124 117.455 124 117.452 124C117.45 124 117.447 124 117.445 124C117.442 124 117.44 124 117.437 124C117.435 124 117.432 124 117.43 124C117.427 124 117.425 124 117.422 124C117.42 124 117.418 124 117.415 124C117.413 124 117.41 124 117.408 124C117.405 124 117.403 124 117.4 124C117.398 124 117.395 124 117.393 124C117.39 124 117.388 124 117.385 124C117.382 124 117.38 124 117.377 124C117.375 124 117.372 124 117.37 124C117.367 124 117.365 124 117.362 124C117.36 124 117.357 124 117.355 124C117.352 124 117.35 124 117.347 124C117.344 124 117.342 124 117.339 124C117.337 124 117.334 124 117.332 124C117.329 124 117.326 124 117.324 124C117.321 124 117.319 124 117.316 124C117.314 124 117.311 124 117.308 124C117.306 124 117.303 124 117.301 124C117.298 124 117.295 124 117.293 124C117.29 124 117.288 124 117.285 124C117.282 124 117.28 124 117.277 124C117.275 124 117.272 124 117.269 124C117.267 124 117.264 124 117.262 124C117.259 124 117.256 124 117.254 124C117.251 124 117.248 124 117.246 124C117.243 124 117.24 124 117.238 124C117.235 124 117.233 124 117.23 124C117.227 124 117.225 124 117.222 124C117.219 124 117.217 124 117.214 124C117.211 124 117.209 124 117.206 124C117.203 124 117.201 124 117.198 124C117.195 124 117.192 124 117.19 124C117.187 124 117.184 124 117.182 124C117.179 124 117.176 124 117.174 124C117.171 124 117.168 124 117.165 124C117.163 124 117.16 124 117.157 124C117.155 124 117.152 124 117.149 124C117.146 124 117.144 124 117.141 124C117.138 124 117.136 124 117.133 124C117.13 124 117.127 124 117.125 124C117.122 124 117.119 124 117.116 124C117.114 124 117.111 124 117.108 124C117.105 124 117.103 124 117.1 124C117.097 124 117.094 124 117.092 124C117.089 124 117.086 124 117.083 124C117.08 124 117.078 124 117.075 124C117.072 124 117.069 124 117.066 124C117.064 124 117.061 124 117.058 124C117.055 124 117.052 124 117.05 124C117.047 124 117.044 124 117.041 124C117.038 124 117.036 124 117.033 124C117.03 124 117.027 124 117.024 124C117.022 124 117.019 124 117.016 124C117.013 124 117.01 124 117.007 124C117.005 124 117.002 124 116.999 124C116.996 124 116.993 124 116.99 124C116.987 124 116.985 124 116.982 124C116.979 124 116.976 124 116.973 124C116.97 124 116.967 124 116.964 124C116.962 124 116.959 124 116.956 124C116.953 124 116.95 124 116.947 124C116.944 124 116.941 124 116.939 124C116.936 124 116.933 124 116.93 124C116.927 124 116.924 124 116.921 124C116.918 124 116.915 124 116.912 124C116.909 124 116.907 124 116.904 124C116.901 124 116.898 124 116.895 124C116.892 124 116.889 124 116.886 124C116.883 124 116.88 124 116.877 124C116.874 124 116.871 124 116.868 124C116.865 124 116.863 124 116.86 124C116.857 124 116.854 124 116.851 124C116.848 124 116.845 124 116.842 124C116.839 124 116.836 124 116.833 124C116.83 124 116.827 124 116.824 124C116.821 124 116.818 124 116.815 124C116.812 124 116.809 124 116.806 124C116.803 124 116.8 124 116.797 124C116.794 124 116.791 124 116.788 124C116.785 124 116.782 124 116.779 124C116.776 124 116.773 124 116.77 124C116.767 124 116.764 124 116.761 124C116.758 124 116.755 124 116.752 124C116.749 124 116.746 124 116.743 124C116.739 124 116.736 124 116.733 124C116.73 124 116.727 124 116.724 124C116.721 124 116.718 124 116.715 124C116.712 124 116.709 124 116.706 124C116.703 124 116.7 124 116.697 124C116.693 124 116.69 124 116.687 124C116.684 124 116.681 124 116.678 124C116.675 124 116.672 124 116.669 124C116.666 124 116.663 124 116.659 124C116.656 124 116.653 124 116.65 124C116.647 124 116.644 124 116.641 124C116.638 124 116.635 124 116.631 124C116.628 124 116.625 124 116.622 124C116.619 124 116.616 124 116.613 124C116.609 124 116.606 124 116.603 124C116.6 124 116.597 124 116.594 124C116.591 124 116.587 124 116.584 124C116.581 124 116.578 124 116.575 124C116.572 124 116.568 124 116.565 124C116.562 124 116.559 124 116.556 124C116.552 124 116.549 124 116.546 124C116.543 124 116.54 124 116.537 124C116.533 124 116.53 124 116.527 124C116.524 124 116.521 124 116.517 124C116.514 124 116.511 124 116.508 124C116.504 124 116.501 124 116.498 124C116.495 124 116.492 124 116.488 124C116.485 124 116.482 124 116.479 124C116.475 124 116.472 124 116.469 124C116.466 124 116.462 124 116.459 124C116.456 124 116.453 124 116.449 124C116.446 124 116.443 124 116.44 124C116.436 124 116.433 124 116.43 124C116.427 124 116.423 124 116.42 124C116.417 124 116.413 124 116.41 124C116.407 124 116.404 124 116.4 124C116.397 124 116.394 124 116.39 124C116.387 124 116.384 124 116.38 124C116.377 124 116.374 124 116.371 124C116.367 124 116.364 124 116.361 124C116.357 124 116.354 124 116.351 124C116.347 124 116.344 124 116.341 124C116.337 124 116.334 124 116.331 124C116.327 124 116.324 124 116.321 124C116.317 124 116.314 124 116.31 124C116.307 124 116.304 124 116.3 124C116.297 124 116.294 124 116.29 124C116.287 124 116.284 124 116.28 124C116.277 124 116.273 124 116.27 124C116.267 124 116.263 124 116.26 124C116.257 124 116.253 124 116.25 124C116.246 124 116.243 124 116.24 124C116.236 124 116.233 124 116.229 124C116.226 124 116.222 124 116.219 124C116.216 124 116.212 124 116.209 124C116.205 124 116.202 124 116.199 124C116.195 124 116.192 124 116.188 124C116.185 124 116.181 124 116.178 124C116.174 124 116.171 124 116.168 124C116.164 124 116.161 124 116.157 124C116.154 124 116.15 124 116.147 124C116.143 124 116.14 124 116.136 124C116.133 124 116.129 124 116.126 124C116.123 124 116.119 124 116.116 124C116.112 124 116.109 124 116.105 124C116.102 124 116.098 124 116.095 124C116.091 124 116.088 124 116.084 124C116.081 124 116.077 124 116.074 124C116.07 124 116.067 124 116.063 124C116.06 124 116.056 124 116.052 124C116.049 124 116.045 124 116.042 124C116.038 124 116.035 124 116.031 124C116.028 124 116.024 124 116.021 124C116.017 124 116.014 124 116.01 124C116.006 124 116.003 124 115.999 124C115.996 124 115.992 124 115.989 124C115.985 124 115.981 124 115.978 124C115.974 124 115.971 124 115.967 124C115.964 124 115.96 124 115.956 124C115.953 124 115.949 124 115.946 124C115.942 124 115.938 124 115.935 124C115.931 124 115.928 124 115.924 124C115.92 124 115.917 124 115.913 124C115.91 124 115.906 124 115.902 124C115.899 124 115.895 124 115.891 124C115.888 124 115.884 124 115.881 124C115.877 124 115.873 124 115.87 124C115.866 124 115.862 124 115.859 124C115.855 124 115.851 124 115.848 124C115.844 124 115.84 124 115.837 124C115.833 124 115.829 124 115.826 124C115.822 124 115.818 124 115.815 124C115.811 124 115.807 124 115.804 124C115.8 124 115.796 124 115.793 124C115.789 124 115.785 124 115.782 124C115.778 124 115.774 124 115.77 124C115.767 124 115.763 124 115.759 124C115.756 124 115.752 124 115.748 124C115.744 124 115.741 124 115.737 124C115.733 124 115.73 124 115.726 124C115.722 124 115.718 124 115.715 124C115.711 124 115.707 124 115.703 124C115.7 124 115.696 124 115.692 124C115.688 124 115.685 124 115.681 124C115.677 124 115.673 124 115.67 124C115.666 124 115.662 124 115.658 124C115.654 124 115.651 124 115.647 124C115.643 124 115.639 124 115.636 124C115.632 124 115.628 124 115.624 124C115.62 124 115.617 124 115.613 124C115.609 124 115.605 124 115.601 124C115.598 124 115.594 124 115.59 124C115.586 124 115.582 124 115.579 124C115.575 124 115.571 124 115.567 124C115.563 124 115.559 124 115.556 124C115.552 124 115.548 124 115.544 124C115.54 124 115.536 124 115.532 124C115.529 124 115.525 124 115.521 124C115.517 124 115.513 124 115.509 124C115.505 124 115.502 124 115.498 124C115.494 124 115.49 124 115.486 124C115.482 124 115.478 124 115.475 124C115.471 124 115.467 124 115.463 124C115.459 124 115.455 124 115.451 124C115.447 124 115.443 124 115.439 124C115.436 124 115.432 124 115.428 124C115.424 124 115.42 124 115.416 124C115.412 124 115.408 124 115.404 124C115.4 124 115.396 124 115.392 124C115.389 124 115.385 124 115.381 124C115.377 124 115.373 124 115.369 124C115.365 124 115.361 124 115.357 124C115.353 124 115.349 124 115.345 124C115.341 124 115.337 124 115.333 124C115.329 124 115.325 124 115.321 124C115.317 124 115.313 124 115.309 124C115.305 124 115.301 124 115.297 124C115.293 124 115.289 124 115.285 124C115.281 124 115.277 124 115.273 124C115.269 124 115.265 124 115.261 124C115.257 124 115.253 124 115.249 124C115.245 124 115.241 124 115.237 124C115.233 124 115.229 124 115.225 124C115.221 124 115.217 124 115.213 124C115.209 124 115.205 124 115.201 124C115.197 124 115.193 124 115.189 124C115.185 124 115.181 124 115.177 124C115.173 124 115.169 124 115.165 124C115.161 124 115.157 124 115.152 124C115.148 124 115.144 124 115.14 124C115.136 124 115.132 124 115.128 124C115.124 124 115.12 124 115.116 124C115.112 124 115.108 124 115.103 124C115.099 124 115.095 124 115.091 124C115.087 124 115.083 124 115.079 124C115.075 124 115.071 124 115.066 124C115.062 124 115.058 124 115.054 124C115.05 124 115.046 124 115.042 124C115.038 124 115.033 124 115.029 124C115.025 124 115.021 124 115.017 124C115.013 124 115.009 124 115.004 124C115 124 114.996 124 114.992 124C114.988 124 114.984 124 114.98 124C114.975 124 114.971 124 114.967 124C114.963 124 114.959 124 114.955 124C114.95 124 114.946 124 114.942 124C114.938 124 114.934 124 114.929 124C114.925 124 114.921 124 114.917 124C114.913 124 114.908 124 114.904 124C114.9 124 114.896 124 114.892 124C114.887 124 114.883 124 114.879 124C114.875 124 114.87 124 114.866 124C114.862 124 114.858 124 114.854 124C114.849 124 114.845 124 114.841 124C114.837 124 114.832 124 114.828 124C114.824 124 114.82 124 114.815 124C114.811 124 114.807 124 114.803 124C114.798 124 114.794 124 114.79 124C114.786 124 114.781 124 114.777 124C114.773 124 114.768 124 114.764 124C114.76 124 114.756 124 114.751 124C114.747 124 114.743 124 114.738 124C114.734 124 114.73 124 114.726 124C114.721 124 114.717 124 114.713 124C114.708 124 114.704 124 114.7 124C114.695 124 114.691 124 114.687 124C114.682 124 114.678 124 114.674 124C114.669 124 114.665 124 114.661 124C114.656 124 114.652 124 114.648 124C114.643 124 114.639 124 114.635 124C114.63 124 114.626 124 114.622 124C114.617 124 114.613 124 114.609 124C114.604 124 114.6 124 114.595 124C114.591 124 114.587 124 114.582 124C114.578 124 114.574 124 114.569 124C114.565 124 114.56 124 114.556 124C114.552 124 114.547 124 114.543 124C114.538 124 114.534 124 114.53 124C114.525 124 114.521 124 114.516 124C114.512 124 114.508 124 114.503 124C114.499 124 114.494 124 114.49 124C114.485 124 114.481 124 114.477 124C114.472 124 114.468 124 114.463 124C114.459 124 114.454 124 114.45 124C114.445 124 114.441 124 114.437 124C114.432 124 114.428 124 114.423 124C114.419 124 114.414 124 114.41 124C114.405 124 114.401 124 114.396 124C114.392 124 114.387 124 114.383 124C114.379 124 114.374 124 114.37 124C114.365 124 114.361 124 114.356 124C114.352 124 114.347 124 114.343 124C114.338 124 114.334 124 114.329 124C114.325 124 114.32 124 114.316 124C114.311 124 114.306 124 114.302 124C114.297 124 114.293 124 114.288 124C114.284 124 114.279 124 114.275 124C114.27 124 114.266 124 114.261 124C114.257 124 114.252 124 114.248 124C114.243 124 114.238 124 114.234 124C114.229 124 114.225 124 114.22 124C114.216 124 114.211 124 114.206 124C114.202 124 114.197 124 114.193 124C114.188 124 114.184 124 114.179 124C114.174 124 114.17 124 114.165 124C114.161 124 114.156 124 114.151 124C114.147 124 114.142 124 114.138 124C114.133 124 114.128 124 114.124 124C114.119 124 114.115 124 114.11 124C114.105 124 114.101 124 114.096 124C114.092 124 114.087 124 114.082 124C114.078 124 114.073 124 114.068 124C114.064 124 114.059 124 114.054 124C114.05 124 114.045 124 114.04 124C114.036 124 114.031 124 114.027 124C114.022 124 114.017 124 114.013 124C114.008 124 114.003 124 113.999 124C113.994 124 113.989 124 113.984 124C113.98 124 113.975 124 113.97 124C113.966 124 113.961 124 113.956 124C113.952 124 113.947 124 113.942 124C113.938 124 113.933 124 113.928 124C113.923 124 113.919 124 113.914 124C113.909 124 113.905 124 113.9 124C113.895 124 113.89 124 113.886 124C113.881 124 113.876 124 113.872 124C113.867 124 113.862 124 113.857 124C113.853 124 113.848 124 113.843 124C113.838 124 113.834 124 113.829 124C113.824 124 113.819 124 113.815 124C113.81 124 113.805 124 113.8 124C113.795 124 113.791 124 113.786 124C113.781 124 113.776 124 113.772 124C113.767 124 113.762 124 113.757 124C113.752 124 113.748 124 113.743 124C113.738 124 113.733 124 113.728 124C113.724 124 113.719 124 113.714 124C113.709 124 113.704 124 113.7 124C113.695 124 113.69 124 113.685 124C113.68 124 113.675 124 113.671 124C113.666 124 113.661 124 113.656 124C113.651 124 113.646 124 113.642 124C113.637 124 113.632 124 113.627 124C113.622 124 113.617 124 113.613 124C113.608 124 113.603 124 113.598 124C113.593 124 113.588 124 113.583 124C113.578 124 113.574 124 113.569 124C113.564 124 113.559 124 113.554 124C113.549 124 113.544 124 113.539 124C113.534 124 113.53 124 113.525 124C113.52 124 113.515 124 113.51 124C113.505 124 113.5 124 113.495 124C113.49 124 113.485 124 113.48 124C113.476 124 113.471 124 113.466 124C113.461 124 113.456 124 113.451 124C113.446 124 113.441 124 113.436 124C113.431 124 113.426 124 113.421 124C113.416 124 113.411 124 113.406 124C113.401 124 113.397 124 113.392 124C113.387 124 113.382 124 113.377 124C113.372 124 113.367 124 113.362 124C113.357 124 113.352 124 113.347 124C113.342 124 113.337 124 113.332 124C113.327 124 113.322 124 113.317 124C113.312 124 113.307 124 113.302 124C113.297 124 113.292 124 113.287 124C113.282 124 113.277 124 113.272 124C113.267 124 113.262 124 113.257 124C113.252 124 113.247 124 113.242 124C113.237 124 113.232 124 113.227 124C113.222 124 113.217 124 113.211 124C113.206 124 113.201 124 113.196 124C113.191 124 113.186 124 113.181 124C113.176 124 113.171 124 113.166 124C113.161 124 113.156 124 113.151 124C113.146 124 113.141 124 113.136 124V126C113.141 126 113.146 126 113.151 126C113.156 126 113.161 126 113.166 126C113.171 126 113.176 126 113.181 126C113.186 126 113.191 126 113.196 126C113.201 126 113.206 126 113.211 126C113.217 126 113.222 126 113.227 126C113.232 126 113.237 126 113.242 126C113.247 126 113.252 126 113.257 126C113.262 126 113.267 126 113.272 126C113.277 126 113.282 126 113.287 126C113.292 126 113.297 126 113.302 126C113.307 126 113.312 126 113.317 126C113.322 126 113.327 126 113.332 126C113.337 126 113.342 126 113.347 126C113.352 126 113.357 126 113.362 126C113.367 126 113.372 126 113.377 126C113.382 126 113.387 126 113.392 126C113.397 126 113.401 126 113.406 126C113.411 126 113.416 126 113.421 126C113.426 126 113.431 126 113.436 126C113.441 126 113.446 126 113.451 126C113.456 126 113.461 126 113.466 126C113.471 126 113.476 126 113.48 126C113.485 126 113.49 126 113.495 126C113.5 126 113.505 126 113.51 126C113.515 126 113.52 126 113.525 126C113.53 126 113.534 126 113.539 126C113.544 126 113.549 126 113.554 126C113.559 126 113.564 126 113.569 126C113.574 126 113.578 126 113.583 126C113.588 126 113.593 126 113.598 126C113.603 126 113.608 126 113.613 126C113.617 126 113.622 126 113.627 126C113.632 126 113.637 126 113.642 126C113.646 126 113.651 126 113.656 126C113.661 126 113.666 126 113.671 126C113.675 126 113.68 126 113.685 126C113.69 126 113.695 126 113.7 126C113.704 126 113.709 126 113.714 126C113.719 126 113.724 126 113.728 126C113.733 126 113.738 126 113.743 126C113.748 126 113.752 126 113.757 126C113.762 126 113.767 126 113.772 126C113.776 126 113.781 126 113.786 126C113.791 126 113.795 126 113.8 126C113.805 126 113.81 126 113.815 126C113.819 126 113.824 126 113.829 126C113.834 126 113.838 126 113.843 126C113.848 126 113.853 126 113.857 126C113.862 126 113.867 126 113.872 126C113.876 126 113.881 126 113.886 126C113.89 126 113.895 126 113.9 126C113.905 126 113.909 126 113.914 126C113.919 126 113.923 126 113.928 126C113.933 126 113.938 126 113.942 126C113.947 126 113.952 126 113.956 126C113.961 126 113.966 126 113.97 126C113.975 126 113.98 126 113.984 126C113.989 126 113.994 126 113.999 126C114.003 126 114.008 126 114.013 126C114.017 126 114.022 126 114.027 126C114.031 126 114.036 126 114.04 126C114.045 126 114.05 126 114.054 126C114.059 126 114.064 126 114.068 126C114.073 126 114.078 126 114.082 126C114.087 126 114.092 126 114.096 126C114.101 126 114.105 126 114.11 126C114.115 126 114.119 126 114.124 126C114.128 126 114.133 126 114.138 126C114.142 126 114.147 126 114.151 126C114.156 126 114.161 126 114.165 126C114.17 126 114.174 126 114.179 126C114.184 126 114.188 126 114.193 126C114.197 126 114.202 126 114.206 126C114.211 126 114.216 126 114.22 126C114.225 126 114.229 126 114.234 126C114.238 126 114.243 126 114.248 126C114.252 126 114.257 126 114.261 126C114.266 126 114.27 126 114.275 126C114.279 126 114.284 126 114.288 126C114.293 126 114.297 126 114.302 126C114.306 126 114.311 126 114.316 126C114.32 126 114.325 126 114.329 126C114.334 126 114.338 126 114.343 126C114.347 126 114.352 126 114.356 126C114.361 126 114.365 126 114.37 126C114.374 126 114.379 126 114.383 126C114.387 126 114.392 126 114.396 126C114.401 126 114.405 126 114.41 126C114.414 126 114.419 126 114.423 126C114.428 126 114.432 126 114.437 126C114.441 126 114.445 126 114.45 126C114.454 126 114.459 126 114.463 126C114.468 126 114.472 126 114.477 126C114.481 126 114.485 126 114.49 126C114.494 126 114.499 126 114.503 126C114.508 126 114.512 126 114.516 126C114.521 126 114.525 126 114.53 126C114.534 126 114.538 126 114.543 126C114.547 126 114.552 126 114.556 126C114.56 126 114.565 126 114.569 126C114.574 126 114.578 126 114.582 126C114.587 126 114.591 126 114.595 126C114.6 126 114.604 126 114.609 126C114.613 126 114.617 126 114.622 126C114.626 126 114.63 126 114.635 126C114.639 126 114.643 126 114.648 126C114.652 126 114.656 126 114.661 126C114.665 126 114.669 126 114.674 126C114.678 126 114.682 126 114.687 126C114.691 126 114.695 126 114.7 126C114.704 126 114.708 126 114.713 126C114.717 126 114.721 126 114.726 126C114.73 126 114.734 126 114.738 126C114.743 126 114.747 126 114.751 126C114.756 126 114.76 126 114.764 126C114.768 126 114.773 126 114.777 126C114.781 126 114.786 126 114.79 126C114.794 126 114.798 126 114.803 126C114.807 126 114.811 126 114.815 126C114.82 126 114.824 126 114.828 126C114.832 126 114.837 126 114.841 126C114.845 126 114.849 126 114.854 126C114.858 126 114.862 126 114.866 126C114.87 126 114.875 126 114.879 126C114.883 126 114.887 126 114.892 126C114.896 126 114.9 126 114.904 126C114.908 126 114.913 126 114.917 126C114.921 126 114.925 126 114.929 126C114.934 126 114.938 126 114.942 126C114.946 126 114.95 126 114.955 126C114.959 126 114.963 126 114.967 126C114.971 126 114.975 126 114.98 126C114.984 126 114.988 126 114.992 126C114.996 126 115 126 115.004 126C115.009 126 115.013 126 115.017 126C115.021 126 115.025 126 115.029 126C115.033 126 115.038 126 115.042 126C115.046 126 115.05 126 115.054 126C115.058 126 115.062 126 115.066 126C115.071 126 115.075 126 115.079 126C115.083 126 115.087 126 115.091 126C115.095 126 115.099 126 115.103 126C115.108 126 115.112 126 115.116 126C115.12 126 115.124 126 115.128 126C115.132 126 115.136 126 115.14 126C115.144 126 115.148 126 115.152 126C115.157 126 115.161 126 115.165 126C115.169 126 115.173 126 115.177 126C115.181 126 115.185 126 115.189 126C115.193 126 115.197 126 115.201 126C115.205 126 115.209 126 115.213 126C115.217 126 115.221 126 115.225 126C115.229 126 115.233 126 115.237 126C115.241 126 115.245 126 115.249 126C115.253 126 115.257 126 115.261 126C115.265 126 115.269 126 115.273 126C115.277 126 115.281 126 115.285 126C115.289 126 115.293 126 115.297 126C115.301 126 115.305 126 115.309 126C115.313 126 115.317 126 115.321 126C115.325 126 115.329 126 115.333 126C115.337 126 115.341 126 115.345 126C115.349 126 115.353 126 115.357 126C115.361 126 115.365 126 115.369 126C115.373 126 115.377 126 115.381 126C115.385 126 115.389 126 115.392 126C115.396 126 115.4 126 115.404 126C115.408 126 115.412 126 115.416 126C115.42 126 115.424 126 115.428 126C115.432 126 115.436 126 115.439 126C115.443 126 115.447 126 115.451 126C115.455 126 115.459 126 115.463 126C115.467 126 115.471 126 115.475 126C115.478 126 115.482 126 115.486 126C115.49 126 115.494 126 115.498 126C115.502 126 115.505 126 115.509 126C115.513 126 115.517 126 115.521 126C115.525 126 115.529 126 115.532 126C115.536 126 115.54 126 115.544 126C115.548 126 115.552 126 115.556 126C115.559 126 115.563 126 115.567 126C115.571 126 115.575 126 115.579 126C115.582 126 115.586 126 115.59 126C115.594 126 115.598 126 115.601 126C115.605 126 115.609 126 115.613 126C115.617 126 115.62 126 115.624 126C115.628 126 115.632 126 115.636 126C115.639 126 115.643 126 115.647 126C115.651 126 115.654 126 115.658 126C115.662 126 115.666 126 115.67 126C115.673 126 115.677 126 115.681 126C115.685 126 115.688 126 115.692 126C115.696 126 115.7 126 115.703 126C115.707 126 115.711 126 115.715 126C115.718 126 115.722 126 115.726 126C115.73 126 115.733 126 115.737 126C115.741 126 115.744 126 115.748 126C115.752 126 115.756 126 115.759 126C115.763 126 115.767 126 115.77 126C115.774 126 115.778 126 115.782 126C115.785 126 115.789 126 115.793 126C115.796 126 115.8 126 115.804 126C115.807 126 115.811 126 115.815 126C115.818 126 115.822 126 115.826 126C115.829 126 115.833 126 115.837 126C115.84 126 115.844 126 115.848 126C115.851 126 115.855 126 115.859 126C115.862 126 115.866 126 115.87 126C115.873 126 115.877 126 115.881 126C115.884 126 115.888 126 115.891 126C115.895 126 115.899 126 115.902 126C115.906 126 115.91 126 115.913 126C115.917 126 115.92 126 115.924 126C115.928 126 115.931 126 115.935 126C115.938 126 115.942 126 115.946 126C115.949 126 115.953 126 115.956 126C115.96 126 115.964 126 115.967 126C115.971 126 115.974 126 115.978 126C115.981 126 115.985 126 115.989 126C115.992 126 115.996 126 115.999 126C116.003 126 116.006 126 116.01 126C116.014 126 116.017 126 116.021 126C116.024 126 116.028 126 116.031 126C116.035 126 116.038 126 116.042 126C116.045 126 116.049 126 116.052 126C116.056 126 116.06 126 116.063 126C116.067 126 116.07 126 116.074 126C116.077 126 116.081 126 116.084 126C116.088 126 116.091 126 116.095 126C116.098 126 116.102 126 116.105 126C116.109 126 116.112 126 116.116 126C116.119 126 116.123 126 116.126 126C116.129 126 116.133 126 116.136 126C116.14 126 116.143 126 116.147 126C116.15 126 116.154 126 116.157 126C116.161 126 116.164 126 116.168 126C116.171 126 116.174 126 116.178 126C116.181 126 116.185 126 116.188 126C116.192 126 116.195 126 116.199 126C116.202 126 116.205 126 116.209 126C116.212 126 116.216 126 116.219 126C116.222 126 116.226 126 116.229 126C116.233 126 116.236 126 116.24 126C116.243 126 116.246 126 116.25 126C116.253 126 116.257 126 116.26 126C116.263 126 116.267 126 116.27 126C116.273 126 116.277 126 116.28 126C116.284 126 116.287 126 116.29 126C116.294 126 116.297 126 116.3 126C116.304 126 116.307 126 116.31 126C116.314 126 116.317 126 116.321 126C116.324 126 116.327 126 116.331 126C116.334 126 116.337 126 116.341 126C116.344 126 116.347 126 116.351 126C116.354 126 116.357 126 116.361 126C116.364 126 116.367 126 116.371 126C116.374 126 116.377 126 116.38 126C116.384 126 116.387 126 116.39 126C116.394 126 116.397 126 116.4 126C116.404 126 116.407 126 116.41 126C116.413 126 116.417 126 116.42 126C116.423 126 116.427 126 116.43 126C116.433 126 116.436 126 116.44 126C116.443 126 116.446 126 116.449 126C116.453 126 116.456 126 116.459 126C116.462 126 116.466 126 116.469 126C116.472 126 116.475 126 116.479 126C116.482 126 116.485 126 116.488 126C116.492 126 116.495 126 116.498 126C116.501 126 116.504 126 116.508 126C116.511 126 116.514 126 116.517 126C116.521 126 116.524 126 116.527 126C116.53 126 116.533 126 116.537 126C116.54 126 116.543 126 116.546 126C116.549 126 116.552 126 116.556 126C116.559 126 116.562 126 116.565 126C116.568 126 116.572 126 116.575 126C116.578 126 116.581 126 116.584 126C116.587 126 116.591 126 116.594 126C116.597 126 116.6 126 116.603 126C116.606 126 116.609 126 116.613 126C116.616 126 116.619 126 116.622 126C116.625 126 116.628 126 116.631 126C116.635 126 116.638 126 116.641 126C116.644 126 116.647 126 116.65 126C116.653 126 116.656 126 116.659 126C116.663 126 116.666 126 116.669 126C116.672 126 116.675 126 116.678 126C116.681 126 116.684 126 116.687 126C116.69 126 116.693 126 116.697 126C116.7 126 116.703 126 116.706 126C116.709 126 116.712 126 116.715 126C116.718 126 116.721 126 116.724 126C116.727 126 116.73 126 116.733 126C116.736 126 116.739 126 116.743 126C116.746 126 116.749 126 116.752 126C116.755 126 116.758 126 116.761 126C116.764 126 116.767 126 116.77 126C116.773 126 116.776 126 116.779 126C116.782 126 116.785 126 116.788 126C116.791 126 116.794 126 116.797 126C116.8 126 116.803 126 116.806 126C116.809 126 116.812 126 116.815 126C116.818 126 116.821 126 116.824 126C116.827 126 116.83 126 116.833 126C116.836 126 116.839 126 116.842 126C116.845 126 116.848 126 116.851 126C116.854 126 116.857 126 116.86 126C116.863 126 116.865 126 116.868 126C116.871 126 116.874 126 116.877 126C116.88 126 116.883 126 116.886 126C116.889 126 116.892 126 116.895 126C116.898 126 116.901 126 116.904 126C116.907 126 116.909 126 116.912 126C116.915 126 116.918 126 116.921 126C116.924 126 116.927 126 116.93 126C116.933 126 116.936 126 116.939 126C116.941 126 116.944 126 116.947 126C116.95 126 116.953 126 116.956 126C116.959 126 116.962 126 116.964 126C116.967 126 116.97 126 116.973 126C116.976 126 116.979 126 116.982 126C116.985 126 116.987 126 116.99 126C116.993 126 116.996 126 116.999 126C117.002 126 117.005 126 117.007 126C117.01 126 117.013 126 117.016 126C117.019 126 117.022 126 117.024 126C117.027 126 117.03 126 117.033 126C117.036 126 117.038 126 117.041 126C117.044 126 117.047 126 117.05 126C117.052 126 117.055 126 117.058 126C117.061 126 117.064 126 117.066 126C117.069 126 117.072 126 117.075 126C117.078 126 117.08 126 117.083 126C117.086 126 117.089 126 117.092 126C117.094 126 117.097 126 117.1 126C117.103 126 117.105 126 117.108 126C117.111 126 117.114 126 117.116 126C117.119 126 117.122 126 117.125 126C117.127 126 117.13 126 117.133 126C117.136 126 117.138 126 117.141 126C117.144 126 117.146 126 117.149 126C117.152 126 117.155 126 117.157 126C117.16 126 117.163 126 117.165 126C117.168 126 117.171 126 117.174 126C117.176 126 117.179 126 117.182 126C117.184 126 117.187 126 117.19 126C117.192 126 117.195 126 117.198 126C117.201 126 117.203 126 117.206 126C117.209 126 117.211 126 117.214 126C117.217 126 117.219 126 117.222 126C117.225 126 117.227 126 117.23 126C117.233 126 117.235 126 117.238 126C117.24 126 117.243 126 117.246 126C117.248 126 117.251 126 117.254 126C117.256 126 117.259 126 117.262 126C117.264 126 117.267 126 117.269 126C117.272 126 117.275 126 117.277 126C117.28 126 117.282 126 117.285 126C117.288 126 117.29 126 117.293 126C117.295 126 117.298 126 117.301 126C117.303 126 117.306 126 117.308 126C117.311 126 117.314 126 117.316 126C117.319 126 117.321 126 117.324 126C117.326 126 117.329 126 117.332 126C117.334 126 117.337 126 117.339 126C117.342 126 117.344 126 117.347 126C117.35 126 117.352 126 117.355 126C117.357 126 117.36 126 117.362 126C117.365 126 117.367 126 117.37 126C117.372 126 117.375 126 117.377 126C117.38 126 117.382 126 117.385 126C117.388 126 117.39 126 117.393 126C117.395 126 117.398 126 117.4 126C117.403 126 117.405 126 117.408 126C117.41 126 117.413 126 117.415 126C117.418 126 117.42 126 117.422 126C117.425 126 117.427 126 117.43 126C117.432 126 117.435 126 117.437 126C117.44 126 117.442 126 117.445 126C117.447 126 117.45 126 117.452 126C117.455 126 117.457 126 117.459 126C117.462 126 117.464 126 117.467 126C117.469 126 117.472 126 117.474 126C117.477 126 117.479 126 117.481 126C117.484 126 117.486 126 117.489 126C117.491 126 117.494 126 117.496 126C117.498 126 117.501 126 117.503 126C117.506 126 117.508 126 117.51 126C117.513 126 117.515 126 117.518 126C117.52 126 117.522 126 117.525 126C117.527 126 117.53 126 117.532 126C117.534 126 117.537 126 117.539 126C117.541 126 117.544 126 117.546 126C117.548 126 117.551 126 117.553 126C117.556 126 117.558 126 117.56 126C117.563 126 117.565 126 117.567 126C117.57 126 117.572 126 117.574 126C117.577 126 117.579 126 117.581 126C117.584 126 117.586 126 117.588 126C117.591 126 117.593 126 117.595 126C117.598 126 117.6 126 117.602 126C117.605 126 117.607 126 117.609 126C117.611 126 117.614 126 117.616 126C117.618 126 117.621 126 117.623 126C117.625 126 117.628 126 117.63 126C117.632 126 117.634 126 117.637 126C117.639 126 117.641 126 117.643 126C117.646 126 117.648 126 117.65 126C117.653 126 117.655 126 117.657 126C117.659 126 117.662 126 117.664 126C117.666 126 117.668 126 117.671 126C117.673 126 117.675 126 117.677 126C117.679 126 117.682 126 117.684 126C117.686 126 117.688 126 117.691 126C117.693 126 117.695 126 117.697 126C117.699 126 117.702 126 117.704 126C117.706 126 117.708 126 117.711 126C117.713 126 117.715 126 117.717 126C117.719 126 117.722 126 117.724 126C117.726 126 117.728 126 117.73 126C117.732 126 117.735 126 117.737 126C117.739 126 117.741 126 117.743 126C117.745 126 117.748 126 117.75 126C117.752 126 117.754 126 117.756 126C117.758 126 117.761 126 117.763 126C117.765 126 117.767 126 117.769 126C117.771 126 117.773 126 117.776 126C117.778 126 117.78 126 117.782 126C117.784 126 117.786 126 117.788 126C117.79 126 117.793 126 117.795 126C117.797 126 117.799 126 117.801 126C117.803 126 117.805 126 117.807 126C117.809 126 117.811 126 117.814 126C117.816 126 117.818 126 117.82 126C117.822 126 117.824 126 117.826 126C117.828 126 117.83 126 117.832 126C117.834 126 117.836 126 117.838 126C117.841 126 117.843 126 117.845 126C117.847 126 117.849 126 117.851 126C117.853 126 117.855 126 117.857 126C117.859 126 117.861 126 117.863 126C117.865 126 117.867 126 117.869 126C117.871 126 117.873 126 117.875 126C117.877 126 117.879 126 117.881 126C117.883 126 117.885 126 117.887 126C117.889 126 117.891 126 117.893 126C117.895 126 117.897 126 117.899 126C117.901 126 117.903 126 117.905 126C117.907 126 117.909 126 117.911 126C117.913 126 117.915 126 117.917 126C117.919 126 117.921 126 117.923 126C117.925 126 117.927 126 117.929 126C117.931 126 117.933 126 117.935 126C117.937 126 117.939 126 117.941 126C117.943 126 117.945 126 117.947 126C117.949 126 117.95 126 117.952 126C117.954 126 117.956 126 117.958 126C117.96 126 117.962 126 117.964 126C117.966 126 117.968 126 117.97 126C117.972 126 117.974 126 117.975 126C117.977 126 117.979 126 117.981 126C117.983 126 117.985 126 117.987 126C117.989 126 117.991 126 117.992 126C117.994 126 117.996 126 117.998 126C118 126 118.002 126 118.004 126C118.006 126 118.007 126 118.009 126C118.011 126 118.013 126 118.015 126C118.017 126 118.019 126 118.021 126C118.022 126 118.024 126 118.026 126C118.028 126 118.03 126 118.032 126C118.033 126 118.035 126 118.037 126C118.039 126 118.041 126 118.043 126C118.044 126 118.046 126 118.048 126C118.05 126 118.052 126 118.053 126C118.055 126 118.057 126 118.059 126C118.061 126 118.062 126 118.064 126C118.066 126 118.068 126 118.07 126C118.071 126 118.073 126 118.075 126C118.077 126 118.079 126 118.08 126C118.082 126 118.084 126 118.086 126C118.087 126 118.089 126 118.091 126C118.093 126 118.094 126 118.096 126C118.098 126 118.1 126 118.101 126C118.103 126 118.105 126 118.107 126C118.108 126 118.11 126 118.112 126C118.114 126 118.115 126 118.117 126C118.119 126 118.121 126 118.122 126C118.124 126 118.126 126 118.127 126C118.129 126 118.131 126 118.133 126C118.134 126 118.136 126 118.138 126C118.139 126 118.141 126 118.143 126C118.144 126 118.146 126 118.148 126C118.15 126 118.151 126 118.153 126C118.155 126 118.156 126 118.158 126C118.16 126 118.161 126 118.163 126C118.165 126 118.166 126 118.168 126C118.17 126 118.171 126 118.173 126C118.175 126 118.176 126 118.178 126C118.179 126 118.181 126 118.183 126C118.184 126 118.186 126 118.188 126C118.189 126 118.191 126 118.193 126C118.194 126 118.196 126 118.197 126C118.199 126 118.201 126 118.202 126C118.204 126 118.205 126 118.207 126C118.209 126 118.21 126 118.212 126C118.213 126 118.215 126 118.217 126C118.218 126 118.22 126 118.221 126C118.223 126 118.225 126 118.226 126C118.228 126 118.229 126 118.231 126C118.232 126 118.234 126 118.236 126V124ZM113.136 124C113.13 124 113.125 124 113.12 124C113.115 124 113.11 124 113.105 124C113.1 124 113.095 124 113.09 124C113.085 124 113.08 124 113.075 124C113.07 124 113.065 124 113.06 124C113.055 124 113.05 124 113.045 124C113.04 124 113.035 124 113.03 124C113.025 124 113.02 124 113.015 124C113.01 124 113.005 124 113 124C112.995 124 112.99 124 112.985 124C112.98 124 112.975 124 112.97 124C112.965 124 112.96 124 112.955 124C112.95 124 112.945 124 112.94 124C112.935 124 112.93 124 112.925 124C112.92 124 112.915 124 112.91 124C112.905 124 112.9 124 112.895 124C112.89 124 112.885 124 112.881 124C112.876 124 112.871 124 112.866 124C112.861 124 112.856 124 112.851 124C112.846 124 112.841 124 112.836 124C112.831 124 112.827 124 112.822 124C112.817 124 112.812 124 112.807 124C112.802 124 112.797 124 112.792 124C112.788 124 112.783 124 112.778 124C112.773 124 112.768 124 112.763 124C112.758 124 112.754 124 112.749 124C112.744 124 112.739 124 112.734 124C112.729 124 112.725 124 112.72 124C112.715 124 112.71 124 112.705 124C112.7 124 112.696 124 112.691 124C112.686 124 112.681 124 112.676 124C112.672 124 112.667 124 112.662 124C112.657 124 112.653 124 112.648 124C112.643 124 112.638 124 112.633 124C112.629 124 112.624 124 112.619 124C112.614 124 112.61 124 112.605 124C112.6 124 112.595 124 112.591 124C112.586 124 112.581 124 112.576 124C112.572 124 112.567 124 112.562 124C112.558 124 112.553 124 112.548 124C112.543 124 112.539 124 112.534 124C112.529 124 112.525 124 112.52 124C112.515 124 112.511 124 112.506 124C112.501 124 112.497 124 112.492 124C112.487 124 112.482 124 112.478 124C112.473 124 112.468 124 112.464 124C112.459 124 112.455 124 112.45 124C112.445 124 112.441 124 112.436 124C112.431 124 112.427 124 112.422 124C112.417 124 112.413 124 112.408 124C112.404 124 112.399 124 112.394 124C112.39 124 112.385 124 112.38 124C112.376 124 112.371 124 112.367 124C112.362 124 112.358 124 112.353 124C112.348 124 112.344 124 112.339 124C112.335 124 112.33 124 112.325 124C112.321 124 112.316 124 112.312 124C112.307 124 112.303 124 112.298 124C112.294 124 112.289 124 112.285 124C112.28 124 112.275 124 112.271 124C112.266 124 112.262 124 112.257 124C112.253 124 112.248 124 112.244 124C112.239 124 112.235 124 112.23 124C112.226 124 112.221 124 112.217 124C112.212 124 112.208 124 112.203 124C112.199 124 112.194 124 112.19 124C112.185 124 112.181 124 112.176 124C112.172 124 112.168 124 112.163 124C112.159 124 112.154 124 112.15 124C112.145 124 112.141 124 112.136 124C112.132 124 112.128 124 112.123 124C112.119 124 112.114 124 112.11 124C112.105 124 112.101 124 112.097 124C112.092 124 112.088 124 112.083 124C112.079 124 112.075 124 112.07 124C112.066 124 112.061 124 112.057 124C112.053 124 112.048 124 112.044 124C112.04 124 112.035 124 112.031 124C112.026 124 112.022 124 112.018 124C112.013 124 112.009 124 112.005 124C112 124 111.996 124 111.992 124C111.987 124 111.983 124 111.979 124C111.974 124 111.97 124 111.966 124C111.961 124 111.957 124 111.953 124C111.948 124 111.944 124 111.94 124C111.936 124 111.931 124 111.927 124C111.923 124 111.918 124 111.914 124C111.91 124 111.906 124 111.901 124C111.897 124 111.893 124 111.888 124C111.884 124 111.88 124 111.876 124C111.871 124 111.867 124 111.863 124C111.859 124 111.854 124 111.85 124C111.846 124 111.842 124 111.838 124C111.833 124 111.829 124 111.825 124C111.821 124 111.816 124 111.812 124C111.808 124 111.804 124 111.8 124C111.795 124 111.791 124 111.787 124C111.783 124 111.779 124 111.774 124C111.77 124 111.766 124 111.762 124C111.758 124 111.754 124 111.749 124C111.745 124 111.741 124 111.737 124C111.733 124 111.729 124 111.725 124C111.72 124 111.716 124 111.712 124C111.708 124 111.704 124 111.7 124C111.696 124 111.691 124 111.687 124C111.683 124 111.679 124 111.675 124C111.671 124 111.667 124 111.663 124C111.659 124 111.655 124 111.65 124C111.646 124 111.642 124 111.638 124C111.634 124 111.63 124 111.626 124C111.622 124 111.618 124 111.614 124C111.61 124 111.606 124 111.602 124C111.598 124 111.593 124 111.589 124C111.585 124 111.581 124 111.577 124C111.573 124 111.569 124 111.565 124C111.561 124 111.557 124 111.553 124C111.549 124 111.545 124 111.541 124C111.537 124 111.533 124 111.529 124C111.525 124 111.521 124 111.517 124C111.513 124 111.509 124 111.505 124C111.501 124 111.497 124 111.493 124C111.489 124 111.485 124 111.481 124C111.477 124 111.473 124 111.469 124C111.466 124 111.462 124 111.458 124C111.454 124 111.45 124 111.446 124C111.442 124 111.438 124 111.434 124C111.43 124 111.426 124 111.422 124C111.418 124 111.414 124 111.411 124C111.407 124 111.403 124 111.399 124C111.395 124 111.391 124 111.387 124C111.383 124 111.379 124 111.376 124C111.372 124 111.368 124 111.364 124C111.36 124 111.356 124 111.352 124C111.348 124 111.345 124 111.341 124C111.337 124 111.333 124 111.329 124C111.325 124 111.322 124 111.318 124C111.314 124 111.31 124 111.306 124C111.302 124 111.299 124 111.295 124C111.291 124 111.287 124 111.283 124C111.28 124 111.276 124 111.272 124C111.268 124 111.264 124 111.261 124C111.257 124 111.253 124 111.249 124C111.245 124 111.242 124 111.238 124C111.234 124 111.23 124 111.227 124C111.223 124 111.219 124 111.215 124C111.212 124 111.208 124 111.204 124C111.2 124 111.197 124 111.193 124C111.189 124 111.185 124 111.182 124C111.178 124 111.174 124 111.171 124C111.167 124 111.163 124 111.159 124C111.156 124 111.152 124 111.148 124C111.145 124 111.141 124 111.137 124C111.134 124 111.13 124 111.126 124C111.122 124 111.119 124 111.115 124C111.111 124 111.108 124 111.104 124C111.1 124 111.097 124 111.093 124C111.09 124 111.086 124 111.082 124C111.079 124 111.075 124 111.071 124C111.068 124 111.064 124 111.06 124C111.057 124 111.053 124 111.05 124C111.046 124 111.042 124 111.039 124C111.035 124 111.032 124 111.028 124C111.024 124 111.021 124 111.017 124C111.014 124 111.01 124 111.006 124C111.003 124 110.999 124 110.996 124C110.992 124 110.989 124 110.985 124C110.982 124 110.978 124 110.974 124C110.971 124 110.967 124 110.964 124C110.96 124 110.957 124 110.953 124C110.95 124 110.946 124 110.943 124C110.939 124 110.936 124 110.932 124C110.929 124 110.925 124 110.922 124C110.918 124 110.915 124 110.911 124C110.908 124 110.904 124 110.901 124C110.897 124 110.894 124 110.89 124C110.887 124 110.883 124 110.88 124C110.876 124 110.873 124 110.869 124C110.866 124 110.862 124 110.859 124C110.855 124 110.852 124 110.849 124C110.845 124 110.842 124 110.838 124C110.835 124 110.831 124 110.828 124C110.825 124 110.821 124 110.818 124C110.814 124 110.811 124 110.808 124C110.804 124 110.801 124 110.797 124C110.794 124 110.791 124 110.787 124C110.784 124 110.78 124 110.777 124C110.774 124 110.77 124 110.767 124C110.764 124 110.76 124 110.757 124C110.754 124 110.75 124 110.747 124C110.743 124 110.74 124 110.737 124C110.733 124 110.73 124 110.727 124C110.723 124 110.72 124 110.717 124C110.713 124 110.71 124 110.707 124C110.704 124 110.7 124 110.697 124C110.694 124 110.69 124 110.687 124C110.684 124 110.68 124 110.677 124C110.674 124 110.671 124 110.667 124C110.664 124 110.661 124 110.658 124C110.654 124 110.651 124 110.648 124C110.644 124 110.641 124 110.638 124C110.635 124 110.632 124 110.628 124C110.625 124 110.622 124 110.619 124C110.615 124 110.612 124 110.609 124C110.606 124 110.602 124 110.599 124C110.596 124 110.593 124 110.59 124C110.586 124 110.583 124 110.58 124C110.577 124 110.574 124 110.57 124C110.567 124 110.564 124 110.561 124C110.558 124 110.555 124 110.551 124C110.548 124 110.545 124 110.542 124C110.539 124 110.536 124 110.533 124C110.529 124 110.526 124 110.523 124C110.52 124 110.517 124 110.514 124C110.511 124 110.507 124 110.504 124C110.501 124 110.498 124 110.495 124C110.492 124 110.489 124 110.486 124C110.483 124 110.479 124 110.476 124C110.473 124 110.47 124 110.467 124C110.464 124 110.461 124 110.458 124C110.455 124 110.452 124 110.449 124C110.446 124 110.443 124 110.439 124C110.436 124 110.433 124 110.43 124C110.427 124 110.424 124 110.421 124C110.418 124 110.415 124 110.412 124C110.409 124 110.406 124 110.403 124C110.4 124 110.397 124 110.394 124C110.391 124 110.388 124 110.385 124C110.382 124 110.379 124 110.376 124C110.373 124 110.37 124 110.367 124C110.364 124 110.361 124 110.358 124C110.355 124 110.352 124 110.349 124C110.346 124 110.343 124 110.34 124C110.337 124 110.334 124 110.331 124C110.329 124 110.326 124 110.323 124C110.32 124 110.317 124 110.314 124C110.311 124 110.308 124 110.305 124C110.302 124 110.299 124 110.296 124C110.293 124 110.291 124 110.288 124C110.285 124 110.282 124 110.279 124C110.276 124 110.273 124 110.27 124C110.267 124 110.265 124 110.262 124C110.259 124 110.256 124 110.253 124C110.25 124 110.247 124 110.245 124C110.242 124 110.239 124 110.236 124C110.233 124 110.23 124 110.227 124C110.225 124 110.222 124 110.219 124C110.216 124 110.213 124 110.21 124C110.208 124 110.205 124 110.202 124C110.199 124 110.196 124 110.194 124C110.191 124 110.188 124 110.185 124C110.182 124 110.18 124 110.177 124C110.174 124 110.171 124 110.169 124C110.166 124 110.163 124 110.16 124C110.158 124 110.155 124 110.152 124C110.149 124 110.147 124 110.144 124C110.141 124 110.138 124 110.136 124C110.133 124 110.13 124 110.127 124C110.125 124 110.122 124 110.119 124C110.116 124 110.114 124 110.111 124C110.108 124 110.106 124 110.103 124C110.1 124 110.098 124 110.095 124C110.092 124 110.09 124 110.087 124C110.084 124 110.081 124 110.079 124C110.076 124 110.073 124 110.071 124C110.068 124 110.065 124 110.063 124C110.06 124 110.058 124 110.055 124C110.052 124 110.05 124 110.047 124C110.044 124 110.042 124 110.039 124C110.036 124 110.034 124 110.031 124C110.029 124 110.026 124 110.023 124C110.021 124 110.018 124 110.016 124C110.013 124 110.01 124 110.008 124C110.005 124 110.003 124 110 124C109.997 124 109.995 124 109.992 124C109.99 124 109.987 124 109.985 124C109.982 124 109.98 124 109.977 124C109.974 124 109.972 124 109.969 124C109.967 124 109.964 124 109.962 124C109.959 124 109.957 124 109.954 124C109.952 124 109.949 124 109.947 124C109.944 124 109.942 124 109.939 124C109.937 124 109.934 124 109.932 124C109.929 124 109.927 124 109.924 124C109.922 124 109.919 124 109.917 124C109.914 124 109.912 124 109.909 124C109.907 124 109.904 124 109.902 124C109.899 124 109.897 124 109.894 124C109.892 124 109.89 124 109.887 124C109.885 124 109.882 124 109.88 124C109.877 124 109.875 124 109.873 124C109.87 124 109.868 124 109.865 124C109.863 124 109.86 124 109.858 124C109.856 124 109.853 124 109.851 124C109.848 124 109.846 124 109.844 124C109.841 124 109.839 124 109.837 124C109.834 124 109.832 124 109.829 124C109.827 124 109.825 124 109.822 124C109.82 124 109.818 124 109.815 124C109.813 124 109.811 124 109.808 124C109.806 124 109.804 124 109.801 124C109.799 124 109.797 124 109.794 124C109.792 124 109.79 124 109.787 124C109.785 124 109.783 124 109.78 124C109.778 124 109.776 124 109.773 124C109.771 124 109.769 124 109.767 124C109.764 124 109.762 124 109.76 124C109.757 124 109.755 124 109.753 124C109.751 124 109.748 124 109.746 124C109.744 124 109.742 124 109.739 124C109.737 124 109.735 124 109.733 124C109.73 124 109.728 124 109.726 124C109.724 124 109.721 124 109.719 124C109.717 124 109.715 124 109.713 124C109.71 124 109.708 124 109.706 124C109.704 124 109.702 124 109.699 124C109.697 124 109.695 124 109.693 124C109.691 124 109.688 124 109.686 124C109.684 124 109.682 124 109.68 124C109.678 124 109.675 124 109.673 124C109.671 124 109.669 124 109.667 124C109.665 124 109.663 124 109.66 124C109.658 124 109.656 124 109.654 124C109.652 124 109.65 124 109.648 124C109.645 124 109.643 124 109.641 124C109.639 124 109.637 124 109.635 124C109.633 124 109.631 124 109.629 124C109.627 124 109.624 124 109.622 124C109.62 124 109.618 124 109.616 124C109.614 124 109.612 124 109.61 124C109.608 124 109.606 124 109.604 124C109.602 124 109.6 124 109.598 124C109.596 124 109.593 124 109.591 124C109.589 124 109.587 124 109.585 124C109.583 124 109.581 124 109.579 124C109.577 124 109.575 124 109.573 124C109.571 124 109.569 124 109.567 124C109.565 124 109.563 124 109.561 124C109.559 124 109.557 124 109.555 124C109.553 124 109.551 124 109.549 124C109.547 124 109.545 124 109.543 124C109.541 124 109.539 124 109.538 124C109.536 124 109.534 124 109.532 124C109.53 124 109.528 124 109.526 124C109.524 124 109.522 124 109.52 124C109.518 124 109.516 124 109.514 124C109.512 124 109.51 124 109.509 124C109.507 124 109.505 124 109.503 124C109.501 124 109.499 124 109.497 124C109.495 124 109.493 124 109.491 124C109.49 124 109.488 124 109.486 124C109.484 124 109.482 124 109.48 124C109.478 124 109.476 124 109.475 124C109.473 124 109.471 124 109.469 124C109.467 124 109.465 124 109.464 124C109.462 124 109.46 124 109.458 124C109.456 124 109.454 124 109.453 124C109.451 124 109.449 124 109.447 124C109.445 124 109.444 124 109.442 124C109.44 124 109.438 124 109.436 124C109.435 124 109.433 124 109.431 124C109.429 124 109.427 124 109.426 124C109.424 124 109.422 124 109.42 124C109.419 124 109.417 124 109.415 124C109.413 124 109.412 124 109.41 124C109.408 124 109.406 124 109.405 124C109.403 124 109.401 124 109.399 124C109.398 124 109.396 124 109.394 124C109.392 124 109.391 124 109.389 124C109.387 124 109.386 124 109.384 124C109.382 124 109.381 124 109.379 124C109.377 124 109.375 124 109.374 124C109.372 124 109.37 124 109.369 124C109.367 124 109.365 124 109.364 124C109.362 124 109.36 124 109.359 124C109.357 124 109.355 124 109.354 124C109.352 124 109.351 124 109.349 124C109.347 124 109.346 124 109.344 124C109.342 124 109.341 124 109.339 124C109.338 124 109.336 124 109.334 124C109.333 124 109.331 124 109.33 124C109.328 124 109.326 124 109.325 124C109.323 124 109.322 124 109.32 124C109.318 124 109.317 124 109.315 124C109.314 124 109.312 124 109.311 124C109.309 124 109.307 124 109.306 124C109.304 124 109.303 124 109.301 124C109.3 124 109.298 124 109.297 124C109.295 124 109.294 124 109.292 124C109.29 124 109.289 124 109.287 124C109.286 124 109.284 124 109.283 124C109.281 124 109.28 124 109.278 124C109.277 124 109.275 124 109.274 124C109.272 124 109.271 124 109.269 124C109.268 124 109.267 124 109.265 124C109.264 124 109.262 124 109.261 124C109.259 124 109.258 124 109.256 124C109.255 124 109.253 124 109.252 124C109.25 124 109.249 124 109.248 124C109.246 124 109.245 124 109.243 124C109.242 124 109.24 124 109.239 124C109.238 124 109.236 124 109.235 124C109.233 124 109.232 124 109.231 124C109.229 124 109.228 124 109.226 124C109.225 124 109.224 124 109.222 124C109.221 124 109.22 124 109.218 124C109.217 124 109.215 124 109.214 124C109.213 124 109.211 124 109.21 124C109.209 124 109.207 124 109.206 124C109.205 124 109.203 124 109.202 124C109.201 124 109.199 124 109.198 124C109.197 124 109.195 124 109.194 124C109.193 124 109.191 124 109.19 124C109.189 124 109.187 124 109.186 124C109.185 124 109.184 124 109.182 124C109.181 124 109.18 124 109.178 124C109.177 124 109.176 124 109.175 124C109.173 124 109.172 124 109.171 124C109.17 124 109.168 124 109.167 124C109.166 124 109.165 124 109.163 124C109.162 124 109.161 124 109.16 124C109.158 124 109.157 124 109.156 124C109.155 124 109.153 124 109.152 124C109.151 124 109.15 124 109.149 124C109.147 124 109.146 124 109.145 124C109.144 124 109.143 124 109.141 124C109.14 124 109.139 124 109.138 124C109.137 124 109.136 124 109.134 124C109.133 124 109.132 124 109.131 124C109.13 124 109.129 124 109.127 124C109.126 124 109.125 124 109.124 124C109.123 124 109.122 124 109.121 124C109.119 124 109.118 124 109.117 124C109.116 124 109.115 124 109.114 124C109.113 124 109.112 124 109.111 124C109.109 124 109.108 124 109.107 124C109.106 124 109.105 124 109.104 124C109.103 124 109.102 124 109.101 124C109.1 124 109.099 124 109.097 124C109.096 124 109.095 124 109.094 124C109.093 124 109.092 124 109.091 124C109.09 124 109.089 124 109.088 124C109.087 124 109.086 124 109.085 124C109.084 124 109.083 124 109.082 124C109.081 124 109.08 124 109.079 124C109.078 124 109.077 124 109.076 124C109.075 124 109.074 124 109.073 124C109.072 124 109.071 124 109.07 124C109.069 124 109.068 124 109.067 124C109.066 124 109.065 124 109.064 124C109.063 124 109.062 124 109.061 124C109.06 124 109.059 124 109.058 124C109.057 124 109.056 124 109.055 124C109.054 124 109.053 124 109.052 124C109.052 124 109.051 124 109.05 124C109.049 124 109.048 124 109.047 124C109.046 124 109.045 124 109.044 124C109.043 124 109.042 124 109.042 124C109.041 124 109.04 124 109.039 124C109.038 124 109.037 124 109.036 124C109.035 124 109.034 124 109.034 124C109.033 124 109.032 124 109.031 124C109.03 124 109.029 124 109.028 124C109.028 124 109.027 124 109.026 124C109.025 124 109.024 124 109.023 124C109.023 124 109.022 124 109.021 124C109.02 124 109.019 124 109.019 124C109.018 124 109.017 124 109.016 124C109.015 124 109.014 124 109.014 124C109.013 124 109.012 124 109.011 124C109.011 124 109.01 124 109.009 124C109.008 124 109.007 124 109.007 124C109.006 124 109.005 124 109.004 124C109.004 124 109.003 124 109.002 124C109.001 124 109.001 124 109 124C108.999 124 108.998 124 108.998 124C108.997 124 108.996 124 108.996 124C108.995 124 108.994 124 108.993 124C108.993 124 108.992 124 108.991 124C108.991 124 108.99 124 108.989 124C108.988 124 108.988 124 108.987 124C108.986 124 108.986 124 108.985 124C108.984 124 108.984 124 108.983 124C108.982 124 108.982 124 108.981 124C108.98 124 108.98 124 108.979 124C108.978 124 108.978 124 108.977 124C108.977 124 108.976 124 108.975 124C108.975 124 108.974 124 108.973 124C108.973 124 108.972 124 108.972 124C108.971 124 108.97 124 108.97 124C108.969 124 108.969 124 108.968 124C108.967 124 108.967 124 108.966 124C108.966 124 108.965 124 108.964 124C108.964 124 108.963 124 108.963 124C108.962 124 108.962 124 108.961 124C108.961 124 108.96 124 108.959 124C108.959 124 108.958 124 108.958 124C108.957 124 108.957 124 108.956 124C108.956 124 108.955 124 108.955 124C108.954 124 108.954 124 108.953 124C108.953 124 108.952 124 108.952 124C108.951 124 108.951 124 108.95 124C108.95 124 108.949 124 108.949 124C108.948 124 108.948 124 108.947 124C108.947 124 108.946 124 108.946 124C108.945 124 108.945 124 108.944 124C108.944 124 108.944 124 108.943 124C108.943 124 108.942 124 108.942 124C108.941 124 108.941 124 108.94 124C108.94 124 108.94 124 108.939 124C108.939 124 108.938 124 108.938 124C108.938 124 108.937 124 108.937 124C108.936 124 108.936 124 108.936 124V126C108.936 126 108.936 126 108.937 126C108.937 126 108.938 126 108.938 126C108.938 126 108.939 126 108.939 126C108.94 126 108.94 126 108.94 126C108.941 126 108.941 126 108.942 126C108.942 126 108.943 126 108.943 126C108.944 126 108.944 126 108.944 126C108.945 126 108.945 126 108.946 126C108.946 126 108.947 126 108.947 126C108.948 126 108.948 126 108.949 126C108.949 126 108.95 126 108.95 126C108.951 126 108.951 126 108.952 126C108.952 126 108.953 126 108.953 126C108.954 126 108.954 126 108.955 126C108.955 126 108.956 126 108.956 126C108.957 126 108.957 126 108.958 126C108.958 126 108.959 126 108.959 126C108.96 126 108.961 126 108.961 126C108.962 126 108.962 126 108.963 126C108.963 126 108.964 126 108.964 126C108.965 126 108.966 126 108.966 126C108.967 126 108.967 126 108.968 126C108.969 126 108.969 126 108.97 126C108.97 126 108.971 126 108.972 126C108.972 126 108.973 126 108.973 126C108.974 126 108.975 126 108.975 126C108.976 126 108.977 126 108.977 126C108.978 126 108.978 126 108.979 126C108.98 126 108.98 126 108.981 126C108.982 126 108.982 126 108.983 126C108.984 126 108.984 126 108.985 126C108.986 126 108.986 126 108.987 126C108.988 126 108.988 126 108.989 126C108.99 126 108.991 126 108.991 126C108.992 126 108.993 126 108.993 126C108.994 126 108.995 126 108.996 126C108.996 126 108.997 126 108.998 126C108.998 126 108.999 126 109 126C109.001 126 109.001 126 109.002 126C109.003 126 109.004 126 109.004 126C109.005 126 109.006 126 109.007 126C109.007 126 109.008 126 109.009 126C109.01 126 109.011 126 109.011 126C109.012 126 109.013 126 109.014 126C109.014 126 109.015 126 109.016 126C109.017 126 109.018 126 109.019 126C109.019 126 109.02 126 109.021 126C109.022 126 109.023 126 109.023 126C109.024 126 109.025 126 109.026 126C109.027 126 109.028 126 109.028 126C109.029 126 109.03 126 109.031 126C109.032 126 109.033 126 109.034 126C109.034 126 109.035 126 109.036 126C109.037 126 109.038 126 109.039 126C109.04 126 109.041 126 109.042 126C109.042 126 109.043 126 109.044 126C109.045 126 109.046 126 109.047 126C109.048 126 109.049 126 109.05 126C109.051 126 109.052 126 109.052 126C109.053 126 109.054 126 109.055 126C109.056 126 109.057 126 109.058 126C109.059 126 109.06 126 109.061 126C109.062 126 109.063 126 109.064 126C109.065 126 109.066 126 109.067 126C109.068 126 109.069 126 109.07 126C109.071 126 109.072 126 109.073 126C109.074 126 109.075 126 109.076 126C109.077 126 109.078 126 109.079 126C109.08 126 109.081 126 109.082 126C109.083 126 109.084 126 109.085 126C109.086 126 109.087 126 109.088 126C109.089 126 109.09 126 109.091 126C109.092 126 109.093 126 109.094 126C109.095 126 109.096 126 109.097 126C109.099 126 109.1 126 109.101 126C109.102 126 109.103 126 109.104 126C109.105 126 109.106 126 109.107 126C109.108 126 109.109 126 109.111 126C109.112 126 109.113 126 109.114 126C109.115 126 109.116 126 109.117 126C109.118 126 109.119 126 109.121 126C109.122 126 109.123 126 109.124 126C109.125 126 109.126 126 109.127 126C109.129 126 109.13 126 109.131 126C109.132 126 109.133 126 109.134 126C109.136 126 109.137 126 109.138 126C109.139 126 109.14 126 109.141 126C109.143 126 109.144 126 109.145 126C109.146 126 109.147 126 109.149 126C109.15 126 109.151 126 109.152 126C109.153 126 109.155 126 109.156 126C109.157 126 109.158 126 109.16 126C109.161 126 109.162 126 109.163 126C109.165 126 109.166 126 109.167 126C109.168 126 109.17 126 109.171 126C109.172 126 109.173 126 109.175 126C109.176 126 109.177 126 109.178 126C109.18 126 109.181 126 109.182 126C109.184 126 109.185 126 109.186 126C109.187 126 109.189 126 109.19 126C109.191 126 109.193 126 109.194 126C109.195 126 109.197 126 109.198 126C109.199 126 109.201 126 109.202 126C109.203 126 109.205 126 109.206 126C109.207 126 109.209 126 109.21 126C109.211 126 109.213 126 109.214 126C109.215 126 109.217 126 109.218 126C109.22 126 109.221 126 109.222 126C109.224 126 109.225 126 109.226 126C109.228 126 109.229 126 109.231 126C109.232 126 109.233 126 109.235 126C109.236 126 109.238 126 109.239 126C109.24 126 109.242 126 109.243 126C109.245 126 109.246 126 109.248 126C109.249 126 109.25 126 109.252 126C109.253 126 109.255 126 109.256 126C109.258 126 109.259 126 109.261 126C109.262 126 109.264 126 109.265 126C109.267 126 109.268 126 109.269 126C109.271 126 109.272 126 109.274 126C109.275 126 109.277 126 109.278 126C109.28 126 109.281 126 109.283 126C109.284 126 109.286 126 109.287 126C109.289 126 109.29 126 109.292 126C109.294 126 109.295 126 109.297 126C109.298 126 109.3 126 109.301 126C109.303 126 109.304 126 109.306 126C109.307 126 109.309 126 109.311 126C109.312 126 109.314 126 109.315 126C109.317 126 109.318 126 109.32 126C109.322 126 109.323 126 109.325 126C109.326 126 109.328 126 109.33 126C109.331 126 109.333 126 109.334 126C109.336 126 109.338 126 109.339 126C109.341 126 109.342 126 109.344 126C109.346 126 109.347 126 109.349 126C109.351 126 109.352 126 109.354 126C109.355 126 109.357 126 109.359 126C109.36 126 109.362 126 109.364 126C109.365 126 109.367 126 109.369 126C109.37 126 109.372 126 109.374 126C109.375 126 109.377 126 109.379 126C109.381 126 109.382 126 109.384 126C109.386 126 109.387 126 109.389 126C109.391 126 109.392 126 109.394 126C109.396 126 109.398 126 109.399 126C109.401 126 109.403 126 109.405 126C109.406 126 109.408 126 109.41 126C109.412 126 109.413 126 109.415 126C109.417 126 109.419 126 109.42 126C109.422 126 109.424 126 109.426 126C109.427 126 109.429 126 109.431 126C109.433 126 109.435 126 109.436 126C109.438 126 109.44 126 109.442 126C109.444 126 109.445 126 109.447 126C109.449 126 109.451 126 109.453 126C109.454 126 109.456 126 109.458 126C109.46 126 109.462 126 109.464 126C109.465 126 109.467 126 109.469 126C109.471 126 109.473 126 109.475 126C109.476 126 109.478 126 109.48 126C109.482 126 109.484 126 109.486 126C109.488 126 109.49 126 109.491 126C109.493 126 109.495 126 109.497 126C109.499 126 109.501 126 109.503 126C109.505 126 109.507 126 109.509 126C109.51 126 109.512 126 109.514 126C109.516 126 109.518 126 109.52 126C109.522 126 109.524 126 109.526 126C109.528 126 109.53 126 109.532 126C109.534 126 109.536 126 109.538 126C109.539 126 109.541 126 109.543 126C109.545 126 109.547 126 109.549 126C109.551 126 109.553 126 109.555 126C109.557 126 109.559 126 109.561 126C109.563 126 109.565 126 109.567 126C109.569 126 109.571 126 109.573 126C109.575 126 109.577 126 109.579 126C109.581 126 109.583 126 109.585 126C109.587 126 109.589 126 109.591 126C109.593 126 109.596 126 109.598 126C109.6 126 109.602 126 109.604 126C109.606 126 109.608 126 109.61 126C109.612 126 109.614 126 109.616 126C109.618 126 109.62 126 109.622 126C109.624 126 109.627 126 109.629 126C109.631 126 109.633 126 109.635 126C109.637 126 109.639 126 109.641 126C109.643 126 109.645 126 109.648 126C109.65 126 109.652 126 109.654 126C109.656 126 109.658 126 109.66 126C109.663 126 109.665 126 109.667 126C109.669 126 109.671 126 109.673 126C109.675 126 109.678 126 109.68 126C109.682 126 109.684 126 109.686 126C109.688 126 109.691 126 109.693 126C109.695 126 109.697 126 109.699 126C109.702 126 109.704 126 109.706 126C109.708 126 109.71 126 109.713 126C109.715 126 109.717 126 109.719 126C109.721 126 109.724 126 109.726 126C109.728 126 109.73 126 109.733 126C109.735 126 109.737 126 109.739 126C109.742 126 109.744 126 109.746 126C109.748 126 109.751 126 109.753 126C109.755 126 109.757 126 109.76 126C109.762 126 109.764 126 109.767 126C109.769 126 109.771 126 109.773 126C109.776 126 109.778 126 109.78 126C109.783 126 109.785 126 109.787 126C109.79 126 109.792 126 109.794 126C109.797 126 109.799 126 109.801 126C109.804 126 109.806 126 109.808 126C109.811 126 109.813 126 109.815 126C109.818 126 109.82 126 109.822 126C109.825 126 109.827 126 109.829 126C109.832 126 109.834 126 109.837 126C109.839 126 109.841 126 109.844 126C109.846 126 109.848 126 109.851 126C109.853 126 109.856 126 109.858 126C109.86 126 109.863 126 109.865 126C109.868 126 109.87 126 109.873 126C109.875 126 109.877 126 109.88 126C109.882 126 109.885 126 109.887 126C109.89 126 109.892 126 109.894 126C109.897 126 109.899 126 109.902 126C109.904 126 109.907 126 109.909 126C109.912 126 109.914 126 109.917 126C109.919 126 109.922 126 109.924 126C109.927 126 109.929 126 109.932 126C109.934 126 109.937 126 109.939 126C109.942 126 109.944 126 109.947 126C109.949 126 109.952 126 109.954 126C109.957 126 109.959 126 109.962 126C109.964 126 109.967 126 109.969 126C109.972 126 109.974 126 109.977 126C109.98 126 109.982 126 109.985 126C109.987 126 109.99 126 109.992 126C109.995 126 109.997 126 110 126C110.003 126 110.005 126 110.008 126C110.01 126 110.013 126 110.016 126C110.018 126 110.021 126 110.023 126C110.026 126 110.029 126 110.031 126C110.034 126 110.036 126 110.039 126C110.042 126 110.044 126 110.047 126C110.05 126 110.052 126 110.055 126C110.058 126 110.06 126 110.063 126C110.065 126 110.068 126 110.071 126C110.073 126 110.076 126 110.079 126C110.081 126 110.084 126 110.087 126C110.09 126 110.092 126 110.095 126C110.098 126 110.1 126 110.103 126C110.106 126 110.108 126 110.111 126C110.114 126 110.116 126 110.119 126C110.122 126 110.125 126 110.127 126C110.13 126 110.133 126 110.136 126C110.138 126 110.141 126 110.144 126C110.147 126 110.149 126 110.152 126C110.155 126 110.158 126 110.16 126C110.163 126 110.166 126 110.169 126C110.171 126 110.174 126 110.177 126C110.18 126 110.182 126 110.185 126C110.188 126 110.191 126 110.194 126C110.196 126 110.199 126 110.202 126C110.205 126 110.208 126 110.21 126C110.213 126 110.216 126 110.219 126C110.222 126 110.225 126 110.227 126C110.23 126 110.233 126 110.236 126C110.239 126 110.242 126 110.245 126C110.247 126 110.25 126 110.253 126C110.256 126 110.259 126 110.262 126C110.265 126 110.267 126 110.27 126C110.273 126 110.276 126 110.279 126C110.282 126 110.285 126 110.288 126C110.291 126 110.293 126 110.296 126C110.299 126 110.302 126 110.305 126C110.308 126 110.311 126 110.314 126C110.317 126 110.32 126 110.323 126C110.326 126 110.329 126 110.331 126C110.334 126 110.337 126 110.34 126C110.343 126 110.346 126 110.349 126C110.352 126 110.355 126 110.358 126C110.361 126 110.364 126 110.367 126C110.37 126 110.373 126 110.376 126C110.379 126 110.382 126 110.385 126C110.388 126 110.391 126 110.394 126C110.397 126 110.4 126 110.403 126C110.406 126 110.409 126 110.412 126C110.415 126 110.418 126 110.421 126C110.424 126 110.427 126 110.43 126C110.433 126 110.436 126 110.439 126C110.443 126 110.446 126 110.449 126C110.452 126 110.455 126 110.458 126C110.461 126 110.464 126 110.467 126C110.47 126 110.473 126 110.476 126C110.479 126 110.483 126 110.486 126C110.489 126 110.492 126 110.495 126C110.498 126 110.501 126 110.504 126C110.507 126 110.511 126 110.514 126C110.517 126 110.52 126 110.523 126C110.526 126 110.529 126 110.533 126C110.536 126 110.539 126 110.542 126C110.545 126 110.548 126 110.551 126C110.555 126 110.558 126 110.561 126C110.564 126 110.567 126 110.57 126C110.574 126 110.577 126 110.58 126C110.583 126 110.586 126 110.59 126C110.593 126 110.596 126 110.599 126C110.602 126 110.606 126 110.609 126C110.612 126 110.615 126 110.619 126C110.622 126 110.625 126 110.628 126C110.632 126 110.635 126 110.638 126C110.641 126 110.644 126 110.648 126C110.651 126 110.654 126 110.658 126C110.661 126 110.664 126 110.667 126C110.671 126 110.674 126 110.677 126C110.68 126 110.684 126 110.687 126C110.69 126 110.694 126 110.697 126C110.7 126 110.704 126 110.707 126C110.71 126 110.713 126 110.717 126C110.72 126 110.723 126 110.727 126C110.73 126 110.733 126 110.737 126C110.74 126 110.743 126 110.747 126C110.75 126 110.754 126 110.757 126C110.76 126 110.764 126 110.767 126C110.77 126 110.774 126 110.777 126C110.78 126 110.784 126 110.787 126C110.791 126 110.794 126 110.797 126C110.801 126 110.804 126 110.808 126C110.811 126 110.814 126 110.818 126C110.821 126 110.825 126 110.828 126C110.831 126 110.835 126 110.838 126C110.842 126 110.845 126 110.849 126C110.852 126 110.855 126 110.859 126C110.862 126 110.866 126 110.869 126C110.873 126 110.876 126 110.88 126C110.883 126 110.887 126 110.89 126C110.894 126 110.897 126 110.901 126C110.904 126 110.908 126 110.911 126C110.915 126 110.918 126 110.922 126C110.925 126 110.929 126 110.932 126C110.936 126 110.939 126 110.943 126C110.946 126 110.95 126 110.953 126C110.957 126 110.96 126 110.964 126C110.967 126 110.971 126 110.974 126C110.978 126 110.982 126 110.985 126C110.989 126 110.992 126 110.996 126C110.999 126 111.003 126 111.006 126C111.01 126 111.014 126 111.017 126C111.021 126 111.024 126 111.028 126C111.032 126 111.035 126 111.039 126C111.042 126 111.046 126 111.05 126C111.053 126 111.057 126 111.06 126C111.064 126 111.068 126 111.071 126C111.075 126 111.079 126 111.082 126C111.086 126 111.09 126 111.093 126C111.097 126 111.1 126 111.104 126C111.108 126 111.111 126 111.115 126C111.119 126 111.122 126 111.126 126C111.13 126 111.134 126 111.137 126C111.141 126 111.145 126 111.148 126C111.152 126 111.156 126 111.159 126C111.163 126 111.167 126 111.171 126C111.174 126 111.178 126 111.182 126C111.185 126 111.189 126 111.193 126C111.197 126 111.2 126 111.204 126C111.208 126 111.212 126 111.215 126C111.219 126 111.223 126 111.227 126C111.23 126 111.234 126 111.238 126C111.242 126 111.245 126 111.249 126C111.253 126 111.257 126 111.261 126C111.264 126 111.268 126 111.272 126C111.276 126 111.28 126 111.283 126C111.287 126 111.291 126 111.295 126C111.299 126 111.302 126 111.306 126C111.31 126 111.314 126 111.318 126C111.322 126 111.325 126 111.329 126C111.333 126 111.337 126 111.341 126C111.345 126 111.348 126 111.352 126C111.356 126 111.36 126 111.364 126C111.368 126 111.372 126 111.376 126C111.379 126 111.383 126 111.387 126C111.391 126 111.395 126 111.399 126C111.403 126 111.407 126 111.411 126C111.414 126 111.418 126 111.422 126C111.426 126 111.43 126 111.434 126C111.438 126 111.442 126 111.446 126C111.45 126 111.454 126 111.458 126C111.462 126 111.466 126 111.469 126C111.473 126 111.477 126 111.481 126C111.485 126 111.489 126 111.493 126C111.497 126 111.501 126 111.505 126C111.509 126 111.513 126 111.517 126C111.521 126 111.525 126 111.529 126C111.533 126 111.537 126 111.541 126C111.545 126 111.549 126 111.553 126C111.557 126 111.561 126 111.565 126C111.569 126 111.573 126 111.577 126C111.581 126 111.585 126 111.589 126C111.593 126 111.598 126 111.602 126C111.606 126 111.61 126 111.614 126C111.618 126 111.622 126 111.626 126C111.63 126 111.634 126 111.638 126C111.642 126 111.646 126 111.65 126C111.655 126 111.659 126 111.663 126C111.667 126 111.671 126 111.675 126C111.679 126 111.683 126 111.687 126C111.691 126 111.696 126 111.7 126C111.704 126 111.708 126 111.712 126C111.716 126 111.72 126 111.725 126C111.729 126 111.733 126 111.737 126C111.741 126 111.745 126 111.749 126C111.754 126 111.758 126 111.762 126C111.766 126 111.77 126 111.774 126C111.779 126 111.783 126 111.787 126C111.791 126 111.795 126 111.8 126C111.804 126 111.808 126 111.812 126C111.816 126 111.821 126 111.825 126C111.829 126 111.833 126 111.838 126C111.842 126 111.846 126 111.85 126C111.854 126 111.859 126 111.863 126C111.867 126 111.871 126 111.876 126C111.88 126 111.884 126 111.888 126C111.893 126 111.897 126 111.901 126C111.906 126 111.91 126 111.914 126C111.918 126 111.923 126 111.927 126C111.931 126 111.936 126 111.94 126C111.944 126 111.948 126 111.953 126C111.957 126 111.961 126 111.966 126C111.97 126 111.974 126 111.979 126C111.983 126 111.987 126 111.992 126C111.996 126 112 126 112.005 126C112.009 126 112.013 126 112.018 126C112.022 126 112.026 126 112.031 126C112.035 126 112.04 126 112.044 126C112.048 126 112.053 126 112.057 126C112.061 126 112.066 126 112.07 126C112.075 126 112.079 126 112.083 126C112.088 126 112.092 126 112.097 126C112.101 126 112.105 126 112.11 126C112.114 126 112.119 126 112.123 126C112.128 126 112.132 126 112.136 126C112.141 126 112.145 126 112.15 126C112.154 126 112.159 126 112.163 126C112.168 126 112.172 126 112.176 126C112.181 126 112.185 126 112.19 126C112.194 126 112.199 126 112.203 126C112.208 126 112.212 126 112.217 126C112.221 126 112.226 126 112.23 126C112.235 126 112.239 126 112.244 126C112.248 126 112.253 126 112.257 126C112.262 126 112.266 126 112.271 126C112.275 126 112.28 126 112.285 126C112.289 126 112.294 126 112.298 126C112.303 126 112.307 126 112.312 126C112.316 126 112.321 126 112.325 126C112.33 126 112.335 126 112.339 126C112.344 126 112.348 126 112.353 126C112.358 126 112.362 126 112.367 126C112.371 126 112.376 126 112.38 126C112.385 126 112.39 126 112.394 126C112.399 126 112.404 126 112.408 126C112.413 126 112.417 126 112.422 126C112.427 126 112.431 126 112.436 126C112.441 126 112.445 126 112.45 126C112.455 126 112.459 126 112.464 126C112.468 126 112.473 126 112.478 126C112.482 126 112.487 126 112.492 126C112.497 126 112.501 126 112.506 126C112.511 126 112.515 126 112.52 126C112.525 126 112.529 126 112.534 126C112.539 126 112.543 126 112.548 126C112.553 126 112.558 126 112.562 126C112.567 126 112.572 126 112.576 126C112.581 126 112.586 126 112.591 126C112.595 126 112.6 126 112.605 126C112.61 126 112.614 126 112.619 126C112.624 126 112.629 126 112.633 126C112.638 126 112.643 126 112.648 126C112.653 126 112.657 126 112.662 126C112.667 126 112.672 126 112.676 126C112.681 126 112.686 126 112.691 126C112.696 126 112.7 126 112.705 126C112.71 126 112.715 126 112.72 126C112.725 126 112.729 126 112.734 126C112.739 126 112.744 126 112.749 126C112.754 126 112.758 126 112.763 126C112.768 126 112.773 126 112.778 126C112.783 126 112.788 126 112.792 126C112.797 126 112.802 126 112.807 126C112.812 126 112.817 126 112.822 126C112.827 126 112.831 126 112.836 126C112.841 126 112.846 126 112.851 126C112.856 126 112.861 126 112.866 126C112.871 126 112.876 126 112.881 126C112.885 126 112.89 126 112.895 126C112.9 126 112.905 126 112.91 126C112.915 126 112.92 126 112.925 126C112.93 126 112.935 126 112.94 126C112.945 126 112.95 126 112.955 126C112.96 126 112.965 126 112.97 126C112.975 126 112.98 126 112.985 126C112.99 126 112.995 126 113 126C113.005 126 113.01 126 113.015 126C113.02 126 113.025 126 113.03 126C113.035 126 113.04 126 113.045 126C113.05 126 113.055 126 113.06 126C113.065 126 113.07 126 113.075 126C113.08 126 113.085 126 113.09 126C113.095 126 113.1 126 113.105 126C113.11 126 113.115 126 113.12 126C113.125 126 113.13 126 113.136 126V124ZM108.936 124H47.4355V126H108.936V124ZM1.93555 302V92H-0.0644529V302H1.93555ZM0.935547 93H120.036V91H0.935547V93ZM120.036 93C151.181 93 172.769 98.4027 185.085 108.959L186.386 107.441C173.502 96.3973 151.29 91 120.036 91V93ZM185.085 108.959C196.015 118.328 201.536 131.822 201.536 149.6H203.536C203.536 131.378 197.856 117.272 186.386 107.441L185.085 108.959ZM201.536 149.6C201.536 164.984 196.909 177.213 187.728 186.393L189.143 187.807C198.763 178.187 203.536 165.416 203.536 149.6H201.536ZM187.728 186.393C180.474 193.647 171.45 198.461 160.622 200.823L161.049 202.777C172.221 200.339 181.597 195.353 189.143 187.807L187.728 186.393ZM159.836 201.8V202.7H161.836V201.8H159.836ZM160.647 203.682C170.891 205.652 178.782 209.672 184.405 215.683L185.866 214.317C179.889 207.928 171.58 203.748 161.024 201.718L160.647 203.682ZM184.428 215.707C187.323 218.602 189.548 222.08 191.101 226.156L192.97 225.444C191.323 221.12 188.948 217.398 185.843 214.293L184.428 215.707ZM191.107 226.171C192.703 230.16 193.555 233.049 193.741 234.9L195.731 234.7C195.516 232.551 194.569 229.44 192.964 225.429L191.107 226.171ZM193.755 234.996C194.141 236.927 194.538 240.569 194.938 245.974L196.933 245.826C196.533 240.431 196.13 236.673 195.716 234.604L193.755 234.996ZM194.938 245.968L196.738 272.368L198.733 272.232L196.933 245.832L194.938 245.968ZM196.736 272.3C196.736 273.146 196.839 274.885 197.039 277.477L199.033 277.323C198.832 274.715 198.736 273.054 198.736 272.3H196.736ZM197.039 277.477C197.239 280.085 197.336 281.746 197.336 282.5H199.336C199.336 281.654 199.232 279.915 199.033 277.323L197.039 277.477ZM197.365 282.743C197.556 283.507 197.851 284.976 198.252 287.179L200.219 286.821C199.82 284.624 199.515 283.093 199.306 282.257L197.365 282.743ZM198.252 287.179C198.655 289.396 199.065 291.15 199.487 292.416L201.384 291.784C201.006 290.65 200.616 289.004 200.219 286.821L198.252 287.179ZM199.541 292.547C200.15 293.765 200.958 295.279 201.961 297.086L203.71 296.114C202.713 294.321 201.921 292.835 201.33 291.653L199.541 292.547ZM201.961 297.086C202.989 298.935 204.218 300.778 205.646 302.614L207.225 301.386C205.853 299.622 204.682 297.865 203.71 296.114L201.961 297.086ZM206.436 301H156.936V303H206.436V301ZM157.768 301.445C153.493 295.033 150.823 286.215 149.832 274.913L147.839 275.087C148.848 286.585 151.578 295.767 156.104 302.555L157.768 301.445ZM149.834 274.954L148.934 255.454L146.937 255.546L147.837 275.046L149.834 274.954ZM148.931 255.409C147.931 244.401 146.12 236.59 143.386 232.174L141.685 233.226C144.151 237.21 145.94 244.599 146.94 255.591L148.931 255.409ZM143.368 232.145C141.718 229.67 139.85 227.591 137.76 225.919L136.511 227.481C138.421 229.009 140.153 230.93 141.704 233.255L143.368 232.145ZM137.778 225.934C131.296 220.497 120.29 217.9 105.036 217.9V219.9C120.181 219.9 130.575 222.503 136.493 227.466L137.778 225.934ZM105.036 217.9H47.4355V219.9H105.036V217.9ZM46.4355 218.9V302H48.4355V218.9H46.4355ZM47.4355 301H0.935547V303H47.4355V301ZM292.064 177.5H291.064V178.5H292.064V177.5ZM412.064 177.5H413.064V176.5H412.064V177.5ZM412.064 212.3V213.3H413.064V212.3H412.064ZM292.064 212.3V211.3H291.064V212.3H292.064ZM292.064 266.6H291.064V267.6H292.064V266.6ZM434.564 266.6H435.564V265.6H434.564V266.6ZM434.564 302V303H435.564V302H434.564ZM245.564 302H244.564V303H245.564V302ZM245.564 92V91H244.564V92H245.564ZM430.964 92H431.964V91H430.964V92ZM430.964 127.4V128.4H431.964V127.4H430.964ZM292.064 127.4V126.4H291.064V127.4H292.064ZM292.064 178.5H412.064V176.5H292.064V178.5ZM411.064 177.5V212.3H413.064V177.5H411.064ZM412.064 211.3H292.064V213.3H412.064V211.3ZM291.064 212.3V266.6H293.064V212.3H291.064ZM292.064 267.6H434.564V265.6H292.064V267.6ZM433.564 266.6V302H435.564V266.6H433.564ZM434.564 301H245.564V303H434.564V301ZM246.564 302V92H244.564V302H246.564ZM245.564 93H430.964V91H245.564V93ZM429.964 92V127.4H431.964V92H429.964ZM430.964 126.4H292.064V128.4H430.964V126.4ZM291.064 127.4V177.5H293.064V127.4H291.064ZM551.391 256.4V257.4H552.094L552.332 256.738L551.391 256.4ZM610.491 92V91H609.788L609.55 91.6617L610.491 92ZM660.591 92L661.518 92.3759L662.076 91H660.591V92ZM575.391 302V303H576.064L576.318 302.376L575.391 302ZM523.791 302L522.864 302.376L523.118 303H523.791V302ZM438.591 92V91H437.106L437.664 92.3759L438.591 92ZM490.791 92L491.732 91.6617L491.494 91H490.791V92ZM549.891 256.4L548.95 256.738L549.188 257.4H549.891V256.4ZM552.332 256.738L611.432 92.3383L609.55 91.6617L550.45 256.062L552.332 256.738ZM610.491 93H660.591V91H610.491V93ZM659.664 91.624L574.464 301.624L576.318 302.376L661.518 92.3759L659.664 91.624ZM575.391 301H523.791V303H575.391V301ZM524.718 301.624L439.518 91.624L437.664 92.3759L522.864 302.376L524.718 301.624ZM438.591 93H490.791V91H438.591V93ZM489.85 92.3383L548.95 256.738L550.832 256.062L491.732 91.6617L489.85 92.3383ZM549.891 257.4H551.391V255.4H549.891V257.4ZM685.018 92V91H684.018V92H685.018ZM731.518 92H732.518V91H731.518V92ZM731.518 302V303H732.518V302H731.518ZM685.018 302H684.018V303H685.018V302ZM685.018 93H731.518V91H685.018V93ZM730.518 92V302H732.518V92H730.518ZM731.518 301H685.018V303H731.518V301ZM686.018 302V92H684.018V302H686.018ZM829.076 177.5H828.076V178.5H829.076V177.5ZM949.076 177.5H950.076V176.5H949.076V177.5ZM949.076 212.3V213.3H950.076V212.3H949.076ZM829.076 212.3V211.3H828.076V212.3H829.076ZM829.076 266.6H828.076V267.6H829.076V266.6ZM971.576 266.6H972.576V265.6H971.576V266.6ZM971.576 302V303H972.576V302H971.576ZM782.576 302H781.576V303H782.576V302ZM782.576 92V91H781.576V92H782.576ZM967.976 92H968.976V91H967.976V92ZM967.976 127.4V128.4H968.976V127.4H967.976ZM829.076 127.4V126.4H828.076V127.4H829.076ZM829.076 178.5H949.076V176.5H829.076V178.5ZM948.076 177.5V212.3H950.076V177.5H948.076ZM949.076 211.3H829.076V213.3H949.076V211.3ZM828.076 212.3V266.6H830.076V212.3H828.076ZM829.076 267.6H971.576V265.6H829.076V267.6ZM970.576 266.6V302H972.576V266.6H970.576ZM971.576 301H782.576V303H971.576V301ZM783.576 302V92H781.576V302H783.576ZM782.576 93H967.976V91H782.576V93ZM966.976 92V127.4H968.976V92H966.976ZM967.976 126.4H829.076V128.4H967.976V126.4ZM828.076 127.4V177.5H830.076V127.4H828.076ZM1139.1 138.8L1140.06 138.505L1139.11 135.429L1138.15 138.502L1139.1 138.8ZM1088.1 302V303H1088.84L1089.06 302.298L1088.1 302ZM1038.6 302L1037.64 302.287L1037.86 303H1038.6V302ZM975.603 92V91H974.259L974.645 92.2873L975.603 92ZM1024.5 92L1025.47 91.7633L1025.29 91H1024.5V92ZM1064.4 255.8L1063.43 256.037L1064.27 259.486L1065.36 256.105L1064.4 255.8ZM1116.9 92V91H1116.17L1115.95 91.6948L1116.9 92ZM1161.3 92L1162.26 91.6963L1162.03 91H1161.3V92ZM1213.5 255.8L1212.55 256.104L1213.64 259.508L1214.47 256.035L1213.5 255.8ZM1253.1 92V91H1252.32L1252.13 91.765L1253.1 92ZM1302 92L1302.96 92.2873L1303.35 91H1302V92ZM1239 302V303H1239.75L1239.96 302.287L1239 302ZM1189.5 302L1188.55 302.295L1188.76 303H1189.5V302ZM1138.15 138.502L1087.15 301.702L1089.06 302.298L1140.06 139.098L1138.15 138.502ZM1088.1 301H1038.6V303H1088.1V301ZM1039.56 301.713L976.561 91.7126L974.645 92.2873L1037.64 302.287L1039.56 301.713ZM975.603 93H1024.5V91H975.603V93ZM1023.53 92.2367L1063.43 256.037L1065.37 255.563L1025.47 91.7633L1023.53 92.2367ZM1065.36 256.105L1117.86 92.3052L1115.95 91.6948L1063.45 255.495L1065.36 256.105ZM1116.9 93H1161.3V91H1116.9V93ZM1160.35 92.3036L1212.55 256.104L1214.46 255.496L1162.26 91.6963L1160.35 92.3036ZM1214.47 256.035L1254.07 92.235L1252.13 91.765L1212.53 255.565L1214.47 256.035ZM1253.1 93H1302V91H1253.1V93ZM1301.04 91.7126L1238.04 301.713L1239.96 302.287L1302.96 92.2873L1301.04 91.7126ZM1239 301H1189.5V303H1239V301ZM1190.46 301.705L1140.06 138.505L1138.15 139.095L1188.55 302.295L1190.46 301.705ZM1314.33 234.5V233.5H1313.33V234.5H1314.33ZM1362.63 234.5H1363.63V233.5H1362.63V234.5ZM1378.53 265.4L1378.01 266.256L1378.02 266.262L1378.03 266.267L1378.53 265.4ZM1455.63 267.2L1456.08 268.09L1456.09 268.085L1456.1 268.08L1455.63 267.2ZM1457.73 222.2L1457.2 223.048L1457.21 223.057L1457.23 223.066L1457.73 222.2ZM1423.83 212.6L1424.01 211.618L1424 211.615L1423.83 212.6ZM1396.83 207.8L1396.65 208.784L1396.65 208.785L1396.83 207.8ZM1368.33 202.4L1368.09 203.372L1368.11 203.376L1368.12 203.379L1368.33 202.4ZM1348.53 196.1L1348.16 197.032L1348.17 197.035L1348.53 196.1ZM1331.73 186.5L1332.4 185.757L1332.39 185.754L1331.73 186.5ZM1346.13 100.7L1345.61 99.8434L1345.61 99.8465L1346.13 100.7ZM1481.43 98.9L1481.91 98.0258L1481.9 98.0211L1481.89 98.0165L1481.43 98.9ZM1511.13 149.6V150.6H1512.13V149.6H1511.13ZM1463.73 149.6L1462.73 149.636L1462.76 150.6H1463.73V149.6ZM1447.53 125L1447.06 125.885L1447.07 125.887L1447.53 125ZM1380.33 124.7L1379.88 123.806L1379.87 123.809L1380.33 124.7ZM1380.63 166.7L1381.03 165.785L1381.01 165.776L1380.99 165.768L1380.63 166.7ZM1421.73 175.7L1421.56 176.686L1421.56 176.687L1421.73 175.7ZM1445.43 179.6L1445.6 178.615L1445.59 178.613L1445.43 179.6ZM1499.13 197.6L1499.74 196.809L1499.73 196.801L1499.72 196.793L1499.13 197.6ZM1490.43 295.1L1489.91 294.243L1489.91 294.243L1490.43 295.1ZM1350.93 296.9L1351.35 295.996L1351.35 295.994L1350.93 296.9ZM1314.33 235.5H1362.63V233.5H1314.33V235.5ZM1361.63 234.5V235.7H1363.63V234.5H1361.63ZM1361.63 235.7C1361.63 249.415 1367.08 259.658 1378.01 266.256L1379.04 264.544C1368.77 258.342 1363.63 248.784 1363.63 235.7H1361.63ZM1378.03 266.267C1387.64 271.791 1401.14 274.5 1418.43 274.5V272.5C1401.31 272.5 1388.21 269.809 1379.02 264.533L1378.03 266.267ZM1418.43 274.5C1435.08 274.5 1447.67 272.399 1456.08 268.09L1455.17 266.31C1447.18 270.401 1434.98 272.5 1418.43 272.5V274.5ZM1456.1 268.08C1466.77 262.335 1472.23 254.025 1472.23 243.2H1470.23C1470.23 253.175 1465.28 260.865 1455.15 266.32L1456.1 268.08ZM1472.23 243.2C1472.23 233.972 1467.47 226.674 1458.23 221.334L1457.23 223.066C1465.98 228.126 1470.23 234.828 1470.23 243.2H1472.23ZM1458.26 221.352C1455.73 219.773 1451.59 218.192 1445.92 216.588C1440.23 214.977 1432.93 213.321 1424.01 211.618L1423.64 213.582C1432.52 215.279 1439.77 216.923 1445.38 218.512C1451.01 220.108 1454.92 221.627 1457.2 223.048L1458.26 221.352ZM1424 211.615L1397 206.815L1396.65 208.785L1423.65 213.585L1424 211.615ZM1397.01 206.816C1383.81 204.416 1374.32 202.618 1368.53 201.421L1368.12 203.379C1373.94 204.582 1383.45 206.384 1396.65 208.784L1397.01 206.816ZM1368.56 201.428C1362.81 200.04 1356.25 197.954 1348.88 195.165L1348.17 197.035C1355.6 199.846 1362.24 201.96 1368.09 203.372L1368.56 201.428ZM1348.89 195.168C1341.76 192.394 1336.28 189.249 1332.4 185.757L1331.06 187.243C1335.18 190.951 1340.9 194.206 1348.16 197.032L1348.89 195.168ZM1332.39 185.754C1323.25 177.58 1318.63 166.174 1318.63 151.4H1316.63C1316.63 166.626 1321.41 178.62 1331.06 187.246L1332.39 185.754ZM1318.63 151.4C1318.63 129.55 1327.94 112.973 1346.65 101.554L1345.61 99.8465C1326.31 111.627 1316.63 128.85 1316.63 151.4H1318.63ZM1346.64 101.557C1363.03 91.6832 1385.13 86.7 1413.03 86.7V84.7C1384.92 84.7 1362.42 89.7168 1345.61 99.8434L1346.64 101.557ZM1413.03 86.7C1441.94 86.7 1464.56 91.0905 1480.96 99.7835L1481.89 98.0165C1465.09 89.1095 1442.11 84.7 1413.03 84.7V86.7ZM1480.94 99.7741C1490.71 105.201 1497.99 112.058 1502.84 120.33C1507.68 128.604 1510.13 138.348 1510.13 149.6H1512.13C1512.13 138.052 1509.62 127.946 1504.56 119.32C1499.51 110.692 1491.94 103.599 1481.91 98.0258L1480.94 99.7741ZM1511.13 148.6H1463.73V150.6H1511.13V148.6ZM1464.73 149.564C1464.31 138.176 1458.68 129.665 1447.99 124.112L1447.07 125.887C1457.17 131.135 1462.34 139.024 1462.73 149.636L1464.73 149.564ZM1447.99 124.115C1439.78 119.802 1427.68 117.7 1411.83 117.7V119.7C1427.57 119.7 1439.28 121.798 1447.06 125.885L1447.99 124.115ZM1411.83 117.7C1398.74 117.7 1388.07 119.712 1379.88 123.806L1380.77 125.594C1388.59 121.688 1398.92 119.7 1411.83 119.7V117.7ZM1379.87 123.809C1369.04 129.326 1363.43 137.018 1363.43 146.9H1365.43C1365.43 137.982 1370.41 130.874 1380.78 125.591L1379.87 123.809ZM1363.43 146.9C1363.43 151.617 1364.85 155.744 1367.7 159.233C1370.54 162.706 1374.76 165.491 1380.26 167.632L1380.99 165.768C1375.69 163.709 1371.81 161.094 1369.25 157.967C1366.7 154.856 1365.43 151.183 1365.43 146.9H1363.43ZM1380.22 167.615C1382.83 168.76 1387.59 170.078 1394.44 171.577C1401.31 173.082 1410.35 174.785 1421.56 176.686L1421.89 174.714C1410.7 172.815 1401.69 171.118 1394.87 169.623C1388.01 168.122 1383.43 166.839 1381.03 165.785L1380.22 167.615ZM1421.56 176.687L1445.26 180.587L1445.59 178.613L1421.89 174.713L1421.56 176.687ZM1445.26 180.585C1470.63 184.98 1488.33 190.951 1498.54 198.407L1499.72 196.793C1489.12 189.049 1471.03 183.02 1445.6 178.615L1445.26 180.585ZM1498.51 198.391C1511.44 208.381 1517.93 222.373 1517.93 240.5H1519.93C1519.93 221.827 1513.21 207.219 1499.74 196.809L1498.51 198.391ZM1517.93 240.5C1517.93 265.203 1508.57 283.049 1489.91 294.243L1490.94 295.957C1510.29 284.351 1519.93 265.797 1519.93 240.5H1517.93ZM1489.91 294.243C1476.15 302.499 1454.28 306.7 1424.13 306.7V308.7C1454.38 308.7 1476.7 304.501 1490.94 295.957L1489.91 294.243ZM1424.13 306.7C1390.56 306.7 1366.34 303.096 1351.35 295.996L1350.5 297.804C1365.91 305.104 1390.5 308.7 1424.13 308.7V306.7ZM1351.35 295.994C1339.31 290.368 1330.32 282.52 1324.34 272.464C1318.35 262.402 1315.33 250.063 1315.33 235.4H1313.33C1313.33 250.337 1316.4 263.048 1322.62 273.486C1328.83 283.93 1338.15 292.032 1350.5 297.806L1351.35 295.994ZM1315.33 235.4V234.5H1313.33V235.4H1315.33Z" fill="#D8D8D7" mask="url(#path-1-outside-1_44_8)"/>
<rect x="143.718" y="99.75" width="1.76893" height="74.5122" fill="#E7E7E7"/>
</svg>
