<svg width="1083" height="955" viewBox="0 0 1083 955" fill="none" xmlns="http://www.w3.org/2000/svg">
<g opacity="0.1">
<circle cx="541.492" cy="409.286" r="409.286" fill="#F88308"/>
<path fill-rule="evenodd" clip-rule="evenodd" d="M1037.12 477.5C1003.85 721.504 794.628 909.524 541.492 909.524C288.357 909.524 79.1362 721.504 45.8663 477.5L0 477.5C33.5681 746.695 263.204 955 541.492 955C819.78 955 1049.42 746.695 1082.98 477.5L1037.12 477.5Z" fill="#F5F5F7"/>
<path d="M624.772 429.974H566.883C548.645 429.956 530.906 435.874 516.385 446.82C501.865 457.766 491.365 473.135 486.498 490.57C481.63 508.005 482.663 526.543 489.438 543.339C496.213 560.136 508.356 574.264 524.004 583.555L613.222 636.667H775.386L567.023 512.632H624.912C669.123 512.632 711.524 495.21 742.786 464.198C774.048 433.187 791.611 391.126 791.611 347.268C791.611 303.411 774.048 261.35 742.786 230.339C711.524 199.327 669.123 181.905 624.912 181.905H416.409C383.263 181.954 351.488 195.038 328.05 218.288C304.612 241.538 291.423 273.058 291.373 305.939V636.667H374.746V305.939C374.759 294.982 379.152 284.477 386.963 276.728C394.773 268.98 405.363 264.622 416.409 264.61H624.772C635.883 264.349 646.936 266.294 657.278 270.332C667.621 274.37 677.046 280.419 684.997 288.122C692.949 295.826 699.268 305.029 703.582 315.19C707.897 325.351 710.119 336.266 710.119 347.292C710.119 358.318 707.897 369.232 703.582 379.393C699.268 389.555 692.949 398.758 684.997 406.461C677.046 414.165 667.621 420.214 657.278 424.251C646.936 428.289 635.883 430.235 624.772 429.974Z" fill="#F5F5F7"/>
</g>
</svg>
