<svg width="48" height="42" viewBox="0 0 48 42" fill="none" xmlns="http://www.w3.org/2000/svg">
<circle cx="24" cy="18" r="18" fill="#F88308"/>
<path fill-rule="evenodd" clip-rule="evenodd" d="M0.185669 21C1.66196 32.8389 11.7611 42 24 42C36.2388 42 46.338 32.8389 47.8143 21H45.7971C44.334 31.7311 35.1326 40 24 40C12.8673 40 3.66601 31.7311 2.20283 21H0.185669Z" fill="#F5F5F7"/>
<path d="M27.6625 18.9098H25.1166C24.3146 18.9091 23.5344 19.1693 22.8958 19.6507C22.2572 20.1321 21.7955 20.808 21.5814 21.5748C21.3673 22.3416 21.4127 23.1568 21.7107 23.8955C22.0086 24.6342 22.5427 25.2556 23.2309 25.6642L27.1546 28H34.2864L25.1228 22.5451H27.6687C29.6131 22.5451 31.4778 21.7789 32.8527 20.415C34.2276 19.0511 35 17.2013 35 15.2725C35 13.3437 34.2276 11.4939 32.8527 10.1301C31.4778 8.76621 29.6131 8 27.6687 8H18.499C17.0412 8.00216 15.6438 8.57757 14.613 9.60009C13.5822 10.6226 13.0022 12.0088 13 13.4549V28H16.6667V13.4549C16.6672 12.973 16.8604 12.511 17.2039 12.1703C17.5474 11.8295 18.0132 11.6378 18.499 11.6373H27.6625C28.1512 11.6258 28.6373 11.7114 29.0922 11.8889C29.547 12.0665 29.9615 12.3325 30.3112 12.6713C30.6609 13.0101 30.9388 13.4149 31.1286 13.8618C31.3183 14.3086 31.416 14.7887 31.416 15.2736C31.416 15.7585 31.3183 16.2385 31.1286 16.6854C30.9388 17.1322 30.6609 17.537 30.3112 17.8758C29.9615 18.2146 29.547 18.4806 29.0922 18.6582C28.6373 18.8358 28.1512 18.9213 27.6625 18.9098Z" fill="#F5F5F7"/>
</svg>
